<?xml version="1.0" standalone="no"?>
<!DOCTYPE svg PUBLIC "-//W3C//DTD SVG 20010904//EN"
 "http://www.w3.org/TR/2001/REC-SVG-20010904/DTD/svg10.dtd">
<svg version="1.0" xmlns="http://www.w3.org/2000/svg"
 width="626.000000pt" height="626.000000pt" viewBox="0 0 626.000000 626.000000"
 preserveAspectRatio="xMidYMid meet">

<g transform="translate(0.000000,626.000000) scale(0.100000,-0.100000)"
fill="currentColor" stroke="none">
<path d="M2905 6124 c-461 -46 -796 -143 -1175 -340 -259 -135 -501 -315 -720
-534 -239 -239 -419 -489 -566 -785 -225 -456 -324 -902 -311 -1405 13 -489
116 -889 340 -1325 130 -252 318 -505 537 -725 236 -237 491 -420 784 -565
309 -153 559 -231 916 -286 197 -31 607 -34 805 -6 682 97 1260 382 1735 857
473 472 761 1055 857 1735 23 162 25 574 4 735 -73 573 -292 1092 -643 1532
-104 131 -324 350 -453 453 -358 287 -797 498 -1230 594 -207 46 -362 63 -605
66 -129 2 -253 1 -275 -1z m86 -22 c-20 -37 -69 -82 -90 -82 -20 0 -18 4 16
50 26 35 44 50 60 50 20 0 22 -3 14 -18z m375 8 c66 0 -99 -202 -218 -267
l-33 -18 145 -6 c191 -8 424 -44 578 -88 26 -8 49 -5 110 15 134 44 208 91
247 159 10 17 13 17 53 -1 l42 -19 -19 -30 c-25 -41 -113 -91 -229 -131 -53
-19 -89 -34 -79 -34 56 0 419 -167 571 -263 95 -59 140 -69 269 -56 93 9 149
28 183 60 24 23 44 18 77 -19 17 -19 17 -20 0 -37 -9 -10 -31 -24 -48 -31 -44
-18 -186 -36 -263 -32 -64 3 -72 7 -172 71 -698 452 -1590 550 -2376 262 -149
-54 -404 -183 -539 -272 -238 -157 -459 -357 -625 -567 -96 -121 -122 -136
-34 -19 75 97 284 315 386 400 76 63 78 66 104 146 33 105 42 218 21 269 l-16
37 33 21 c19 11 38 20 44 20 20 0 34 -69 27 -128 -8 -68 -52 -221 -68 -240 -6
-8 45 23 113 68 131 85 340 195 475 250 72 29 86 39 123 89 66 87 105 174 110
242 4 58 5 59 41 69 51 14 51 14 51 -33 0 -52 -48 -156 -113 -244 l-46 -62 47
15 c193 59 506 114 650 114 34 0 54 8 100 41 112 81 192 175 192 224 0 30 10
37 44 31 16 -3 35 -6 42 -6z m557 -97 c8 -7 -49 -48 -86 -62 -24 -9 -64 6 -41
15 5 2 26 15 45 29 33 23 69 32 82 18z m-1843 -94 c0 -41 -60 -132 -76 -116
-7 7 34 110 47 118 19 12 29 11 29 -2z m1222 -170 c364 -25 678 -110 998 -270
944 -473 1518 -1463 1450 -2503 -24 -377 -104 -674 -270 -1011 -207 -419 -511
-763 -909 -1029 -128 -86 -387 -217 -535 -271 -581 -213 -1231 -213 -1812 0
-148 54 -407 185 -535 271 -305 203 -552 450 -754 754 -87 131 -217 388 -270
534 -213 582 -213 1230 0 1812 53 146 183 403 270 534 255 383 588 683 989
891 367 190 720 279 1178 297 25 1 115 -3 200 -9z m1461 -113 c22 -17 18 -20
-51 -36 -43 -10 -55 -10 -69 1 -14 12 -10 16 38 31 66 21 60 20 82 4z m-3503
-286 c-18 -34 -30 -22 -30 32 0 35 6 58 18 71 16 19 17 18 20 -32 2 -28 -2
-60 -8 -71z m3550 -116 c113 -91 286 -259 377 -367 64 -75 69 -78 147 -103
105 -33 217 -42 268 -21 l37 16 21 -33 c28 -46 26 -53 -20 -67 -51 -15 -184 5
-276 43 l-61 24 79 -120 c83 -128 193 -337 248 -471 29 -72 39 -86 89 -123 87
-66 174 -105 242 -110 54 -4 59 -6 68 -35 18 -51 15 -57 -32 -57 -52 0 -156
48 -244 113 l-62 46 15 -47 c59 -193 114 -506 114 -650 0 -34 8 -54 41 -100
83 -113 157 -178 223 -192 30 -6 31 -8 28 -51 -5 -53 -5 -53 -36 -45 -53 13
-179 139 -243 242 -10 15 -12 -1 -12 -86 -1 -164 -44 -458 -90 -618 -8 -26 -5
-48 15 -108 42 -129 96 -215 158 -249 17 -10 17 -13 3 -48 -9 -20 -22 -37 -29
-37 -45 0 -108 99 -157 245 -17 50 -31 83 -31 75 -1 -60 -163 -415 -266 -580
l-54 -88 0 -109 c0 -123 17 -196 56 -242 27 -33 24 -49 -14 -84 -19 -17 -20
-17 -37 0 -10 9 -24 31 -31 48 -18 44 -36 186 -32 263 3 64 7 72 71 172 362
559 500 1242 386 1912 -43 251 -116 473 -239 723 -171 349 -421 663 -715 897
-120 96 -122 98 -109 98 5 0 52 -34 104 -76z m-3901 -207 c24 -51 43 -185 39
-275 -3 -64 -7 -72 -71 -172 -363 -561 -500 -1241 -386 -1914 74 -430 274
-872 556 -1221 104 -129 271 -296 398 -397 120 -96 122 -98 109 -98 -36 0
-357 296 -480 442 -64 75 -68 78 -147 104 -105 33 -218 42 -269 21 l-37 -16
-21 33 c-27 45 -26 53 15 66 54 18 236 -14 316 -55 25 -13 19 0 -52 107 -84
129 -207 363 -253 483 -24 61 -35 76 -84 113 -88 66 -175 105 -243 110 -58 4
-59 5 -69 41 -14 51 -14 51 33 51 52 0 156 -48 244 -113 l62 -46 -15 47 c-59
192 -114 504 -114 645 0 40 -6 57 -41 105 -83 113 -157 178 -223 192 -30 6
-31 8 -28 51 5 53 5 53 36 45 53 -13 179 -139 243 -242 10 -15 12 -1 12 81 1
167 44 463 90 623 8 26 5 48 -15 108 -42 129 -96 215 -158 249 -17 10 -17 13
-3 48 9 21 23 37 32 37 41 0 103 -99 152 -239 18 -53 33 -88 33 -79 0 58 163
413 267 580 l55 90 -4 126 c-4 132 -22 198 -61 231 -22 18 -22 24 8 60 32 37
48 32 74 -22z m4546 -17 c18 -20 17 -20 -34 -20 -53 0 -91 13 -91 30 0 6 24
10 53 10 41 0 58 -5 72 -20z m-4789 -317 c4 -28 2 -42 -8 -51 -22 -17 -54 88
-37 120 l12 22 13 -26 c7 -14 16 -43 20 -65z m5193 -452 c50 -18 81 -44 67
-59 -16 -16 -126 45 -126 70 0 10 -3 11 59 -11z m-5550 -404 c8 -21 -2 -60
-11 -47 -49 66 -68 117 -51 133 7 8 48 -49 62 -86z m5811 -554 c0 -20 -3 -22
-18 -14 -37 20 -82 69 -82 90 0 20 4 18 50 -16 35 -26 50 -44 50 -60z m-5922
-322 c24 -22 42 -48 42 -60 0 -20 -4 -18 -50 16 -35 26 -50 44 -50 60 0 31 8
29 58 -16z m5795 -537 c27 -45 34 -78 19 -88 -9 -5 -59 71 -62 94 -8 53 8 51
43 -6z m-5591 -363 c25 -10 64 -48 56 -56 -8 -8 -102 27 -115 43 -28 34 -8 39
59 13z m5237 -558 c-17 -31 -26 -21 -39 43 -9 44 -9 58 1 70 11 14 16 8 31
-37 15 -44 16 -58 7 -76z m-354 10 c-96 -128 -290 -333 -417 -439 -75 -64 -78
-68 -104 -147 -33 -105 -42 -218 -21 -269 l16 -37 -33 -21 c-46 -28 -53 -26
-67 20 -15 51 5 184 43 276 l24 61 -120 -79 c-127 -83 -362 -206 -481 -252
-61 -24 -75 -34 -112 -84 -72 -97 -105 -167 -111 -238 -4 -59 -6 -64 -35 -73
-51 -18 -57 -15 -57 32 0 52 48 156 113 244 l46 62 -47 -15 c-181 -57 -507
-114 -650 -114 -34 0 -54 -8 -100 -41 -113 -83 -178 -157 -192 -223 -6 -30 -8
-31 -51 -28 -53 5 -53 5 -45 36 13 53 139 179 242 243 15 10 1 12 -81 12 -167
1 -463 44 -623 90 -26 8 -48 5 -108 -15 -129 -42 -215 -96 -249 -158 -10 -17
-13 -17 -48 -3 -21 9 -37 23 -37 32 0 41 99 103 239 152 53 18 88 33 78 33
-57 0 -415 165 -580 267 l-90 56 -103 -1 c-117 0 -198 -19 -243 -58 -33 -27
-49 -24 -84 14 -17 19 -17 20 0 37 9 10 31 24 48 31 44 18 186 36 263 32 64
-3 72 -7 172 -71 256 -165 566 -295 860 -361 217 -48 337 -60 590 -60 252 0
374 12 585 60 590 132 1135 472 1508 941 44 56 83 100 85 98 3 -2 -8 -21 -23
-42z m-4374 -253 c34 -19 21 -30 -34 -30 -41 0 -58 5 -72 20 -18 20 -17 20 34
20 29 0 61 -5 72 -10z m4119 -383 c0 -41 -5 -58 -20 -72 -20 -18 -20 -17 -20
34 0 53 13 91 30 91 6 0 10 -24 10 -53z m-3411 -220 c16 -20 -90 -53 -120 -37
-26 14 -19 22 34 37 57 15 73 15 86 0z m2638 -211 c-3 -8 -11 -33 -18 -56 -11
-37 -43 -69 -56 -56 -9 8 19 80 40 104 23 25 42 29 34 8z m-1787 -145 c0 -3
-21 -18 -46 -33 -44 -27 -74 -35 -87 -21 -8 7 50 49 85 62 23 8 48 4 48 -8z
m873 -111 c-26 -35 -44 -50 -60 -50 -13 0 -23 3 -23 8 0 18 79 92 99 92 20 0
18 -4 -16 -50z"/>
<path d="M2920 5734 c-19 -2 -73 -9 -120 -14 -466 -56 -933 -254 -1310 -557
-111 -88 -308 -285 -394 -393 -374 -469 -576 -1045 -576 -1640 0 -596 203
-1174 576 -1640 89 -111 287 -308 394 -394 611 -487 1397 -678 2160 -525 399
80 795 266 1120 525 109 87 307 285 394 394 293 368 475 785 551 1265 26 159
31 482 11 655 -39 333 -118 601 -263 891 -128 256 -280 467 -488 674 -406 407
-882 645 -1479 742 -87 14 -499 26 -576 17z m495 -439 c624 -82 1187 -435
1538 -965 181 -273 306 -616 347 -950 13 -109 13 -391 0 -500 -79 -650 -437
-1225 -986 -1584 -197 -128 -480 -248 -700 -296 -312 -68 -656 -68 -968 0
-201 44 -473 155 -656 267 -560 345 -938 928 -1026 1583 -16 123 -18 409 -4
530 30 244 102 488 209 706 323 659 933 1100 1671 1209 123 18 435 18 575 0z"/>
<path d="M2875 5265 c-392 -48 -777 -209 -1085 -455 -107 -85 -297 -280 -374
-383 -325 -436 -477 -971 -426 -1498 40 -414 203 -817 460 -1139 85 -107 280
-297 383 -374 579 -431 1315 -550 1990 -320 301 103 557 259 786 479 197 189
336 378 450 609 358 726 275 1585 -215 2243 -77 103 -267 298 -374 383 -446
356 -1032 523 -1595 455z m390 -165 c51 -6 138 -22 192 -35 114 -27 139 -48
169 -143 33 -104 25 -170 -50 -412 -226 -727 -219 -706 -295 -772 -121 -104
-298 -60 -376 92 -27 53 -270 832 -286 914 -18 99 27 254 84 290 29 18 183 54
277 65 109 12 179 12 285 1z m-1398 -656 c26 -9 69 -30 95 -48 49 -32 633
-655 672 -716 106 -164 32 -352 -152 -391 -67 -14 -56 -16 -601 107 -207 47
-400 96 -429 109 -60 27 -150 113 -175 166 -16 34 -15 39 8 126 54 204 172
412 325 576 l82 87 64 0 c35 0 85 -7 111 -16z m2770 -56 c164 -171 279 -372
338 -592 23 -83 23 -91 8 -120 -48 -95 -137 -166 -245 -196 -40 -11 -255 -60
-478 -111 -430 -96 -452 -99 -539 -63 -46 19 -97 68 -123 118 -34 66 -24 172
22 249 16 25 478 531 610 667 81 84 161 119 271 120 l66 0 70 -72z m-1754
-862 c43 -18 67 -56 67 -107 0 -33 -6 -47 -34 -75 -28 -28 -42 -34 -76 -34
-85 0 -138 77 -107 153 16 37 67 77 100 77 10 0 32 -6 50 -14z m604 -11 c92
-61 47 -205 -64 -205 -38 0 -50 5 -79 34 -98 98 26 247 143 171z m-238 -192
c27 -17 58 -48 76 -77 25 -42 30 -59 30 -116 0 -57 -5 -74 -30 -116 -19 -30
-49 -60 -79 -79 -42 -25 -59 -30 -116 -30 -57 0 -74 5 -116 30 -30 19 -60 49
-79 79 -25 42 -30 59 -30 115 0 54 5 75 28 113 66 113 205 149 316 81z m-706
-371 c87 -39 139 -120 139 -213 0 -111 -25 -146 -364 -512 -167 -180 -323
-341 -346 -358 -59 -43 -140 -69 -215 -69 l-64 0 -70 73 c-164 170 -276 365
-337 588 l-25 92 26 50 c33 59 97 118 167 151 31 15 223 64 491 125 476 109
508 113 598 73z m1787 -77 c277 -63 444 -105 480 -122 63 -31 148 -111 173
-164 16 -34 15 -39 -7 -125 -60 -220 -175 -421 -339 -591 l-70 -73 -64 0 c-75
0 -157 26 -216 70 -47 34 -613 643 -656 705 -132 190 -4 418 224 400 28 -2
241 -47 475 -100z m-1414 41 c28 -28 34 -42 34 -76 0 -55 -30 -96 -80 -111
-32 -10 -44 -9 -77 7 -111 55 -79 214 44 214 38 0 50 -5 79 -34z m575 13 c16
-11 33 -36 40 -59 10 -32 9 -44 -7 -77 -56 -113 -214 -79 -214 47 0 34 6 48
34 76 28 28 42 34 76 34 26 0 53 -8 71 -21z m-289 -361 c52 -15 123 -80 153
-137 27 -54 271 -835 286 -916 18 -97 -27 -253 -84 -289 -33 -21 -192 -55
-317 -68 -81 -8 -139 -8 -220 0 -125 13 -284 47 -317 68 -57 36 -102 192 -84
289 15 82 259 861 286 915 28 55 100 122 147 137 45 15 103 15 150 1z"/>
<path d="M3020 5084 c-83 -10 -170 -26 -241 -45 -74 -20 -77 -22 -103 -69 -32
-59 -34 -85 -3 -40 25 38 58 51 202 82 190 40 477 24 650 -35 25 -9 49 -27 63
-47 30 -45 28 -19 -4 40 -26 47 -29 49 -103 69 -42 11 -102 24 -134 30 -66 12
-274 21 -327 15z"/>
<path d="M1623 4357 c-136 -141 -242 -320 -301 -507 -41 -133 -43 -144 -28
-165 14 -19 36 -13 36 9 0 34 54 196 95 282 62 133 142 250 246 359 49 51 89
95 89 99 0 3 -13 6 -29 6 -22 0 -44 -17 -108 -83z"/>
<path d="M4465 4433 c20 -3 51 -25 93 -66 173 -169 296 -379 357 -611 25 -92
26 -99 10 -123 -10 -14 -12 -22 -6 -19 6 4 22 26 36 50 l25 43 -24 85 c-67
230 -175 419 -329 576 l-71 72 -61 -1 c-33 -1 -46 -4 -30 -6z"/>
<path d="M2818 3513 c12 -2 32 -2 45 0 12 2 2 4 -23 4 -25 0 -35 -2 -22 -4z"/>
<path d="M2761 3484 c-26 -34 -26 -34 6 -89 27 -43 30 -45 74 -45 44 0 47 2
63 38 17 37 17 39 -4 75 -19 33 -27 37 -61 37 -35 0 -42 -4 -61 -35 -11 -20
-23 -34 -25 -31 -3 3 4 21 15 41 25 41 22 46 -7 9z"/>
<path d="M2910 3472 c13 -23 25 -40 28 -38 5 6 -26 64 -39 72 -7 4 -2 -12 11
-34z"/>
<path d="M2920 3390 c-18 -45 -52 -64 -98 -57 -25 5 -32 3 -22 -3 20 -13 54
-12 84 1 24 11 65 73 54 84 -3 3 -11 -8 -18 -25z"/>
<path d="M2740 3400 c0 -15 39 -72 40 -58 0 4 -9 22 -20 40 -11 18 -20 26 -20
18z"/>
<path d="M3398 3513 c12 -2 32 -2 45 0 12 2 2 4 -23 4 -25 0 -35 -2 -22 -4z"/>
<path d="M3340 3478 c-20 -33 -28 -66 -9 -38 19 29 39 70 34 70 -3 0 -14 -15
-25 -32z"/>
<path d="M3492 3475 c28 -51 28 -51 28 -32 0 9 -11 29 -25 44 l-26 28 23 -40z"/>
<path d="M3360 3463 c-21 -35 -21 -39 -5 -71 20 -44 12 -54 -10 -12 -9 18 -19
30 -22 27 -8 -9 15 -44 43 -66 28 -22 69 -27 94 -11 10 6 4 8 -21 4 -20 -4
-45 -1 -55 5 -16 8 -9 10 32 11 48 0 52 2 70 35 19 35 19 36 -1 73 -18 32 -25
37 -61 40 -38 3 -43 0 -64 -35z"/>
<path d="M3497 3378 c-10 -17 -16 -33 -13 -35 7 -7 38 45 34 56 -1 6 -11 -3
-21 -21z"/>
<path d="M3042 3304 c-62 -31 -100 -87 -108 -160 -5 -41 -1 -58 23 -104 23
-44 39 -60 83 -83 46 -24 63 -28 103 -23 101 11 172 82 183 182 5 41 1 58 -23
104 -23 44 -39 59 -82 82 -67 35 -112 35 -179 2z"/>
<path d="M1292 2576 c-7 -17 -8 -36 -1 -63 64 -242 174 -445 332 -610 64 -66
86 -83 108 -83 16 0 29 3 29 6 0 4 -37 46 -83 93 -95 98 -158 184 -216 291
-48 90 -104 234 -122 313 -15 69 -31 87 -47 53z"/>
<path d="M4921 2523 c-28 -109 -60 -193 -118 -303 -71 -136 -62 -131 -133 -76
-33 26 -67 49 -75 50 -8 1 -31 16 -52 32 -21 17 -44 34 -51 38 -16 9 -62 -30
-62 -52 0 -16 135 -149 187 -185 18 -12 33 -27 33 -32 0 -6 -34 -44 -75 -85
-41 -41 -75 -79 -75 -86 0 -6 12 -9 30 -6 21 3 52 28 108 86 157 164 268 367
331 610 8 30 7 45 -5 67 -8 16 -16 29 -18 29 -2 0 -13 -39 -25 -87z m-463
-293 c-7 -10 -14 -17 -17 -15 -4 4 18 35 25 35 2 0 -1 -9 -8 -20z m52 -7 c0 5
7 2 15 -7 11 -11 13 -21 5 -40 -13 -34 -22 -33 -15 2 5 25 5 26 -5 4 -9 -21
-11 -22 -26 -8 -8 9 -20 16 -25 16 -6 0 -7 5 -3 11 4 8 9 7 15 -2 6 -11 9 -9
9 7 0 27 11 38 22 22 4 -7 8 -9 8 -5z m63 -57 c-3 -4 -9 -2 -14 5 -6 10 -9 8
-9 -8 0 -12 -4 -25 -10 -28 -13 -8 -13 7 0 40 8 22 12 24 24 13 8 -7 12 -17 9
-22z m93 -38 c30 -24 54 -46 54 -50 0 -3 -12 -20 -26 -37 l-26 -31 -26 19
c-15 11 -42 33 -61 49 l-35 29 23 31 c12 18 27 32 32 32 6 0 35 -19 65 -42z"/>
<path d="M4491 2194 c0 -11 3 -14 6 -6 3 7 2 16 -1 19 -3 4 -6 -2 -5 -13z"/>
<path d="M2800 2930 c-10 -6 -4 -8 21 -4 46 8 74 -7 98 -54 11 -20 20 -31 21
-24 0 24 -32 70 -57 81 -29 13 -63 14 -83 1z"/>
<path d="M2756 2896 c-9 -14 -16 -31 -16 -38 0 -7 9 2 21 21 23 39 20 54 -5
17z"/>
<path d="M2774 2875 c-19 -35 -19 -36 1 -73 18 -33 24 -37 62 -38 39 -1 44 2
63 34 21 34 21 37 4 74 -16 36 -19 38 -64 38 -43 0 -48 -3 -66 -35z"/>
<path d="M2740 2817 c0 -9 11 -29 25 -44 l26 -28 -23 40 c-28 51 -28 51 -28
32z"/>
<path d="M2910 2788 c-13 -22 -18 -38 -11 -34 13 8 44 66 39 72 -3 2 -15 -15
-28 -38z"/>
<path d="M2818 2743 c12 -2 32 -2 45 0 12 2 2 4 -23 4 -25 0 -35 -2 -22 -4z"/>
<path d="M3374 2929 c-22 -11 -60 -67 -51 -76 3 -3 13 9 21 26 21 40 50 55 95
47 25 -4 31 -2 21 4 -19 12 -59 12 -86 -1z"/>
<path d="M3480 2918 c0 -4 9 -22 20 -40 11 -18 20 -26 20 -18 0 15 -39 72 -40
58z"/>
<path d="M3356 2872 c-17 -37 -17 -39 5 -76 20 -34 25 -37 63 -34 36 3 43 8
61 40 20 37 20 38 1 73 -18 32 -23 35 -66 35 -45 0 -48 -2 -64 -38z"/>
<path d="M3320 2825 c0 -12 38 -75 45 -75 3 0 -1 12 -9 28 -23 41 -36 58 -36
47z"/>
<path d="M3493 2787 l-23 -42 25 28 c14 15 25 35 25 43 0 21 -3 18 -27 -29z"/>
<path d="M3398 2743 c12 -2 32 -2 45 0 12 2 2 4 -23 4 -25 0 -35 -2 -22 -4z"/>
<path d="M2650 1350 c0 -7 12 -34 26 -60 26 -47 29 -49 103 -69 136 -36 204
-44 351 -44 147 0 215 8 351 44 74 20 77 22 103 69 32 59 34 85 4 40 -26 -38
-59 -51 -203 -82 -141 -29 -369 -29 -510 0 -144 31 -177 44 -202 82 -13 18
-23 27 -23 20z"/>
</g>
</svg>
