<svg width="393" height="782" viewBox="0 0 393 782" fill="none" xmlns="http://www.w3.org/2000/svg">
<g clip-path="url(#clip0_2184_1057)">
<path d="M393 0H0V782H393V0Z" fill="#A72116" stroke="#A72116" stroke-miterlimit="10"/>
<path d="M76.72 619.6C69.5 616.67 52.7 636.91 51.28 638.9C46.5 645.62 40.49 653.98 39.73 666.34C37.92 695.59 78.27 727.21 78.27 727.21L162.9 798.07C162.9 798.07 212.56 788.82 213.88 778.68C216.88 755.61 89.64 744.31 74.39 679.91C67.89 652.48 85.11 623 76.72 619.6Z" fill="#782521" stroke="#782521" stroke-miterlimit="10"/>
<path d="M141.51 384.46C143.76 384.68 146.7 384.6 154.73 386.91C168.19 390.77 209.43 426.26 240.34 445.88C250.27 452.18 261.94 451.57 265.72 451.74C276.75 452.23 288.92 451.1 294.52 449.46C299.07 448.13 319.51 444.63 318.95 438.81C318.06 429.55 261.25 446.09 218.29 415.42C190.44 395.53 182.86 366.12 163.47 367.93C153.61 368.85 146.24 377.33 141.5 384.47L141.51 384.46Z" fill="#782521" stroke="#782521" stroke-miterlimit="10"/>
<path d="M267.03 275.27C262.11 280.69 250.71 287.3 245.07 298.31C243.33 301.7 239.09 313.07 244.2 324.85C248.36 334.44 261.01 345.39 288.67 368.92C292.08 371.82 301.85 379.74 304.21 387.42C308.07 399.98 304.35 401.05 306.57 403.16C309.81 406.24 326.67 399.4 327.56 378.49C327.95 369.45 321.57 362.74 310.13 350.6C292.49 331.87 286.33 335.09 279.53 323.49C268.22 304.19 276.03 279.51 269.54 278.17C268.7 278 267.97 274.22 267.02 275.27H267.03Z" fill="#782521" stroke="#782521" stroke-miterlimit="10"/>
<path d="M62.2399 634.14C58.2199 641.38 50.6899 665.54 61.1699 684.4C74.6699 708.71 164.4 775.6 178.82 787.49C194.34 800.29 199.85 810.26 201.06 810.88C202.74 811.74 206.51 782.35 195.69 768.31C159.63 721.53 65.8699 627.59 62.2399 634.13V634.14Z" fill="#81170E" stroke="#81170E" stroke-miterlimit="10"/>
<path d="M75.9199 383.85C71.8999 391.09 60.1899 411.96 73.1199 429.24C89.3299 450.9 162.43 506.58 176.84 518.47C192.36 531.27 175.88 548.94 177.09 549.56C178.77 550.42 211.44 525.58 200.62 511.55C164.56 464.77 79.5499 377.32 75.9099 383.85H75.9199Z" fill="#81170E" stroke="#81170E" stroke-miterlimit="10"/>
<path d="M268.4 451.7C265.89 451.12 260.58 450.15 256.22 447.95C245.9 442.75 238.83 437.25 235.74 434.84C193.86 402.07 175.55 386.72 164.77 384.23C152.8 381.46 147.1 383.27 139.11 384.94C131.68 386.49 133.51 367.7 138.98 362.71C145.3 356.94 157.97 363.26 200.64 383.65C254.54 409.41 270.91 416.82 272.58 431.74C273.45 439.55 271.41 447.19 268.4 451.7Z" fill="#81170E" stroke="#81170E" stroke-miterlimit="10"/>
<path d="M256.89 290C254.06 293.27 250.33 304.02 250.97 312.6C251.58 320.72 255.45 327.74 264.79 336.35C275.19 345.94 285.19 352.81 301.7 367.34C304.8 370.07 308.59 373.3 311.81 378.81C314.02 382.61 313.48 390.62 315.39 389.67C317.3 388.72 323.35 390.83 323.35 382.09C323.35 350.36 272.16 272.37 256.89 290Z" fill="#81170E" stroke="#81170E" stroke-miterlimit="10"/>
<path d="M294.69 308.63C296.55 305.19 301.03 300.48 302.3 299.2C314.07 287.34 409.95 224.53 419.63 217.97C426.64 213.22 415.23 203.38 407.99 207.51C350.87 240.1 297.83 280.51 290.89 290.21C287.7 294.67 291.99 313.61 294.69 308.63Z" fill="#DB3821" stroke="#DB3821" stroke-miterlimit="10"/>
<path d="M347.67 373.21C354.74 365.31 352.65 397.62 352.03 400.83C349.52 413.86 340.22 424.02 332.55 431.67C327.67 436.53 317.06 445.8 296.98 450.41C289.03 452.23 274.46 452.26 268.39 451.7C266.8 451.55 265.59 450.15 265.75 448.55C266.61 439.97 272.3 429.18 270.03 424.09C269.02 421.82 327.6 395.6 347.66 373.21H347.67Z" fill="#DB3821" stroke="#DB3821" stroke-miterlimit="10"/>
<path d="M143.05 367.17C143.35 368.46 142.58 376.92 142.18 382.68C142.11 383.7 141.41 384.56 140.42 384.83C137.24 385.72 125.7 391.5 122.52 393.82C116.53 398.21 113.12 402.4 111.9 407.82C110.92 412.14 101.44 401.69 100.35 395.39C98.15 382.7 112.96 368.74 127.13 365.36C130.59 364.53 141.61 361.04 143.05 367.17Z" fill="#DB3821" stroke="#DB3821" stroke-miterlimit="10"/>
<path d="M226.87 513.92C228.08 514 229.39 534.7 228.71 542.11C227.45 555.81 220.56 560.08 214.25 565.44C203.2 574.83 180.14 593.34 180.14 593.34C180.14 593.34 105.66 649.78 102.52 660.28C99.3799 670.78 96.1899 672.15 94.3399 672.3C91.8899 672.5 90.1299 654.1 90.1299 646.75C90.1299 636.5 218.54 513.36 226.87 513.93V513.92Z" fill="#DB3821" stroke="#DB3821" stroke-miterlimit="10"/>
<path d="M271.58 269.59C270.73 270.27 257.21 281.01 256.33 296.26C256.02 301.67 257.78 308.85 263.41 316.88C269.04 324.91 281.91 334.38 293.9 344.4C305.89 354.42 316.74 364.59 317.53 372.88C318.41 382.08 311.96 393.21 302.41 400.16C292.86 407.11 280.21 409.88 268.66 402.35C259.81 396.58 244.88 383.4 228.6 370.57C212.32 357.74 194.67 345.25 180.4 340.89C175.52 339.4 164.76 336.95 151.38 337.35C137.99 337.76 121.98 341.02 106.59 350.97C102 353.94 91.69 359.81 82.56 370.6C73.43 381.39 66.26 397.81 75.72 414.61C83.18 427.87 116.25 454.03 134.07 468.55C161.04 490.51 189.58 506.94 189.62 521.22C189.65 531.02 181.94 535.39 173.88 542.58C165.41 550.13 105.32 592.24 86.11 606.39C61.72 624.35 56.77 637.1 57.85 654.36C59.68 683.63 116.92 722.92 226.27 807.11C248.95 824.57 275.76 812.2 267.8 808.1C268.54 793.57 182.06 727.73 160.74 711.64C158.17 709.7 105.08 669.96 99.62 659.97C91.33 644.82 103.61 635.19 116.52 625.3C116.52 625.3 183.46 571.78 209.91 551.49C218.97 544.14 226.7 534.46 227.66 526.5C230.44 503.48 215.68 493.04 212.37 490.35C202.57 482.38 158.21 447.75 128.89 425.19C124.94 422.63 109.97 411.67 109.02 401.66C108.38 395.53 110.33 389.79 113.53 385.37C116.73 380.95 121.19 377.86 122.71 376.56C129.36 370.86 142.13 364.46 158.29 365.86C179.27 367.67 202.31 391.14 207.98 394.95C211.19 397.1 226.16 409.51 237.45 417.96C248.22 426.46 253.19 429.62 261.21 431.88C267.74 433.72 274.48 434.4 278.52 434.59C289.73 435.1 299.54 432.4 307.41 428.97C315.28 425.54 321.2 421.37 324.65 418.95C329.42 415.6 334.55 411.05 339.29 405.73C344.03 400.41 349 394.86 350.72 386.68C352.03 380.46 352.15 377.81 351.82 372.98C350.91 359.62 335.98 345.06 328.13 338.15C320.28 331.24 298.46 313.66 296.05 311.13C293.64 308.6 291.05 305.45 290.58 301.6C290.28 299.12 290.55 296.69 291.24 294.52C291.93 292.35 293.01 290.46 294.33 289.05C306.17 276.12 427.39 197.77 427.39 197.77L413.24 191.84L417.01 169.64C417.01 169.64 288.27 256.19 271.57 269.61L271.58 269.59Z" fill="#F4F1F1" stroke="#F4F1F1" stroke-miterlimit="10"/>
<path d="M321.21 250.58L396.69 198.41" stroke="#A72116" stroke-width="3" stroke-miterlimit="10"/>
<path d="M298.81 267.18C286.31 276.78 268.36 286.65 274.18 304.12C278.34 316.61 296.09 328.57 300.62 333.09" stroke="#A72116" stroke-width="3" stroke-miterlimit="10"/>
<path d="M321.46 351.78C323.08 352.9 331.73 361.19 333.68 371.66C335.39 380.8 332.06 388.39 330.86 390.58" stroke="#A72116" stroke-width="3" stroke-miterlimit="10"/>
<path d="M314.22 407.88C311.46 410.31 299.83 420.85 282.17 420.56C262.01 420.23 249.65 407.03 247.59 404.76" stroke="#A72116" stroke-width="3" stroke-miterlimit="10"/>
<path d="M227.2 388.88L197.96 366.5" stroke="#A72116" stroke-width="3" stroke-miterlimit="10"/>
<path d="M172.32 354.09C168.55 352.71 161.5 351.09 154.21 350.98C146.55 350.87 139.53 352.52 135.66 353.87" stroke="#A72116" stroke-width="3" stroke-miterlimit="10"/>
<path d="M113.47 363.84C112.6 364.46 94.59 374.02 90.86 392.28C86.88 411.76 101.84 422.09 102.77 422.94" stroke="#A72116" stroke-width="3" stroke-miterlimit="10"/>
<path d="M124.36 441.07C136.49 450.65 149.19 459.65 161.32 469.23" stroke="#A72116" stroke-width="3" stroke-miterlimit="10"/>
<path d="M184.15 486.79C184.15 486.79 214.62 505.01 211.43 521.03C207.96 538.49 174.36 560.48 174.36 560.48" stroke="#A72116" stroke-width="3" stroke-miterlimit="10"/>
<path d="M150.71 577.44C129.21 592.81 111.72 605.6 98.8199 615.4C89.8799 622.2 78.5799 633.13 77.1399 644.67C74.6799 664.4 89.4099 674.48 93.5999 678.43" stroke="#A72116" stroke-width="3" stroke-miterlimit="10"/>
<path d="M114.55 696.05L148.73 722.54" stroke="#A72116" stroke-width="3" stroke-miterlimit="10"/>
<path d="M168.15 738.36L246.77 803.34" stroke="#A72116" stroke-width="3" stroke-miterlimit="10"/>
<path d="M112.12 48H279.96C310.92 48 336.07 73.14 336.07 104.12V169.82C336.07 182.41 325.85 192.63 313.26 192.63H78.81C66.22 192.62 56 182.4 56 169.81V104.12C56 73.14 81.14 48 112.12 48Z" fill="#81170E"/>
<path d="M116.84 58.6699H277.56C306.3 58.6699 329.63 81.9999 329.63 110.74V159.58C329.63 169.14 321.87 176.9 312.31 176.9H79.7599C70.1999 176.9 62.4399 169.14 62.4399 159.58V113.07C62.4399 83.0399 86.8199 58.6699 116.84 58.6699Z" fill="#A72116"/>
<path d="M59 122.7C58.93 107.1 66.39 81.3701 83.76 69.9901C96.86 61.4101 103.98 58.9501 125.33 58.7601C209.8 58.0101 265.47 57.9501 278.33 58.5401C291.19 59.1301 305.16 64.9401 315.58 75.5901C327.3 87.5701 328.95 97.9401 329.35 112.82C329.66 124.45 329.03 143.53 330.71 165.33" stroke="#DB3821" stroke-width="3" stroke-miterlimit="10"/>
<path d="M115.45 51.6599H275.82C306.79 51.6599 331.94 76.7999 331.94 107.78V166.99C331.94 179.58 321.72 189.8 309.13 189.8H82.1501C69.5601 189.8 59.3401 179.58 59.3401 166.99V107.78C59.3401 76.8099 84.4801 51.6599 115.45 51.6599Z" stroke="#81170E" stroke-width="6" stroke-miterlimit="10"/>
<path d="M124.17 65.5901H269.69C298.43 65.5901 321.76 88.9201 321.76 117.66V152.66C321.76 162.22 314 169.98 304.44 169.98H87.09C77.53 169.98 69.77 162.22 69.77 152.66V119.99C69.77 89.9601 94.15 65.5901 124.17 65.5901Z" fill="black"/>
<path d="M92.1899 96.1001C95.9799 98.5901 101.4 101.61 105.19 104.11" stroke="#F4F1F1" stroke-width="3" stroke-miterlimit="10"/>
<path d="M125.48 90.5299C123.17 88.3099 121.08 85.5999 118.77 83.3799" stroke="#F4F1F1" stroke-width="3" stroke-miterlimit="10"/>
<path d="M143.8 77.28C145.46 79.88 147.12 82.48 148.79 85.09" stroke="#F4F1F1" stroke-width="3" stroke-miterlimit="10"/>
<path d="M170.83 76.01C171.59 78.78 172.42 82.04 173.18 84.8" stroke="#F4F1F1" stroke-width="3" stroke-miterlimit="10"/>
<path d="M197.86 71.73C198.02 75.21 198.18 79.02 198.34 82.5" stroke="#F4F1F1" stroke-width="3" stroke-miterlimit="10"/>
<path d="M251.84 77.3C250.18 79.9 248.52 82.5001 246.85 85.1101" stroke="#F4F1F1" stroke-width="3" stroke-miterlimit="10"/>
<path d="M224.63 75.22C223.87 77.99 223.04 81.25 222.28 84.01" stroke="#F4F1F1" stroke-width="3" stroke-miterlimit="10"/>
<path d="M270.8 90.5399C273.11 88.3199 275.2 85.6099 277.51 83.3899" stroke="#F4F1F1" stroke-width="3" stroke-miterlimit="10"/>
<path d="M303.13 96.23C299.34 98.72 293.92 101.74 290.13 104.24" stroke="#F4F1F1" stroke-width="3" stroke-miterlimit="10"/>
<path d="M197.26 95.98L195.31 114.18L201.36 114.26L198.6 95.52L197.26 95.98Z" fill="#F4F1F1" stroke="#F4F1F1" stroke-miterlimit="10"/>
<path d="M195.729 669.111H177.732V687H195.729V669.111Z" fill="#DA9737"/>
<path d="M168 628.298C185.539 628.196 192.582 626.617 200.534 631.913C207.042 636.248 207.085 646.233 202.501 651.205C196.335 657.886 189.442 656.635 176.643 656.215" stroke="#DA9737" stroke-width="20" stroke-miterlimit="10"/>
<path d="M56.7286 498.111H38.7319V516H56.7286V498.111Z" fill="#DA9737"/>
<path d="M29 457.298C46.5394 457.196 53.5822 455.617 61.5339 460.913C68.0421 465.248 68.0849 475.233 63.5013 480.205C57.3353 486.886 50.4421 485.635 37.6432 485.215" stroke="#DA9737" stroke-width="20" stroke-miterlimit="10"/>
<path d="M168.729 299.112H150.732V317H168.729V299.112Z" fill="#DA9737"/>
<path d="M141 258.298C158.539 258.196 165.582 256.617 173.534 261.913C180.042 266.248 180.085 276.233 175.501 281.205C169.335 287.886 162.442 286.635 149.643 286.215" stroke="#DA9737" stroke-width="20" stroke-miterlimit="10"/>
<path d="M182.296 309.392L184.816 306.68H187.576L183.232 311.144L186.328 317H181.24L179.56 313.832L176.392 317H173.632L178.648 312.104L175.792 306.68H180.856L182.296 309.392ZM188.986 304.232C189.978 304.088 190.874 303.792 191.674 303.344C192.49 302.896 193.138 302.368 193.618 301.76H197.29L194.026 317H188.842L191.218 305.84H188.626L188.986 304.232ZM209.181 305.072H202.245L201.837 307.136C202.205 306.96 202.605 306.816 203.037 306.704C203.485 306.576 204.013 306.512 204.621 306.512C205.581 306.512 206.381 306.648 207.021 306.92C207.661 307.192 208.173 307.552 208.557 308C208.957 308.448 209.237 308.952 209.397 309.512C209.573 310.056 209.661 310.6 209.661 311.144C209.661 312.008 209.477 312.808 209.109 313.544C208.757 314.28 208.245 314.92 207.573 315.464C206.917 316.008 206.109 316.432 205.149 316.736C204.189 317.04 203.109 317.192 201.909 317.192C201.445 317.192 200.997 317.16 200.565 317.096C200.133 317.048 199.709 316.952 199.293 316.808C198.893 316.648 198.485 316.44 198.069 316.184C197.669 315.928 197.253 315.592 196.821 315.176L197.517 311.84H201.309C201.277 312.08 201.253 312.288 201.237 312.464C201.221 312.64 201.213 312.92 201.213 313.304C201.213 314.104 201.317 314.672 201.525 315.008C201.733 315.344 202.029 315.512 202.413 315.512C202.813 315.512 203.157 315.36 203.445 315.056C203.733 314.752 203.965 314.376 204.141 313.928C204.317 313.464 204.445 312.968 204.525 312.44C204.605 311.912 204.645 311.416 204.645 310.952C204.645 310.632 204.621 310.328 204.573 310.04C204.525 309.736 204.445 309.472 204.333 309.248C204.221 309.024 204.069 308.848 203.877 308.72C203.685 308.576 203.445 308.504 203.157 308.504C202.869 308.504 202.565 308.592 202.245 308.768C201.925 308.944 201.613 309.288 201.309 309.8H198.357L200.085 301.76H209.877L209.181 305.072Z" fill="white"/>
<path d="M74.296 508.392L76.816 505.68H79.576L75.232 510.144L78.328 516H73.24L71.56 512.832L68.392 516H65.632L70.648 511.104L67.792 505.68H72.856L74.296 508.392ZM91.6418 504.072H84.7058L84.2978 506.136C84.6658 505.96 85.0658 505.816 85.4978 505.704C85.9458 505.576 86.4738 505.512 87.0818 505.512C88.0418 505.512 88.8418 505.648 89.4818 505.92C90.1218 506.192 90.6338 506.552 91.0178 507C91.4178 507.448 91.6978 507.952 91.8578 508.512C92.0338 509.056 92.1218 509.6 92.1218 510.144C92.1218 511.008 91.9378 511.808 91.5698 512.544C91.2178 513.28 90.7058 513.92 90.0338 514.464C89.3778 515.008 88.5698 515.432 87.6098 515.736C86.6498 516.04 85.5698 516.192 84.3698 516.192C83.9058 516.192 83.4578 516.16 83.0258 516.096C82.5938 516.048 82.1698 515.952 81.7538 515.808C81.3538 515.648 80.9458 515.44 80.5298 515.184C80.1298 514.928 79.7138 514.592 79.2818 514.176L79.9778 510.84H83.7698C83.7378 511.08 83.7138 511.288 83.6978 511.464C83.6818 511.64 83.6738 511.92 83.6738 512.304C83.6738 513.104 83.7778 513.672 83.9858 514.008C84.1938 514.344 84.4898 514.512 84.8738 514.512C85.2738 514.512 85.6178 514.36 85.9058 514.056C86.1938 513.752 86.4258 513.376 86.6018 512.928C86.7778 512.464 86.9058 511.968 86.9858 511.44C87.0658 510.912 87.1058 510.416 87.1058 509.952C87.1058 509.632 87.0818 509.328 87.0338 509.04C86.9858 508.736 86.9058 508.472 86.7938 508.248C86.6818 508.024 86.5298 507.848 86.3378 507.72C86.1458 507.576 85.9058 507.504 85.6178 507.504C85.3298 507.504 85.0258 507.592 84.7058 507.768C84.3858 507.944 84.0738 508.288 83.7698 508.8H80.8178L82.5458 500.76H92.3378L91.6418 504.072ZM102.477 500.52C103.725 500.52 104.749 500.696 105.549 501.048C106.349 501.4 106.981 501.944 107.445 502.68C107.765 503.176 108.013 503.744 108.189 504.384C108.365 505.008 108.453 505.72 108.453 506.52C108.453 507.192 108.389 507.88 108.261 508.584C108.133 509.288 107.949 509.968 107.709 510.624C107.469 511.28 107.181 511.904 106.845 512.496C106.525 513.072 106.165 513.576 105.765 514.008C105.045 514.808 104.221 515.376 103.293 515.712C102.365 516.032 101.237 516.192 99.9093 516.192C98.6293 516.192 97.5893 516.048 96.7893 515.76C96.0053 515.472 95.3813 515.008 94.9173 514.368C94.5333 513.904 94.2453 513.32 94.0533 512.616C93.8773 511.896 93.7893 511.064 93.7893 510.12C93.7893 509.272 93.8693 508.448 94.0293 507.648C94.1893 506.832 94.4213 506.072 94.7253 505.368C95.0453 504.664 95.4293 504.024 95.8773 503.448C96.3253 502.872 96.8373 502.384 97.4133 501.984C98.0853 501.504 98.8293 501.144 99.6453 500.904C100.477 500.648 101.421 500.52 102.477 500.52ZM99.8613 514.512C100.181 514.512 100.485 514.344 100.773 514.008C101.077 513.672 101.357 513.232 101.613 512.688C101.869 512.128 102.093 511.496 102.285 510.792C102.493 510.072 102.669 509.336 102.813 508.584C102.957 507.816 103.069 507.072 103.149 506.352C103.229 505.616 103.269 504.944 103.269 504.336C103.269 503.52 103.197 502.96 103.053 502.656C102.909 502.336 102.701 502.176 102.429 502.176C102.093 502.176 101.773 502.344 101.469 502.68C101.165 503 100.885 503.432 100.629 503.976C100.373 504.504 100.133 505.12 99.9093 505.824C99.7013 506.528 99.5173 507.248 99.3573 507.984C99.2133 508.72 99.1013 509.448 99.0213 510.168C98.9413 510.888 98.9013 511.544 98.9013 512.136C98.9013 513.032 98.9893 513.656 99.1653 514.008C99.3413 514.344 99.5733 514.512 99.8613 514.512Z" fill="white"/>
<path d="M209.296 679.392L211.816 676.68H214.576L210.232 681.144L213.328 687H208.24L206.56 683.832L203.392 687H200.632L205.648 682.104L202.792 676.68H207.856L209.296 679.392ZM215.986 674.232C216.978 674.088 217.874 673.792 218.674 673.344C219.49 672.896 220.138 672.368 220.618 671.76H224.29L221.026 687H215.842L218.218 675.84H215.626L215.986 674.232ZM233.493 671.52C234.741 671.52 235.765 671.696 236.565 672.048C237.365 672.4 237.997 672.944 238.461 673.68C238.781 674.176 239.029 674.744 239.205 675.384C239.381 676.008 239.469 676.72 239.469 677.52C239.469 678.192 239.405 678.88 239.277 679.584C239.149 680.288 238.965 680.968 238.725 681.624C238.485 682.28 238.197 682.904 237.861 683.496C237.541 684.072 237.181 684.576 236.781 685.008C236.061 685.808 235.237 686.376 234.309 686.712C233.381 687.032 232.253 687.192 230.925 687.192C229.645 687.192 228.605 687.048 227.805 686.76C227.021 686.472 226.397 686.008 225.933 685.368C225.549 684.904 225.261 684.32 225.069 683.616C224.893 682.896 224.805 682.064 224.805 681.12C224.805 680.272 224.885 679.448 225.045 678.648C225.205 677.832 225.437 677.072 225.741 676.368C226.061 675.664 226.445 675.024 226.893 674.448C227.341 673.872 227.853 673.384 228.429 672.984C229.101 672.504 229.845 672.144 230.661 671.904C231.493 671.648 232.437 671.52 233.493 671.52ZM230.877 685.512C231.197 685.512 231.501 685.344 231.789 685.008C232.093 684.672 232.373 684.232 232.629 683.688C232.885 683.128 233.109 682.496 233.301 681.792C233.509 681.072 233.685 680.336 233.829 679.584C233.973 678.816 234.085 678.072 234.165 677.352C234.245 676.616 234.285 675.944 234.285 675.336C234.285 674.52 234.213 673.96 234.069 673.656C233.925 673.336 233.717 673.176 233.445 673.176C233.109 673.176 232.789 673.344 232.485 673.68C232.181 674 231.901 674.432 231.645 674.976C231.389 675.504 231.149 676.12 230.925 676.824C230.717 677.528 230.533 678.248 230.373 678.984C230.229 679.72 230.117 680.448 230.037 681.168C229.957 681.888 229.917 682.544 229.917 683.136C229.917 684.032 230.005 684.656 230.181 685.008C230.357 685.344 230.589 685.512 230.877 685.512ZM249.524 671.52C250.772 671.52 251.796 671.696 252.596 672.048C253.396 672.4 254.028 672.944 254.492 673.68C254.812 674.176 255.06 674.744 255.236 675.384C255.412 676.008 255.5 676.72 255.5 677.52C255.5 678.192 255.436 678.88 255.308 679.584C255.18 680.288 254.996 680.968 254.756 681.624C254.516 682.28 254.228 682.904 253.892 683.496C253.572 684.072 253.212 684.576 252.812 685.008C252.092 685.808 251.268 686.376 250.34 686.712C249.412 687.032 248.284 687.192 246.956 687.192C245.676 687.192 244.636 687.048 243.836 686.76C243.052 686.472 242.428 686.008 241.964 685.368C241.58 684.904 241.292 684.32 241.1 683.616C240.924 682.896 240.836 682.064 240.836 681.12C240.836 680.272 240.916 679.448 241.076 678.648C241.236 677.832 241.468 677.072 241.772 676.368C242.092 675.664 242.476 675.024 242.924 674.448C243.372 673.872 243.884 673.384 244.46 672.984C245.132 672.504 245.876 672.144 246.692 671.904C247.524 671.648 248.468 671.52 249.524 671.52ZM246.908 685.512C247.228 685.512 247.532 685.344 247.82 685.008C248.124 684.672 248.404 684.232 248.66 683.688C248.916 683.128 249.14 682.496 249.332 681.792C249.54 681.072 249.716 680.336 249.86 679.584C250.004 678.816 250.116 678.072 250.196 677.352C250.276 676.616 250.316 675.944 250.316 675.336C250.316 674.52 250.244 673.96 250.1 673.656C249.956 673.336 249.748 673.176 249.476 673.176C249.14 673.176 248.82 673.344 248.516 673.68C248.212 674 247.932 674.432 247.676 674.976C247.42 675.504 247.18 676.12 246.956 676.824C246.748 677.528 246.564 678.248 246.404 678.984C246.26 679.72 246.148 680.448 246.068 681.168C245.988 681.888 245.948 682.544 245.948 683.136C245.948 684.032 246.036 684.656 246.212 685.008C246.388 685.344 246.62 685.512 246.908 685.512Z" fill="white"/>
<path d="M257.54 560L256.36 556.86H249.34L248.14 560H244.1L249.08 547.9C249.46 546.96 249.94 546.2 250.5 545.62C251.06 545.06 251.86 544.76 252.86 544.76C253.9 544.76 254.7 545.06 255.3 545.62C255.9 546.18 256.38 546.94 256.76 547.86L261.7 560H257.54ZM252.52 548.62L250.54 553.76H255.18L253.24 548.62C253.2 548.54 253.14 548.46 253.1 548.38C253.06 548.3 252.98 548.26 252.88 548.26C252.78 548.26 252.7 548.3 252.66 548.36C252.6 548.44 252.56 548.52 252.52 548.62ZM261.002 550.9V548H262.942V545.56H266.442V548H272.942V550.9H266.442V555.76C266.442 556.28 266.542 556.62 266.762 556.82C266.962 557.02 267.322 557.1 267.802 557.1H269.742V560H267.362C265.702 560 264.522 559.66 263.802 558.96C263.082 558.26 262.742 557.2 262.742 555.76V550.9H261.002ZM270.845 550.9V548H272.785V545.56H276.285V548H280.385V550.9H276.285V555.76C276.285 556.28 276.385 556.62 276.605 556.82C276.805 557.02 277.165 557.1 277.645 557.1H280.385V560H277.205C275.545 560 274.365 559.66 273.645 558.96C272.925 558.26 272.585 557.2 272.585 555.76V550.9H270.845ZM294.075 555.12H285.495V555.2C285.495 555.96 285.655 556.48 285.995 556.72C286.315 556.98 286.895 557.1 287.715 557.1H293.795V560H287.935C286.755 560 285.755 559.88 284.955 559.62C284.155 559.36 283.495 559 283.015 558.52C282.535 558.04 282.175 557.48 281.955 556.8C281.735 556.14 281.635 555.4 281.635 554.6V553.08C281.635 551.5 282.095 550.24 283.015 549.28C283.935 548.32 285.435 547.84 287.535 547.84H288.335C289.455 547.84 290.375 547.98 291.135 548.24C291.875 548.52 292.455 548.9 292.895 549.38C293.335 549.86 293.635 550.44 293.815 551.12C293.975 551.8 294.075 552.56 294.075 553.38V555.12ZM288.775 550.52H287.215C286.575 550.52 286.115 550.66 285.875 550.94C285.615 551.22 285.495 551.7 285.495 552.34V552.6H290.475V552.34C290.475 551.7 290.335 551.22 290.075 550.94C289.815 550.66 289.375 550.52 288.775 550.52ZM296.039 560V548H303.479C305.219 548 306.479 548.44 307.279 549.32C308.059 550.2 308.459 551.4 308.459 552.9V560H304.659V552.8C304.659 552.2 304.539 551.76 304.339 551.5C304.139 551.24 303.739 551.1 303.159 551.1H299.839V560H296.039ZM323.625 545V560H315.105C313.625 560 312.465 559.52 311.625 558.52C310.785 557.54 310.365 556.24 310.365 554.6V553.4C310.365 551.78 310.785 550.48 311.625 549.48C312.465 548.5 313.625 548 315.105 548H319.825V545H323.625ZM316.405 557.04H319.825V550.96H316.405C315.585 550.96 315.025 551.16 314.725 551.52C314.405 551.9 314.265 552.48 314.265 553.26V554.84C314.265 555.64 314.405 556.2 314.725 556.54C315.025 556.88 315.585 557.04 316.405 557.04ZM342.766 555.12H334.186V555.2C334.186 555.96 334.346 556.48 334.686 556.72C335.006 556.98 335.586 557.1 336.406 557.1H342.486V560H336.626C335.446 560 334.446 559.88 333.646 559.62C332.846 559.36 332.186 559 331.706 558.52C331.226 558.04 330.866 557.48 330.646 556.8C330.426 556.14 330.326 555.4 330.326 554.6V553.08C330.326 551.5 330.786 550.24 331.706 549.28C332.626 548.32 334.126 547.84 336.226 547.84H337.026C338.146 547.84 339.066 547.98 339.826 548.24C340.566 548.52 341.146 548.9 341.586 549.38C342.026 549.86 342.326 550.44 342.506 551.12C342.666 551.8 342.766 552.56 342.766 553.38V555.12ZM337.466 550.52H335.906C335.266 550.52 334.806 550.66 334.566 550.94C334.306 551.22 334.186 551.7 334.186 552.34V552.6H339.166V552.34C339.166 551.7 339.026 551.22 338.766 550.94C338.506 550.66 338.066 550.52 337.466 550.52ZM347.71 548L350.39 556.42C350.47 556.68 350.53 556.84 350.61 556.92C350.67 557 350.77 557.02 350.89 557.02C350.97 557.02 351.05 556.98 351.13 556.9C351.19 556.82 351.27 556.64 351.35 556.38L354.01 548H357.81L354.57 557.08C354.17 558.16 353.69 558.96 353.11 559.46C352.51 559.96 351.77 560.2 350.89 560.2C349.93 560.2 349.13 559.96 348.53 559.48C347.91 559 347.43 558.24 347.07 557.24L343.79 548H347.71ZM370.598 555.12H362.018V555.2C362.018 555.96 362.178 556.48 362.518 556.72C362.838 556.98 363.418 557.1 364.238 557.1H370.318V560H364.458C363.278 560 362.278 559.88 361.478 559.62C360.678 559.36 360.018 559 359.538 558.52C359.058 558.04 358.698 557.48 358.478 556.8C358.258 556.14 358.158 555.4 358.158 554.6V553.08C358.158 551.5 358.618 550.24 359.538 549.28C360.458 548.32 361.958 547.84 364.058 547.84H364.858C365.978 547.84 366.898 547.98 367.658 548.24C368.398 548.52 368.978 548.9 369.418 549.38C369.858 549.86 370.158 550.44 370.338 551.12C370.498 551.8 370.598 552.56 370.598 553.38V555.12ZM365.298 550.52H363.738C363.098 550.52 362.638 550.66 362.398 550.94C362.138 551.22 362.018 551.7 362.018 552.34V552.6H366.998V552.34C366.998 551.7 366.858 551.22 366.598 550.94C366.338 550.66 365.898 550.52 365.298 550.52ZM372.562 560V548H380.002C381.742 548 383.002 548.44 383.802 549.32C384.582 550.2 384.982 551.4 384.982 552.9V560H381.182V552.8C381.182 552.2 381.062 551.76 380.862 551.5C380.662 551.24 380.262 551.1 379.682 551.1H376.362V560H372.562ZM386.548 550.9V548H388.488V545.56H391.988V548H396.088V550.9H391.988V555.76C391.988 556.28 392.088 556.62 392.308 556.82C392.508 557.02 392.868 557.1 393.348 557.1H396.088V560H392.908C391.248 560 390.068 559.66 389.348 558.96C388.628 558.26 388.288 557.2 388.288 555.76V550.9H386.548ZM403.948 555.8L400.688 555.16C399.488 554.92 398.568 554.5 397.928 553.9C397.288 553.3 396.988 552.5 396.988 551.5C396.988 551.04 397.068 550.6 397.248 550.16C397.428 549.74 397.708 549.36 398.088 549.04C398.468 548.72 398.948 548.48 399.548 548.28C400.148 548.1 400.848 548 401.668 548H407.628V550.9H401.368C400.968 550.9 400.688 550.96 400.568 551.08C400.428 551.2 400.368 551.34 400.368 551.5C400.368 551.68 400.428 551.82 400.548 551.92C400.668 552.04 400.868 552.12 401.168 552.16L404.128 552.74C405.588 553.04 406.628 553.48 407.268 554.06C407.908 554.64 408.228 555.4 408.228 556.36C408.228 557.44 407.808 558.32 406.988 559C406.168 559.68 404.928 560 403.268 560H393.388V557.1H403.808C404.228 557.1 404.528 557.04 404.688 556.92C404.848 556.8 404.928 556.64 404.928 556.44C404.928 556.24 404.828 556.1 404.648 556.02C404.468 555.94 404.228 555.86 403.948 555.8ZM244.4 574.9V572H246.34V569.56H249.84V572H253.94V574.9H249.84V579.76C249.84 580.28 249.94 580.62 250.16 580.82C250.36 581.02 250.72 581.1 251.2 581.1H253.94V584H250.76C249.1 584 247.92 583.66 247.2 582.96C246.48 582.26 246.14 581.2 246.14 579.76V574.9H244.4ZM268.249 577.28V578.72C268.249 580.4 267.729 581.72 266.729 582.72C265.729 583.72 264.289 584.2 262.429 584.2H261.029C259.149 584.2 257.709 583.72 256.709 582.72C255.689 581.72 255.189 580.4 255.189 578.72V577.28C255.189 575.62 255.689 574.3 256.709 573.3C257.709 572.3 259.149 571.8 261.029 571.8H262.429C264.289 571.8 265.729 572.3 266.729 573.3C267.729 574.3 268.249 575.62 268.249 577.28ZM264.349 576.96C264.349 576.2 264.189 575.62 263.909 575.24C263.629 574.86 263.109 574.66 262.389 574.66H261.069C260.329 574.66 259.809 574.86 259.529 575.24C259.229 575.62 259.089 576.2 259.089 576.96V579.02C259.089 579.82 259.229 580.4 259.529 580.78C259.809 581.16 260.329 581.34 261.069 581.34H262.389C263.109 581.34 263.629 581.16 263.909 580.78C264.189 580.4 264.349 579.82 264.349 579.02V576.96ZM286.965 579.12H278.385V579.2C278.385 579.96 278.545 580.48 278.885 580.72C279.205 580.98 279.785 581.1 280.605 581.1H286.685V584H280.825C279.645 584 278.645 583.88 277.845 583.62C277.045 583.36 276.385 583 275.905 582.52C275.425 582.04 275.065 581.48 274.845 580.8C274.625 580.14 274.525 579.4 274.525 578.6V577.08C274.525 575.5 274.985 574.24 275.905 573.28C276.825 572.32 278.325 571.84 280.425 571.84H281.225C282.345 571.84 283.265 571.98 284.025 572.24C284.765 572.52 285.345 572.9 285.785 573.38C286.225 573.86 286.525 574.44 286.705 575.12C286.865 575.8 286.965 576.56 286.965 577.38V579.12ZM281.665 574.52H280.105C279.465 574.52 279.005 574.66 278.765 574.94C278.505 575.22 278.385 575.7 278.385 576.34V576.6H283.365V576.34C283.365 575.7 283.225 575.22 282.965 574.94C282.705 574.66 282.265 574.52 281.665 574.52ZM300.31 577.5V584H292.09C290.89 584 289.97 583.74 289.33 583.22C288.69 582.7 288.37 582.02 288.37 581.18C288.37 580.26 288.67 579.54 289.31 578.98C289.93 578.42 290.69 577.84 291.57 577.24L294.97 574.9H288.65V572H293.91C296.19 572 297.83 572.5 298.83 573.46C299.81 574.42 300.31 575.78 300.31 577.5ZM293.17 581.1H296.71V577.12L293.09 579.94C292.85 580.12 292.69 580.26 292.61 580.34C292.51 580.42 292.47 580.54 292.47 580.66C292.47 580.82 292.51 580.92 292.63 581C292.73 581.08 292.91 581.1 293.17 581.1ZM302.621 576.46C302.621 575.9 302.701 575.34 302.881 574.8C303.041 574.28 303.321 573.8 303.701 573.38C304.061 572.98 304.541 572.64 305.141 572.38C305.741 572.14 306.441 572 307.281 572H310.801V574.9H308.141C307.461 574.9 307.001 575.02 306.761 575.26C306.521 575.5 306.421 575.92 306.421 576.5V584H302.621V576.46ZM312.269 584V572H319.709C321.449 572 322.709 572.44 323.509 573.32C324.289 574.2 324.689 575.4 324.689 576.9V584H320.889V576.8C320.889 576.2 320.769 575.76 320.569 575.5C320.369 575.24 319.969 575.1 319.389 575.1H316.069V584H312.269ZM331.82 587V572H340.34C341.82 572 342.98 572.5 343.82 573.48C344.66 574.48 345.08 575.78 345.08 577.4V578.6C345.08 580.24 344.66 581.54 343.82 582.52C342.98 583.52 341.82 584 340.34 584H335.62V587H331.82ZM339.04 574.96H335.62V581.04H339.04C339.84 581.04 340.4 580.86 340.72 580.48C341.02 580.12 341.18 579.54 341.18 578.74V577.16C341.18 576.38 341.02 575.82 340.72 575.48C340.4 575.14 339.84 574.96 339.04 574.96ZM359.616 577.28V578.72C359.616 580.4 359.096 581.72 358.096 582.72C357.096 583.72 355.656 584.2 353.796 584.2H352.396C350.516 584.2 349.076 583.72 348.076 582.72C347.056 581.72 346.556 580.4 346.556 578.72V577.28C346.556 575.62 347.056 574.3 348.076 573.3C349.076 572.3 350.516 571.8 352.396 571.8H353.796C355.656 571.8 357.096 572.3 358.096 573.3C359.096 574.3 359.616 575.62 359.616 577.28ZM355.716 576.96C355.716 576.2 355.556 575.62 355.276 575.24C354.996 574.86 354.476 574.66 353.756 574.66H352.436C351.696 574.66 351.176 574.86 350.896 575.24C350.596 575.62 350.456 576.2 350.456 576.96V579.02C350.456 579.82 350.596 580.4 350.896 580.78C351.176 581.16 351.696 581.34 352.436 581.34H353.756C354.476 581.34 354.996 581.16 355.276 580.78C355.556 580.4 355.716 579.82 355.716 579.02V576.96ZM365.548 570.96H361.748V568.6H365.548V570.96ZM361.748 584V572H365.548V584H361.748ZM368.109 584V572H375.549C377.289 572 378.549 572.44 379.349 573.32C380.129 574.2 380.529 575.4 380.529 576.9V584H376.729V576.8C376.729 576.2 376.609 575.76 376.409 575.5C376.209 575.24 375.809 575.1 375.229 575.1H371.909V584H368.109ZM382.095 574.9V572H384.035V569.56H387.535V572H391.635V574.9H387.535V579.76C387.535 580.28 387.635 580.62 387.855 580.82C388.055 581.02 388.415 581.1 388.895 581.1H391.635V584H388.455C386.795 584 385.615 583.66 384.895 582.96C384.175 582.26 383.835 581.2 383.835 579.76V574.9H382.095ZM399.495 579.8L396.235 579.16C395.035 578.92 394.115 578.5 393.475 577.9C392.835 577.3 392.535 576.5 392.535 575.5C392.535 575.04 392.615 574.6 392.795 574.16C392.975 573.74 393.255 573.36 393.635 573.04C394.015 572.72 394.495 572.48 395.095 572.28C395.695 572.1 396.395 572 397.215 572H403.175V574.9H396.915C396.515 574.9 396.235 574.96 396.115 575.08C395.975 575.2 395.915 575.34 395.915 575.5C395.915 575.68 395.975 575.82 396.095 575.92C396.215 576.04 396.415 576.12 396.715 576.16L399.675 576.74C401.135 577.04 402.175 577.48 402.815 578.06C403.455 578.64 403.775 579.4 403.775 580.36C403.775 581.44 403.355 582.32 402.535 583C401.715 583.68 400.475 584 398.815 584H388.935V581.1H399.355C399.775 581.1 400.075 581.04 400.235 580.92C400.395 580.8 400.475 580.64 400.475 580.44C400.475 580.24 400.375 580.1 400.195 580.02C400.015 579.94 399.775 579.86 399.495 579.8ZM256.54 601.5V608H248.32C247.12 608 246.2 607.74 245.56 607.22C244.92 606.7 244.6 606.02 244.6 605.18C244.6 604.26 244.9 603.54 245.54 602.98C246.16 602.42 246.92 601.84 247.8 601.24L251.2 598.9H244.88V596H250.14C252.42 596 254.06 596.5 255.06 597.46C256.04 598.42 256.54 599.78 256.54 601.5ZM249.4 605.1H252.94V601.12L249.32 603.94C249.08 604.12 248.92 604.26 248.84 604.34C248.74 604.42 248.7 604.54 248.7 604.66C248.7 604.82 248.74 604.92 248.86 605C248.96 605.08 249.14 605.1 249.4 605.1ZM258.851 608V596H266.291C268.031 596 269.291 596.44 270.091 597.32C270.871 598.2 271.271 599.4 271.271 600.9V608H267.471V600.8C267.471 600.2 267.351 599.76 267.151 599.5C266.951 599.24 266.551 599.1 265.971 599.1H262.651V608H258.851ZM286.438 593V608H277.918C276.438 608 275.278 607.52 274.438 606.52C273.598 605.54 273.178 604.24 273.178 602.6V601.4C273.178 599.78 273.598 598.48 274.438 597.48C275.278 596.5 276.438 596 277.918 596H282.638V593H286.438ZM279.218 605.04H282.638V598.96H279.218C278.398 598.96 277.838 599.16 277.538 599.52C277.218 599.9 277.078 600.48 277.078 601.26V602.84C277.078 603.64 277.218 604.2 277.538 604.54C277.838 604.88 278.398 605.04 279.218 605.04ZM302.178 604.9V596H305.978V608H298.538C296.778 608 295.518 607.56 294.738 606.68C293.938 605.8 293.558 604.62 293.558 603.1V596H297.358V603.2C297.358 603.82 297.458 604.26 297.658 604.52C297.858 604.78 298.258 604.9 298.858 604.9H302.178ZM308.305 608V596H315.745C317.485 596 318.745 596.44 319.545 597.32C320.325 598.2 320.725 599.4 320.725 600.9V608H316.925V600.8C316.925 600.2 316.805 599.76 316.605 599.5C316.405 599.24 316.005 599.1 315.425 599.1H312.105V608H308.305ZM323.291 593H327.091V608H323.291V593ZM342.292 601.28V602.72C342.292 604.4 341.772 605.72 340.772 606.72C339.772 607.72 338.332 608.2 336.472 608.2H335.072C333.192 608.2 331.752 607.72 330.752 606.72C329.732 605.72 329.232 604.4 329.232 602.72V601.28C329.232 599.62 329.732 598.3 330.752 597.3C331.752 596.3 333.192 595.8 335.072 595.8H336.472C338.332 595.8 339.772 596.3 340.772 597.3C341.772 598.3 342.292 599.62 342.292 601.28ZM338.392 600.96C338.392 600.2 338.232 599.62 337.952 599.24C337.672 598.86 337.152 598.66 336.432 598.66H335.112C334.372 598.66 333.852 598.86 333.572 599.24C333.272 599.62 333.132 600.2 333.132 600.96V603.02C333.132 603.82 333.272 604.4 333.572 604.78C333.852 605.16 334.372 605.34 335.112 605.34H336.432C337.152 605.34 337.672 605.16 337.952 604.78C338.232 604.4 338.392 603.82 338.392 603.02V600.96ZM349.943 598.9C349.143 598.9 348.563 599.08 348.203 599.44C347.843 599.8 347.663 600.32 347.663 601.04V603.1C347.663 603.9 347.843 604.44 348.203 604.7C348.563 604.98 349.143 605.1 349.943 605.1H354.443V608H349.823C347.663 608 346.123 607.54 345.183 606.6C344.223 605.68 343.763 604.38 343.763 602.74V601.28C343.763 599.64 344.223 598.36 345.183 597.42C346.123 596.48 347.663 596 349.823 596H354.443V598.9H349.943ZM356.605 608V593H360.405V600.3H360.825C361.185 600.3 361.465 600.28 361.665 600.2C361.865 600.14 362.045 600 362.225 599.78L365.185 596H369.545L364.585 601.9L369.705 608H365.185L362.065 604.06C361.845 603.8 361.645 603.64 361.485 603.58C361.325 603.54 361.065 603.5 360.745 603.5H360.405V608H356.605ZM245.16 635V620H253.68C255.16 620 256.32 620.5 257.16 621.48C258 622.48 258.42 623.78 258.42 625.4V626.6C258.42 628.24 258 629.54 257.16 630.52C256.32 631.52 255.16 632 253.68 632H248.96V635H245.16ZM252.38 622.96H248.96V629.04H252.38C253.18 629.04 253.74 628.86 254.06 628.48C254.36 628.12 254.52 627.54 254.52 626.74V625.16C254.52 624.38 254.36 623.82 254.06 623.48C253.74 623.14 253.18 622.96 252.38 622.96ZM260.316 624.46C260.316 623.9 260.396 623.34 260.576 622.8C260.736 622.28 261.016 621.8 261.396 621.38C261.756 620.98 262.236 620.64 262.836 620.38C263.436 620.14 264.136 620 264.976 620H268.496V622.9H265.836C265.156 622.9 264.696 623.02 264.456 623.26C264.216 623.5 264.116 623.92 264.116 624.5V632H260.316V624.46ZM274.005 618.96H270.205V616.6H274.005V618.96ZM270.205 632V620H274.005V632H270.205ZM287.906 632H280.466C279.026 632 277.966 631.7 277.286 631.06C276.606 630.44 276.266 629.66 276.266 628.72C276.266 627.78 276.566 627.02 277.206 626.44C277.826 625.88 278.626 625.44 279.586 625.14L283.806 623.82C283.966 623.78 284.106 623.7 284.186 623.62C284.266 623.54 284.326 623.44 284.326 623.32C284.326 623.2 284.266 623.1 284.186 623.02C284.086 622.94 283.946 622.9 283.746 622.9H276.666V620H283.666C285.246 620 286.366 620.3 287.026 620.88C287.686 621.48 288.026 622.24 288.026 623.2C288.026 624.2 287.726 624.98 287.166 625.54C286.606 626.1 285.846 626.52 284.886 626.8L280.506 628.12C280.326 628.18 280.186 628.24 280.106 628.32C280.006 628.4 279.966 628.52 279.966 628.64C279.966 628.8 280.006 628.9 280.106 628.98C280.206 629.06 280.346 629.1 280.546 629.1H287.906V632ZM301.77 627.12H293.19V627.2C293.19 627.96 293.35 628.48 293.69 628.72C294.01 628.98 294.59 629.1 295.41 629.1H301.49V632H295.63C294.45 632 293.45 631.88 292.65 631.62C291.85 631.36 291.19 631 290.71 630.52C290.23 630.04 289.87 629.48 289.65 628.8C289.43 628.14 289.33 627.4 289.33 626.6V625.08C289.33 623.5 289.79 622.24 290.71 621.28C291.63 620.32 293.13 619.84 295.23 619.84H296.03C297.15 619.84 298.07 619.98 298.83 620.24C299.57 620.52 300.15 620.9 300.59 621.38C301.03 621.86 301.33 622.44 301.51 623.12C301.67 623.8 301.77 624.56 301.77 625.38V627.12ZM296.47 622.52H294.91C294.27 622.52 293.81 622.66 293.57 622.94C293.31 623.22 293.19 623.7 293.19 624.34V624.6H298.17V624.34C298.17 623.7 298.03 623.22 297.77 622.94C297.51 622.66 297.07 622.52 296.47 622.52ZM309.925 627.8L306.665 627.16C305.465 626.92 304.545 626.5 303.905 625.9C303.265 625.3 302.965 624.5 302.965 623.5C302.965 623.04 303.045 622.6 303.225 622.16C303.405 621.74 303.685 621.36 304.065 621.04C304.445 620.72 304.925 620.48 305.525 620.28C306.125 620.1 306.825 620 307.645 620H313.605V622.9H307.345C306.945 622.9 306.665 622.96 306.545 623.08C306.405 623.2 306.345 623.34 306.345 623.5C306.345 623.68 306.405 623.82 306.525 623.92C306.645 624.04 306.845 624.12 307.145 624.16L310.105 624.74C311.565 625.04 312.605 625.48 313.245 626.06C313.885 626.64 314.205 627.4 314.205 628.36C314.205 629.44 313.785 630.32 312.965 631C312.145 631.68 310.905 632 309.245 632H299.365V629.1H309.785C310.205 629.1 310.505 629.04 310.665 628.92C310.825 628.8 310.905 628.64 310.905 628.44C310.905 628.24 310.805 628.1 310.625 628.02C310.445 627.94 310.205 627.86 309.925 627.8ZM316.098 617H320.418L320.258 626.26H316.258L316.098 617ZM316.158 632V627.8H320.358V632H316.158Z" fill="black"/>
</g>
<defs>
<clipPath id="clip0_2184_1057">
<rect width="393" height="782" fill="white"/>
</clipPath>
</defs>
</svg>
