<svg width="94" height="23" viewBox="0 0 94 23" fill="none" xmlns="http://www.w3.org/2000/svg">
<path d="M6 1.5H88C91.0376 1.5 93.5 3.96243 93.5 7V16C93.5 19.0376 91.0376 21.5 88 21.5H6C2.96243 21.5 0.5 19.0376 0.5 16V7C0.5 3.96243 2.96243 1.5 6 1.5Z" fill="black" stroke="black"/>
<mask id="path-2-outside-1_1709_6" maskUnits="userSpaceOnUse" x="12" y="4" width="67" height="15" fill="black">
<rect fill="white" x="12" y="4" width="67" height="15"/>
<path d="M30.3027 12.082C30.5859 12.082 30.8203 11.9844 31.0254 11.7793C31.2305 11.5742 31.3281 11.3301 31.3281 11.0469V9.05469C31.3281 8.77148 31.2305 8.53711 31.0254 8.33203C30.8203 8.12695 30.5859 8.0293 30.3027 8.0293H21.2988V12.082H30.3027ZM21.2988 18H16.6504V8.15625C16.6504 7.89258 16.6406 7.61914 16.6113 7.35547C16.582 7.0918 16.4941 6.84766 16.3574 6.60352C16.2109 6.36914 15.9863 6.1543 15.6738 5.96875H33.6523C34.2871 5.96875 34.834 6.19336 35.293 6.65234C35.752 7.11133 35.9766 7.66797 35.9766 8.30273V11.8086C35.9766 12.4434 35.752 12.9902 35.293 13.4492C34.834 13.9082 34.2871 14.1426 33.6523 14.1426H21.2988V18ZM49.1992 18H44.5508V8.0293H37.0508V5.96875H56.6895V8.0293H49.1992V18ZM75.4004 18H58.3984V15.9395H72.0508C72.334 15.9395 72.5781 15.8223 72.7832 15.5977C72.9785 15.373 73.0762 15.1191 73.0762 14.8359V14.0449C73.0762 13.7617 72.9785 13.5176 72.7832 13.3125C72.5781 13.1172 72.334 13.0195 72.0508 13.0195H60.7227C60.0879 13.0195 59.541 12.7852 59.082 12.3262C58.623 11.8672 58.3984 11.3203 58.3984 10.6855V8.05859C58.3984 7.81445 58.3789 7.57031 58.3496 7.31641C58.3203 7.0625 58.2324 6.81836 58.0957 6.58398C57.9492 6.35938 57.7246 6.1543 57.4219 5.96875H77.2363V8.0293H64.0723C63.7891 8.0293 63.5547 8.12695 63.3496 8.32227C63.1445 8.52734 63.0469 8.77148 63.0469 9.05469V9.85547C63.0469 10.1387 63.1445 10.3926 63.3496 10.6172C63.5547 10.8418 63.7891 10.959 64.0723 10.959H75.4004C76.0352 10.959 76.582 11.1836 77.041 11.6426C77.5 12.1016 77.7246 12.6484 77.7246 13.293V15.666C77.7246 16.3105 77.5 16.8574 77.041 17.3164C76.582 17.7754 76.0352 18 75.4004 18Z"/>
</mask>
<path d="M30.3027 12.082C30.5859 12.082 30.8203 11.9844 31.0254 11.7793C31.2305 11.5742 31.3281 11.3301 31.3281 11.0469V9.05469C31.3281 8.77148 31.2305 8.53711 31.0254 8.33203C30.8203 8.12695 30.5859 8.0293 30.3027 8.0293H21.2988V12.082H30.3027ZM21.2988 18H16.6504V8.15625C16.6504 7.89258 16.6406 7.61914 16.6113 7.35547C16.582 7.0918 16.4941 6.84766 16.3574 6.60352C16.2109 6.36914 15.9863 6.1543 15.6738 5.96875H33.6523C34.2871 5.96875 34.834 6.19336 35.293 6.65234C35.752 7.11133 35.9766 7.66797 35.9766 8.30273V11.8086C35.9766 12.4434 35.752 12.9902 35.293 13.4492C34.834 13.9082 34.2871 14.1426 33.6523 14.1426H21.2988V18ZM49.1992 18H44.5508V8.0293H37.0508V5.96875H56.6895V8.0293H49.1992V18ZM75.4004 18H58.3984V15.9395H72.0508C72.334 15.9395 72.5781 15.8223 72.7832 15.5977C72.9785 15.373 73.0762 15.1191 73.0762 14.8359V14.0449C73.0762 13.7617 72.9785 13.5176 72.7832 13.3125C72.5781 13.1172 72.334 13.0195 72.0508 13.0195H60.7227C60.0879 13.0195 59.541 12.7852 59.082 12.3262C58.623 11.8672 58.3984 11.3203 58.3984 10.6855V8.05859C58.3984 7.81445 58.3789 7.57031 58.3496 7.31641C58.3203 7.0625 58.2324 6.81836 58.0957 6.58398C57.9492 6.35938 57.7246 6.1543 57.4219 5.96875H77.2363V8.0293H64.0723C63.7891 8.0293 63.5547 8.12695 63.3496 8.32227C63.1445 8.52734 63.0469 8.77148 63.0469 9.05469V9.85547C63.0469 10.1387 63.1445 10.3926 63.3496 10.6172C63.5547 10.8418 63.7891 10.959 64.0723 10.959H75.4004C76.0352 10.959 76.582 11.1836 77.041 11.6426C77.5 12.1016 77.7246 12.6484 77.7246 13.293V15.666C77.7246 16.3105 77.5 16.8574 77.041 17.3164C76.582 17.7754 76.0352 18 75.4004 18Z" fill="white"/>
<path d="M21.2988 8.0293V7.0293H20.2988V8.0293H21.2988ZM21.2988 12.082H20.2988V13.082H21.2988V12.082ZM21.2988 18V19H22.2988V18H21.2988ZM16.6504 18H15.6504V19H16.6504V18ZM16.3574 6.60352L17.2299 6.11491L17.2182 6.09392L17.2054 6.07352L16.3574 6.60352ZM15.6738 5.96875V4.96875H12.0309L15.1633 6.8286L15.6738 5.96875ZM21.2988 14.1426V13.1426H20.2988V14.1426H21.2988ZM30.3027 12.082V13.082C30.8562 13.082 31.3435 12.8754 31.7325 12.4864L31.0254 11.7793L30.3183 11.0722C30.3064 11.0841 30.2999 11.0887 30.2991 11.0892C30.2985 11.0896 30.3016 11.0875 30.3074 11.085C30.3133 11.0826 30.3179 11.0815 30.3195 11.0812C30.3208 11.0809 30.3158 11.082 30.3027 11.082V12.082ZM31.0254 11.7793L31.7325 12.4864C32.1288 12.0901 32.3281 11.5901 32.3281 11.0469H31.3281H30.3281C30.3281 11.06 30.327 11.0665 30.3268 11.0677C30.3266 11.0686 30.3269 11.0666 30.3284 11.063C30.3299 11.0594 30.3312 11.0575 30.331 11.0578C30.3307 11.0582 30.3273 11.0632 30.3183 11.0722L31.0254 11.7793ZM31.3281 11.0469H32.3281V9.05469H31.3281H30.3281V11.0469H31.3281ZM31.3281 9.05469H32.3281C32.3281 8.50118 32.1215 8.01391 31.7325 7.62492L31.0254 8.33203L30.3183 9.03914C30.3302 9.05102 30.3348 9.05757 30.3353 9.05836C30.3357 9.05888 30.3336 9.05587 30.3311 9.05001C30.3287 9.04412 30.3276 9.03951 30.3273 9.03793C30.327 9.03665 30.3281 9.04159 30.3281 9.05469H31.3281ZM31.0254 8.33203L31.7325 7.62492C31.3435 7.23594 30.8562 7.0293 30.3027 7.0293V8.0293V9.0293C30.3158 9.0293 30.3208 9.0304 30.3195 9.03016C30.3179 9.02986 30.3133 9.02874 30.3074 9.02628C30.3016 9.02383 30.2985 9.02177 30.2991 9.02212C30.2999 9.02267 30.3064 9.02726 30.3183 9.03914L31.0254 8.33203ZM30.3027 8.0293V7.0293H21.2988V8.0293V9.0293H30.3027V8.0293ZM21.2988 8.0293H20.2988V12.082H21.2988H22.2988V8.0293H21.2988ZM21.2988 12.082V13.082H30.3027V12.082V11.082H21.2988V12.082ZM21.2988 18V17H16.6504V18V19H21.2988V18ZM16.6504 18H17.6504V8.15625H16.6504H15.6504V18H16.6504ZM16.6504 8.15625H17.6504C17.6504 7.87009 17.6399 7.55735 17.6052 7.24504L16.6113 7.35547L15.6174 7.4659C15.6413 7.68093 15.6504 7.91506 15.6504 8.15625H16.6504ZM16.6113 7.35547L17.6052 7.24504C17.5583 6.82278 17.4181 6.45085 17.2299 6.11491L16.3574 6.60352L15.4849 7.09212C15.5702 7.24446 15.6058 7.36081 15.6174 7.4659L16.6113 7.35547ZM16.3574 6.60352L17.2054 6.07352C16.9592 5.67948 16.607 5.35985 16.1844 5.1089L15.6738 5.96875L15.1633 6.8286C15.3656 6.94875 15.4627 7.0588 15.5094 7.13351L16.3574 6.60352ZM15.6738 5.96875V6.96875H33.6523V5.96875V4.96875H15.6738V5.96875ZM33.6523 5.96875V6.96875C34.0207 6.96875 34.3136 7.08716 34.5859 7.35945L35.293 6.65234L36.0001 5.94524C35.3544 5.29956 34.5535 4.96875 33.6523 4.96875V5.96875ZM35.293 6.65234L34.5859 7.35945C34.855 7.62854 34.9766 7.92984 34.9766 8.30273H35.9766H36.9766C36.9766 7.4061 36.649 6.59411 36.0001 5.94524L35.293 6.65234ZM35.9766 8.30273H34.9766V11.8086H35.9766H36.9766V8.30273H35.9766ZM35.9766 11.8086H34.9766C34.9766 12.177 34.8582 12.4698 34.5859 12.7421L35.293 13.4492L36.0001 14.1563C36.6458 13.5106 36.9766 12.7098 36.9766 11.8086H35.9766ZM35.293 13.4492L34.5859 12.7421C34.3057 13.0222 34.0099 13.1426 33.6523 13.1426V14.1426V15.1426C34.5643 15.1426 35.3622 14.7942 36.0001 14.1563L35.293 13.4492ZM33.6523 14.1426V13.1426H21.2988V14.1426V15.1426H33.6523V14.1426ZM21.2988 14.1426H20.2988V18H21.2988H22.2988V14.1426H21.2988ZM49.1992 18V19H50.1992V18H49.1992ZM44.5508 18H43.5508V19H44.5508V18ZM44.5508 8.0293H45.5508V7.0293H44.5508V8.0293ZM37.0508 8.0293H36.0508V9.0293H37.0508V8.0293ZM37.0508 5.96875V4.96875H36.0508V5.96875H37.0508ZM56.6895 5.96875H57.6895V4.96875H56.6895V5.96875ZM56.6895 8.0293V9.0293H57.6895V8.0293H56.6895ZM49.1992 8.0293V7.0293H48.1992V8.0293H49.1992ZM49.1992 18V17H44.5508V18V19H49.1992V18ZM44.5508 18H45.5508V8.0293H44.5508H43.5508V18H44.5508ZM44.5508 8.0293V7.0293H37.0508V8.0293V9.0293H44.5508V8.0293ZM37.0508 8.0293H38.0508V5.96875H37.0508H36.0508V8.0293H37.0508ZM37.0508 5.96875V6.96875H56.6895V5.96875V4.96875H37.0508V5.96875ZM56.6895 5.96875H55.6895V8.0293H56.6895H57.6895V5.96875H56.6895ZM56.6895 8.0293V7.0293H49.1992V8.0293V9.0293H56.6895V8.0293ZM49.1992 8.0293H48.1992V18H49.1992H50.1992V8.0293H49.1992ZM58.3984 18H57.3984V19H58.3984V18ZM58.3984 15.9395V14.9395H57.3984V15.9395H58.3984ZM72.7832 15.5977L73.5217 16.2719L73.5299 16.263L73.5378 16.2538L72.7832 15.5977ZM72.7832 13.3125L73.5073 12.6228L73.4905 12.6052L73.4729 12.5884L72.7832 13.3125ZM58.0957 6.58398L58.9595 6.08011L58.9469 6.05859L58.9333 6.03772L58.0957 6.58398ZM57.4219 5.96875V4.96875H53.8766L56.8993 6.82135L57.4219 5.96875ZM77.2363 5.96875H78.2363V4.96875H77.2363V5.96875ZM77.2363 8.0293V9.0293H78.2363V8.0293H77.2363ZM63.3496 8.32227L62.66 7.59813L62.6511 7.60654L62.6425 7.61516L63.3496 8.32227ZM75.4004 18V17H58.3984V18V19H75.4004V18ZM58.3984 18H59.3984V15.9395H58.3984H57.3984V18H58.3984ZM58.3984 15.9395V16.9395H72.0508V15.9395V14.9395H58.3984V15.9395ZM72.0508 15.9395V16.9395C72.6489 16.9395 73.1513 16.6776 73.5217 16.2719L72.7832 15.5977L72.0447 14.9234C72.0309 14.9386 72.0216 14.9461 72.0179 14.9489C72.0144 14.9516 72.0154 14.9503 72.0209 14.9478C72.0266 14.9451 72.0337 14.9426 72.0411 14.941C72.0484 14.9394 72.0521 14.9395 72.0508 14.9395V15.9395ZM72.7832 15.5977L73.5378 16.2538C73.8826 15.8574 74.0762 15.3734 74.0762 14.8359H73.0762H72.0762C72.0762 14.8649 72.0745 14.8887 72.0286 14.9415L72.7832 15.5977ZM73.0762 14.8359H74.0762V14.0449H73.0762H72.0762V14.8359H73.0762ZM73.0762 14.0449H74.0762C74.0762 13.5049 73.8797 13.0139 73.5073 12.6228L72.7832 13.3125L72.0591 14.0022C72.0681 14.0117 72.0723 14.0177 72.0738 14.0199C72.0751 14.022 72.075 14.0221 72.0745 14.0208C72.0739 14.0195 72.0741 14.0195 72.0746 14.0219C72.0751 14.0245 72.0762 14.0318 72.0762 14.0449H73.0762ZM72.7832 13.3125L73.4729 12.5884C73.0818 12.216 72.5908 12.0195 72.0508 12.0195V13.0195V14.0195C72.0639 14.0195 72.0712 14.0206 72.0738 14.0211C72.0762 14.0216 72.0762 14.0218 72.0749 14.0213C72.0736 14.0207 72.0737 14.0206 72.0758 14.0219C72.078 14.0234 72.084 14.0276 72.0935 14.0366L72.7832 13.3125ZM72.0508 13.0195V12.0195H60.7227V13.0195V14.0195H72.0508V13.0195ZM60.7227 13.0195V12.0195C60.3651 12.0195 60.0693 11.8992 59.7891 11.6191L59.082 12.3262L58.3749 13.0333C59.0128 13.6711 59.8107 14.0195 60.7227 14.0195V13.0195ZM59.082 12.3262L59.7891 11.6191C59.5168 11.3468 59.3984 11.0539 59.3984 10.6855H58.3984H57.3984C57.3984 11.5867 57.7292 12.3876 58.3749 13.0333L59.082 12.3262ZM58.3984 10.6855H59.3984V8.05859H58.3984H57.3984V10.6855H58.3984ZM58.3984 8.05859H59.3984C59.3984 7.76205 59.3747 7.47654 59.343 7.20178L58.3496 7.31641L57.3562 7.43103C57.3831 7.66408 57.3984 7.86685 57.3984 8.05859H58.3984ZM58.3496 7.31641L59.343 7.20178C59.2956 6.79074 59.155 6.41535 58.9595 6.08011L58.0957 6.58398L57.2319 7.08786C57.3098 7.22137 57.345 7.33426 57.3562 7.43103L58.3496 7.31641ZM58.0957 6.58398L58.9333 6.03772C58.684 5.65547 58.3345 5.3552 57.9444 5.11615L57.4219 5.96875L56.8993 6.82135C57.1148 6.95339 57.2144 7.06328 57.2581 7.13025L58.0957 6.58398ZM57.4219 5.96875V6.96875H77.2363V5.96875V4.96875H57.4219V5.96875ZM77.2363 5.96875H76.2363V8.0293H77.2363H78.2363V5.96875H77.2363ZM77.2363 8.0293V7.0293H64.0723V8.0293V9.0293H77.2363V8.0293ZM64.0723 8.0293V7.0293C63.5223 7.0293 63.0436 7.23274 62.66 7.59813L63.3496 8.32227L64.0393 9.0464C64.0517 9.03456 64.0593 9.02921 64.0618 9.02756C64.064 9.02606 64.0631 9.02694 64.0595 9.02839C64.058 9.02903 64.0564 9.02956 64.0551 9.02995C64.0537 9.03035 64.0531 9.03047 64.0533 9.03043C64.0535 9.03039 64.0592 9.0293 64.0723 9.0293V8.0293ZM63.3496 8.32227L62.6425 7.61516C62.2462 8.01143 62.0469 8.51149 62.0469 9.05469H63.0469H64.0469C64.0469 9.04153 64.048 9.03507 64.0482 9.0339C64.0484 9.03294 64.0481 9.03495 64.0466 9.03853C64.0451 9.04214 64.0438 9.04411 64.044 9.0438C64.0443 9.04333 64.0477 9.03838 64.0567 9.02937L63.3496 8.32227ZM63.0469 9.05469H62.0469V9.85547H63.0469H64.0469V9.05469H63.0469ZM63.0469 9.85547H62.0469C62.0469 10.396 62.2432 10.8885 62.6111 11.2915L63.3496 10.6172L64.0881 9.94292C64.0601 9.91223 64.0531 9.8951 64.0517 9.89154C64.0504 9.88848 64.0469 9.87939 64.0469 9.85547H63.0469ZM63.3496 10.6172L62.6111 11.2915C62.9733 11.6882 63.4634 11.959 64.0723 11.959V10.959V9.95898C64.071 9.95898 64.0764 9.95892 64.0864 9.96114C64.0965 9.96339 64.1062 9.96687 64.1141 9.97065C64.1217 9.97429 64.1236 9.97629 64.1197 9.9733C64.1155 9.97006 64.1047 9.96111 64.0881 9.94292L63.3496 10.6172ZM64.0723 10.959V11.959H75.4004V10.959V9.95898H64.0723V10.959ZM75.4004 10.959V11.959C75.7688 11.959 76.0616 12.0774 76.3339 12.3497L77.041 11.6426L77.7481 10.9355C77.1024 10.2898 76.3016 9.95898 75.4004 9.95898V10.959ZM77.041 11.6426L76.3339 12.3497C76.6046 12.6204 76.7246 12.9126 76.7246 13.293H77.7246H78.7246C78.7246 12.3843 78.3954 11.5828 77.7481 10.9355L77.041 11.6426ZM77.7246 13.293H76.7246V15.666H77.7246H78.7246V13.293H77.7246ZM77.7246 15.666H76.7246C76.7246 16.0464 76.6046 16.3386 76.3339 16.6093L77.041 17.3164L77.7481 18.0235C78.3954 17.3762 78.7246 16.5747 78.7246 15.666H77.7246ZM77.041 17.3164L76.3339 16.6093C76.0616 16.8816 75.7688 17 75.4004 17V18V19C76.3016 19 77.1024 18.6692 77.7481 18.0235L77.041 17.3164Z" fill="black" mask="url(#path-2-outside-1_1709_6)"/>
</svg>
