<svg width="64" height="55" viewBox="0 0 64 55" fill="none" xmlns="http://www.w3.org/2000/svg">
<g clip-path="url(#clip0_2923_70)">
<path d="M17.7862 8.66007C22.6884 -2.49799 43.222 3.62951 46.027 9.93361C48.832 16.2377 50.4894 26.7446 43.3495 35.7232C36.2414 44.6619 27.2127 46.8032 19.7625 35.7232C14.0249 27.1903 13.8974 17.5113 17.7862 8.66007Z" fill="white"/>
<path d="M40.1865 2.16758C40.1075 2.52545 39.9991 3.90472 40.0986 4.15688C40.1585 4.30843 42.3553 5.59346 42.799 5.96916C43.6991 6.73329 44.4781 7.6821 45.1895 8.62199C45.3884 8.64236 45.836 7.18668 45.7646 6.94216C45.8398 7.04659 45.8806 7.11664 45.9418 7.20706L43.0208 15.6075C42.0136 15.6177 41.0153 15.6839 40.0106 15.6953L39.9226 2.03385C38.1683 1.01628 36.1716 0.536147 34.1687 0.309453C30.7224 -0.0789829 26.9344 0.269973 23.9 2.03385C23.8426 2.68337 23.9918 3.39529 23.988 4.02316C23.9676 7.91134 24.0772 11.811 23.9 15.6953C22.8979 15.6826 21.897 15.6177 20.8898 15.6075C19.8468 13.4195 19.0156 11.1233 18.3232 8.79901C19.1979 7.91643 19.8991 6.87848 20.8464 6.05831C21.285 5.67879 23.5506 4.30334 23.6348 4.15688C23.8719 3.74807 23.6412 2.62351 23.7228 2.123C23.6131 1.9982 23.5596 2.1472 23.4576 2.16758C27.8014 -0.635529 35.2613 -0.650812 39.79 1.72565C39.9417 1.80461 40.1623 2.15357 40.1878 2.16758H40.1865Z" fill="white"/>
<path d="M18.3237 8.79905C18.1707 8.28708 18.0993 7.64011 17.792 7.2071C18.6488 5.96028 22.03 2.4529 23.4567 2.16762C23.5587 2.14724 23.6123 1.99824 23.7219 2.12305C23.6403 2.62356 23.8698 3.74811 23.6339 4.15692C23.5498 4.30338 21.2842 5.67883 20.8456 6.05835C19.8983 6.87852 19.1983 7.91647 18.3224 8.79905H18.3237Z" fill="#D7D5D2"/>
<path d="M45.7633 6.94206C45.8334 7.18658 45.3859 8.64226 45.1883 8.62189C44.4768 7.682 43.6978 6.73447 42.7977 5.96906C42.3553 5.59336 40.1572 4.30706 40.0973 4.15678C39.9978 3.90462 40.1075 2.52535 40.1852 2.16748C42.419 3.44741 44.2231 4.82668 45.762 6.94206H45.7633Z" fill="#D7D5D2"/>
<path d="M40.011 15.6952C34.637 15.7614 29.2744 15.7627 23.9004 15.6952C24.0776 11.8108 23.968 7.91116 23.9884 4.02298C28.702 1.61085 34.883 1.58793 39.6119 3.9351V1.99037L34.1678 0.310547C36.1708 0.535967 38.1674 1.01737 39.9217 2.03495L40.0097 15.6964L40.011 15.6952Z" fill="#40D422"/>
<path d="M34.1682 0.310929L39.6124 1.99076V3.93548C34.8835 1.58831 28.7024 1.61123 23.9888 4.02336C23.9926 3.39549 23.8435 2.6823 23.9008 2.03406C26.9353 0.271448 30.722 -0.0787808 34.1682 0.310929Z" fill="#40D422"/>
<path d="M42.4895 37.7129C42.9638 38.207 43.9506 39.6347 44.481 39.9238C44.7934 40.0945 45.9944 40.3785 46.4725 40.5427C43.1614 45.7669 37.934 49.0323 32.3088 51.3298V45.1403C33.2089 45.1199 34.6586 44.9149 35.5396 44.6984C38.5893 43.947 40.1346 41.4151 41.5587 38.8629C39.5761 40.865 36.2663 43.8451 33.4155 44.3456C29.2106 45.0817 24.3899 41.7068 21.9521 38.5101C29.1201 44.7773 35.7181 44.1253 42.4882 37.7142L42.4895 37.7129Z" fill="#2E2F31"/>
<path d="M60.7739 45.9365C61.6855 46.9617 62.3064 48.8771 62.7208 50.1813C62.5079 50.6372 61.3629 52.1693 61.3043 52.5246C61.2189 53.0493 61.5491 54.3216 61.3923 54.9558C60.3315 54.9724 59.2656 54.9507 58.2061 54.9558L58.5605 47.6609L53.6914 45.0526C54.065 44.8425 55.9022 43.6415 56.1253 43.6377C56.2962 43.6352 59.0106 44.7189 59.3115 44.8756C59.7641 45.1112 60.4373 45.5595 60.7726 45.9365H60.7739Z" fill="#2E2F31"/>
<path d="M63.0755 51.2407C63.3968 52.4519 63.5919 53.6898 63.8723 54.9099C63.8086 54.999 62.4367 54.9481 62.1907 54.9544C62.1562 53.5612 62.0275 52.3156 63.0755 51.2407Z" fill="#2E2F31"/>
<path d="M63.0754 51.2406C62.0274 52.3154 62.1561 53.561 62.1906 54.9543C61.9266 54.9606 61.6589 54.9504 61.3937 54.9543C61.5505 54.32 61.219 53.0477 61.3057 52.523C61.3644 52.1677 62.5093 50.6356 62.7222 50.1797C62.8344 50.5337 62.9798 50.8751 63.0767 51.2406H63.0754Z" fill="#6F7376"/>
<path d="M15.331 42.5598C17.3302 44.3236 19.7667 47.2452 21.5274 49.3236C22.5385 50.517 23.598 51.7358 24.4038 53.0819C19.8317 50.4749 15.3986 47.6196 10.8163 45.0356L5.94721 47.6438L6.30165 54.9388C8.92555 54.9528 11.5558 54.9388 14.1797 54.9388L15.1972 49.9872L23.6503 54.8509C26.5343 54.8458 29.4348 54.9541 32.3252 54.9388V51.3129C26.7 49.0142 21.4739 45.75 18.1615 40.5259C17.7089 40.6813 14.7879 41.4416 14.6655 41.5868L15.3298 42.5598H15.331Z" fill="#40D422"/>
<path d="M49.5886 42.529C47.5497 44.2894 45.0648 47.2053 43.2691 49.2798C42.238 50.4708 41.1574 51.6872 40.3356 53.0308C44.9985 50.4288 49.5131 47.4082 54.1864 44.8291L59.1588 47.6032L58.7974 54.884C56.1213 54.898 53.4388 54.884 50.7628 54.884L49.6603 49.9871L41.1041 54.7963C38.1628 54.7913 35.2046 54.8993 32.2568 54.884V51.2652C37.9938 48.9709 43.3237 45.7131 46.7019 40.499C47.1635 40.6541 50.1425 41.4129 50.2674 41.5579L49.5899 42.529H49.5886Z" fill="#40D422"/>
<path d="M22.1472 37.6973C21.673 38.1914 20.6861 39.6191 20.1557 39.9082C19.8434 40.0788 18.6423 40.3628 18.1642 40.5271C21.4753 45.7513 26.7027 49.0167 32.3279 51.3142V45.1247C31.4278 45.1043 29.9782 44.8993 29.0971 44.6827C26.0474 43.9313 24.5021 41.3995 23.078 38.8473C25.0606 40.8493 28.3704 43.8295 31.2213 44.33C35.4261 45.0661 40.2468 41.6912 42.6846 38.4945C35.5167 44.7617 28.9186 44.1096 22.1485 37.6985L22.1472 37.6973Z" fill="#2E2F31"/>
<path d="M23.4549 39.1465C23.2739 39.1363 23.9762 39.5655 24.0464 39.7553C24.2325 40.2634 27.5615 42.0948 27.8713 42.4934C31.6325 43.7033 32.316 43.7313 32.316 43.7313C32.316 45.8964 32.316 49.2853 32.316 51.309C26.7508 49.1465 21.3524 45.6824 18.1777 40.5003C18.6265 40.3488 19.8926 40.0367 20.1692 39.8814C20.692 39.5884 21.5068 38.0856 22.1162 37.7456C22.2692 37.8895 22.417 38.3047 22.6032 38.4677L23.4549 39.1465Z" fill="#2E2F31"/>
<path d="M41.2451 39.1465C41.4262 39.1363 40.7238 39.5655 40.6537 39.7553C40.4676 40.2634 37.1386 42.0948 36.8288 42.4934C33.0676 43.7033 32.2566 43.7466 32.2566 43.7466C32.2566 45.9117 32.3841 49.2853 32.3841 51.309C37.9493 49.1465 43.5528 45.6812 46.7275 40.4991C46.2787 40.3475 44.8075 40.0367 44.5308 39.8814C44.0081 39.5884 43.1933 38.0856 42.5839 37.7456C42.4309 37.8895 42.2831 38.3047 42.0969 38.4677L41.2451 39.1465Z" fill="#2E2F31"/>
<path d="M23.5869 39.1465C23.4058 39.1363 24.1082 39.5655 24.1783 39.7553C24.3645 40.2634 27.6934 42.0948 28.0032 42.4934C31.7644 43.7033 32.5755 43.7466 32.5755 43.7466C32.5755 45.9117 32.448 49.2853 32.448 51.309C26.8827 49.1465 21.2792 45.6812 18.1045 40.4991C18.5533 40.3475 20.0245 40.0367 20.3012 39.8814C20.8239 39.5884 21.6387 38.0856 22.2482 37.7456C22.4012 37.8895 22.549 38.3047 22.7351 38.4677L23.5869 39.1465Z" fill="#2E2F31"/>
<path d="M3.73489 45.9209C2.82328 46.9461 2.20236 48.8615 1.788 50.1656C2.00092 50.6216 3.14585 52.1537 3.2045 52.509C3.28992 53.0337 2.9597 54.306 3.11653 54.9402C4.17731 54.9568 5.24318 54.9351 6.30269 54.9402L5.94825 47.6453L10.8174 45.037C10.4438 44.8269 8.60657 43.6259 8.38345 43.6221C8.21261 43.6195 5.49818 44.7033 5.19728 44.86C4.74467 45.0956 4.07148 45.5439 3.73616 45.9209H3.73489Z" fill="#2E2F31"/>
<path d="M14.1805 54.9389C17.3285 54.9389 20.507 54.8561 23.6523 54.851L15.1992 49.9873L14.1818 54.9389H14.1805Z" fill="white"/>
<path d="M50.7435 54.8902C47.5232 54.8902 44.2715 54.8072 41.0537 54.8021L49.7014 49.9233L50.7422 54.8902H50.7435Z" fill="white"/>
<path d="M1.4333 51.2251C1.11201 52.4363 0.916935 53.6742 0.63644 54.8942C0.700189 54.9834 2.07206 54.9324 2.31813 54.9388C2.35256 53.5455 2.48133 52.3 1.4333 51.2251Z" fill="#2E2F31"/>
<path d="M1.43339 51.2249C2.48142 52.2998 2.35265 53.5454 2.31823 54.9386C2.58215 54.945 2.84989 54.9348 3.11509 54.9386C2.95826 54.3044 3.28976 53.0321 3.20306 52.5074C3.14441 52.1521 1.99948 50.62 1.78656 50.1641C1.67436 50.5181 1.52901 50.8594 1.43212 51.2249H1.43339Z" fill="#6F7376"/>
<path d="M60.9437 46.1663C60.6084 45.7894 59.8663 45.2557 59.4137 45.0201C59.1128 44.8635 56.3971 43.6804 56.2263 43.6829C56.0031 43.6854 54.2488 44.8265 53.8765 45.0367C49.2929 47.6207 44.8611 50.4761 40.2891 53.083C41.0948 51.7369 42.1556 50.5181 43.1654 49.3248C44.9262 47.2463 47.3626 44.3248 49.3618 42.5609C49.562 42.3851 49.6484 41.4542 50.3497 41.7089C51.3582 42.0005 52.3886 42.445 53.3894 42.7379C54.092 42.9442 54.8276 43.2155 55.5136 43.4447C55.8629 43.5619 56.2722 43.432 56.3104 43.4447C57.7907 43.9567 60.0193 44.9374 60.9437 46.1663Z" fill="white"/>
<path d="M3.82389 46.1663C4.15921 45.7894 4.90125 45.2557 5.35387 45.0201C5.65476 44.8635 8.37046 43.6804 8.54131 43.6829C8.76443 43.6854 10.5188 44.8265 10.8911 45.0367C15.4746 47.6207 19.9064 50.4761 24.4785 53.083C23.6727 51.7369 22.612 50.5181 21.6022 49.3248C19.8414 47.2463 17.4049 44.3248 15.4058 42.5609C15.2056 42.3851 15.1191 41.4542 14.4179 41.7089C13.4094 42.0005 12.379 42.445 11.3781 42.7379C10.6756 42.9442 9.93996 43.2155 9.25402 43.4447C8.90468 43.5619 8.49541 43.432 8.45716 43.4447C6.97691 43.9567 4.74825 44.9374 3.82389 46.1663Z" fill="white"/>
<path d="M53.6542 42.8256C53.8531 42.7848 55.1778 43.1287 55.0707 43.3567L46.5283 48.4407L53.6542 42.8256Z" fill="#40D422"/>
<path d="M18.3241 8.79879C19.0177 11.123 19.849 13.4193 20.8906 15.6072C19.849 15.5971 17.0326 15.322 16.2434 15.5194C16.0011 15.5792 15.5459 16.1065 15.4911 16.3599C15.282 17.3125 15.9323 22.254 16.1108 23.5224C16.3033 24.8941 16.5646 26.8095 16.9076 28.12C19.733 38.9274 38.915 39.6635 45.2338 31.6567C47.1386 29.242 47.9456 22.0922 48.1547 18.9236C48.2108 18.0716 48.5895 15.7919 47.4905 15.5194C46.7421 15.3334 44.0174 15.5971 43.0204 15.6072L45.9414 7.20684C50.1233 13.4002 49.2487 21.0976 47.7123 28.0296C46.7867 32.203 45.6328 34.7361 42.49 37.7112C35.7199 44.1223 29.1219 44.7743 21.954 38.5071C21.7678 38.3441 21.4873 38.12 21.3343 37.9761C14.4788 31.5293 12.435 15.0099 17.7937 7.20557C18.0997 7.63858 18.1724 8.28555 18.3254 8.79752L18.3241 8.79879Z" fill="#40D422"/>
<path d="M16.1287 43.2376C16.1287 43.2376 15.387 41.4816 14.8537 41.5181C14.7513 41.5251 14.6967 41.5512 14.5987 41.5818C14.4708 41.6219 14.3438 41.7092 14.3438 41.7092L16.1287 43.2376Z" fill="#40D422"/>
<path d="M48.3213 43.556C48.3213 43.556 49.5729 41.4816 50.1062 41.5181C50.2086 41.5251 50.2633 41.5511 50.3612 41.5818C50.4891 41.6218 50.6162 41.773 50.6162 41.773L48.3213 43.556Z" fill="#40D422"/>
</g>
<defs>
<clipPath id="clip0_2923_70">
<rect width="64" height="55" fill="white"/>
</clipPath>
</defs>
</svg>
