<svg width="215" height="69" viewBox="0 0 215 69" fill="none" xmlns="http://www.w3.org/2000/svg">
<path d="M152.983 61.9103C152.983 61.9103 150.273 61.569 148.277 60.8642C146.473 60.2263 145.459 59.4034 145.459 59.4034L145.469 48.7188L145.478 38.0342H152.976V49.934L152.983 61.9103Z" fill="#8D8D8D"/>
<path d="M162.521 63.3426C162.521 63.3426 160.822 63.1831 157.582 62.8067C154.313 62.4272 152.95 61.9169 152.95 61.9169L152.879 49.9374L152.815 38.0439H162.495V50.5561L162.518 63.3426H162.521Z" fill="#BCBCBF"/>
<path d="M195.054 63.3266C195.054 63.3266 188.759 63.8401 178.759 63.8975C170.202 63.9453 162.521 63.2787 162.521 63.2787L162.47 51.7649L162.419 40.251H195.278L195.17 51.7904L195.061 63.3297L195.054 63.3266Z" fill="#CACACA"/>
<path d="M195.055 63.3273C195.055 63.3273 198.852 63.0945 201.769 62.5332C205.832 61.7517 207.777 60.9321 207.777 60.9321L207.687 50.4037L207.77 38.6475H195.087V51.0161L195.055 63.3305V63.3273Z" fill="#F4F1F1"/>
<path d="M214.107 57.1232C214.107 57.1232 213.992 58.0035 211.631 59.426C209.846 60.5008 207.779 60.9282 207.779 60.9282L207.661 47.3317L207.616 34.6377H214.334V47.9919L214.107 57.1232Z" fill="#C4C4C4"/>
<path d="M177.825 41.3931C197.993 41.3931 214.343 38.4229 214.343 34.759C214.343 31.0952 197.993 28.125 177.825 28.125C157.656 28.125 141.306 31.0952 141.306 34.759C141.306 38.4229 157.656 41.3931 177.825 41.3931Z" fill="#5E5958"/>
<path d="M173.574 52.8684H181.481C182.172 52.8684 182.642 52.7822 182.895 52.6068C183.148 52.4314 183.273 52.2081 183.273 51.937V51.0057C183.273 50.7091 183.148 50.4858 182.902 50.3359C182.655 50.186 182.198 50.1127 181.532 50.1127H172.294V48.8369H180.637C183.068 48.8369 184.859 49.0123 186.017 49.3664C187.172 49.7204 187.751 50.3296 187.751 51.1971V51.4905C187.751 52.0678 187.505 52.5143 187.015 52.8237C186.526 53.1331 185.758 53.35 184.719 53.468C185.758 53.5956 186.526 53.8156 187.015 54.125C187.505 54.4344 187.751 54.8809 187.751 55.4582V56.045C187.751 56.9126 187.172 57.5218 186.017 57.8758C184.863 58.2298 183.068 58.4052 180.637 58.4052H172.294V57.1295H181.532C182.198 57.1295 182.655 57.0561 182.902 56.9062C183.148 56.7563 183.273 56.533 183.273 56.2364V55.0755C183.273 54.8044 183.148 54.5811 182.895 54.4057C182.642 54.2303 182.172 54.1441 181.481 54.1441H173.574V52.8684Z" fill="black"/>
<path d="M8.298 61.3804C8.298 61.3804 5.31021 60.851 3.10935 59.7602C1.11962 58.7747 0 57.4989 0 57.4989L0.00959637 40.9521L0.0191976 24.4053H8.28841V42.8338L8.2948 61.3836L8.298 61.3804Z" fill="#8D8D8D"/>
<path d="M18.8294 62.9849C18.8294 62.9849 16.9804 63.1476 13.4072 62.6213C9.834 62.0951 8.29851 61.3806 8.29851 61.3806L8.22174 44.6839L8.15137 28.1084H18.8294V62.9817V62.9849Z" fill="#BCBCBF"/>
<path d="M52.0205 63.0585C52.0205 63.0585 45.5971 63.8144 35.3957 63.8941C26.6658 63.9643 18.8285 62.9851 18.8285 62.9851L18.7741 46.0971L18.7197 29.209H52.2444L52.1325 46.1321L52.0205 63.0553V63.0585Z" fill="#CACACA"/>
<path d="M52.0208 63.0585C52.0208 63.0585 55.8787 62.8001 58.8793 62.3153C62.1102 61.7923 64.7045 60.9598 64.7045 60.9598L64.8581 44.8372L64.9412 28.2617H52.0528V45.6984L52.0176 63.0585H52.0208Z" fill="#F4F1F1"/>
<path d="M36.4676 31.355C56.6011 31.355 72.9225 28.2264 72.9225 24.367C72.9225 20.5076 56.6011 17.3789 36.4676 17.3789C16.3341 17.3789 0.0126953 20.5076 0.0126953 24.367C0.0126953 28.2264 16.3341 31.355 36.4676 31.355Z" fill="#5E5958"/>
<path d="M44.2987 53.9078H24.8877V51.672C24.8877 50.8459 25.2044 50.1442 25.841 49.5669C26.4744 48.9896 27.5236 48.5144 28.9887 48.1349L38.6463 45.6854C38.9725 45.6025 39.2445 45.494 39.4588 45.3569C39.6731 45.2197 39.7819 45.022 39.7819 44.7668C39.7819 44.4606 39.6763 44.2501 39.4684 44.1321C39.2573 44.0141 38.9597 43.9567 38.5695 43.9567H25.0572V42.4258H39.3084C41.2214 42.4258 42.5745 42.6554 43.3615 43.1147C44.1484 43.574 44.5451 44.2438 44.5451 45.1209C44.5451 45.9979 44.2316 46.6135 43.6014 47.0887C42.9712 47.564 42.0115 47.9626 40.7224 48.2912L31.3239 50.6641C30.7417 50.8076 30.3163 50.9607 30.0508 51.1234C29.7852 51.286 29.6509 51.4965 29.6509 51.7517V52.38H44.302V53.9109L44.2987 53.9078Z" fill="black"/>
<path d="M71.2084 64.9052C71.2084 64.9052 68.7389 64.2801 67.1458 63.4094C65.8374 62.695 64.6826 61.4096 64.6826 61.4096L64.7402 33.1321L64.7498 7.39648H71.2052V36.0568L71.2116 64.902L71.2084 64.9052Z" fill="#8D8D8D"/>
<path d="M78.6175 66.6589C78.6175 66.6589 76.7301 66.4037 74.5517 65.9476C72.546 65.5266 71.2088 64.9047 71.2088 64.9047L71.1544 37.4755L71.1064 11.2041H78.6143V66.6621L78.6175 66.6589Z" fill="#BEBEBF"/>
<path d="M89.5707 68.0022C89.5707 68.0022 86.794 67.983 83.5503 67.5301C80.5625 67.1123 78.6175 66.6594 78.6175 66.6594L78.4896 39.1378L78.416 12.9365H89.593V40.4965L89.5674 68.0022H89.5707Z" fill="#C4C4C4"/>
<path d="M123.335 68.1263C123.335 68.1263 118.975 68.9109 106.611 68.8758C94.2475 68.8408 89.5707 68.0051 89.5707 68.0051L89.5163 39.5968L89.4619 11.1885H123.566L123.45 39.6574L123.335 68.1263Z" fill="#CACACA"/>
<path d="M123.335 68.1264C123.335 68.1264 129.138 67.8075 133.338 67.0643C137.864 66.2638 141.358 65.2974 141.358 65.2974L141.278 38.1967L141.396 10.9717H123.386V39.6096L123.338 68.1232L123.335 68.1264Z" fill="#F4F1F1"/>
<path d="M147.988 61.3264C147.988 61.3264 147.106 62.7425 145.292 63.7791C143.68 64.6976 141.411 65.3132 141.411 65.3132L141.29 35.3421L141.245 7.60352H147.988V61.3232V61.3264Z" fill="#C4C4C4"/>
<path d="M106.409 15.0159C129.379 15.0159 147.999 11.6545 147.999 7.50794C147.999 3.36142 129.379 0 106.409 0C83.4404 0 64.8203 3.36142 64.8203 7.50794C64.8203 11.6545 83.4404 15.0159 106.409 15.0159Z" fill="#5E5958"/>
<path d="M96.2949 43.4203H104.529V33.5266C104.529 33.3225 104.465 33.1662 104.337 33.0578C104.209 32.9493 104.004 32.8951 103.723 32.8951H96.2949V30.9814H106.544C108.169 30.9814 109.295 31.1728 109.922 31.5555C110.549 31.9383 110.863 32.5889 110.863 33.5075V43.4203H117.868V45.3339H96.2949V43.4203Z" fill="black"/>
<path d="M97.4533 57.4942H95.458L97.7556 53.5938H103.284C103.815 53.5938 104.255 53.6107 104.596 53.6446C104.942 53.6784 105.197 53.7335 105.374 53.8097C105.547 53.886 105.642 53.9918 105.659 54.1274C105.676 54.2629 105.624 54.4281 105.508 54.6229L105.395 54.8092C105.305 54.9617 105.188 55.0972 105.046 55.2158C104.903 55.3343 104.726 55.4318 104.514 55.5122C104.303 55.5927 104.044 55.652 103.741 55.6901C103.439 55.7282 103.081 55.7494 102.675 55.7494H102.044C101.997 55.7494 101.953 55.7578 101.914 55.7748C101.876 55.7917 101.85 55.8171 101.828 55.851C101.811 55.8807 101.807 55.9061 101.819 55.9273C101.832 55.9442 101.854 55.9654 101.88 55.9865L103.854 57.4942H101.198L99.4053 55.9357C99.306 55.8468 99.2455 55.779 99.2196 55.724C99.1937 55.6689 99.198 55.6096 99.2412 55.5376C99.2844 55.4614 99.3578 55.4021 99.4571 55.364C99.5565 55.3259 99.6731 55.3047 99.8113 55.3047H101.997C102.437 55.3047 102.748 55.2708 102.938 55.2073C103.128 55.1395 103.279 55.0083 103.4 54.8007L103.512 54.6102C103.569 54.517 103.599 54.4365 103.607 54.373C103.616 54.3095 103.59 54.2586 103.53 54.2205C103.469 54.1824 103.374 54.1528 103.232 54.1358C103.089 54.1189 102.908 54.1104 102.67 54.1104H99.4355L97.4446 57.49L97.4533 57.4942Z" fill="black"/>
<path d="M108.479 53.5938L105.845 58.0659H104.333L106.967 53.5938H108.479Z" fill="black"/>
<path d="M110.232 55.9572L109.329 57.4903H107.334L109.632 53.5898H114.797C115.367 53.5898 115.825 53.6068 116.179 53.6407C116.533 53.6745 116.792 53.7296 116.965 53.8143C117.137 53.899 117.224 54.0049 117.228 54.1489C117.232 54.2886 117.176 54.4665 117.051 54.6782L116.909 54.9154C116.801 55.0975 116.667 55.2542 116.498 55.3855C116.33 55.5168 116.114 55.6269 115.85 55.7116C115.587 55.7963 115.255 55.8556 114.857 55.8979C114.46 55.9403 113.98 55.9615 113.415 55.9615H110.232V55.9572ZM110.521 55.466H113.756C114.015 55.466 114.222 55.4321 114.382 55.3601C114.542 55.2881 114.676 55.1568 114.792 54.962L114.995 54.6147C115.108 54.4284 115.125 54.2971 115.052 54.2251C114.978 54.1531 114.81 54.115 114.555 54.115H111.32L110.525 55.466H110.521Z" fill="black"/>
</svg>
