<svg width="393" height="182" viewBox="0 0 393 182" fill="none" xmlns="http://www.w3.org/2000/svg">
<g clip-path="url(#clip0_2923_150)">
<path d="M-7.08086 27.6224C-7.08086 27.6224 12.5291 26.6343 55.4352 33.3024C83.8345 37.7185 100.737 42.4677 110.064 45.187C115.329 46.7229 114.845 57.1713 111.735 62.1388C105.414 72.2387 84.1379 63.8126 55.178 64.0845C7.43365 64.5326 -13.0287 88.1755 -23.665 77.7003C-33.5027 68.0141 -27.597 28.8481 -7.07702 27.6186L-7.08086 27.6224Z" fill="#302D2D"/>
<path d="M409.605 86.5705C409.605 86.5705 388.928 99.6272 369.548 103.074C313.383 113.063 271.583 82.6639 271.583 82.6639C270.22 77.0912 281.893 78.2134 279.178 71.3461C275.288 61.5144 270.953 55.6199 264.452 52.6593C251.889 46.9334 243.214 44.9954 235.516 38.3119C234.156 37.1323 231.971 34.6044 233.096 31.5902C234.221 28.576 241.959 26.8639 245.879 26.4503C268.707 24.0565 282.907 25.4966 286.942 25.6345C313.652 26.5269 340.009 30.1846 346.701 31.0425C368.596 33.8423 383.617 37.5344 398.792 39.9933C405.024 41.0045 407.393 38.2889 410.945 38.8826" fill="#302D2D"/>
<path d="M-0.955995 70.699L13.7275 86.4405C13.7275 86.4405 10.6863 87.3138 6.21679 89.5084C0.180592 92.469 -2.44584 94.7862 -2.44584 94.7862C-2.44584 94.7862 -4.35423 64.8965 -0.959834 70.699H-0.955995Z" fill="#5E5958"/>
<path d="M-4.53522 66.8C-4.53522 66.8 0.514139 65.019 3.99302 64.0539C7.70612 63.0236 11.9261 62.4414 11.9261 62.4414L29.5624 80.615C29.5624 80.615 27.5196 81.2201 21.4604 83.3573C16.4878 85.1115 13.7231 86.4328 13.7231 86.4328L-4.53906 66.7962L-4.53522 66.8Z" fill="white"/>
<path d="M11.9268 62.4452C11.9268 62.4452 17.5751 61.1622 21.1423 60.5953C25.274 59.9404 28.7221 59.3237 28.7221 59.3237L44.7841 76.1261C44.7841 76.1261 39.1127 77.6965 36.4248 78.451C33.7369 79.2055 29.5707 80.615 29.5707 80.615L11.9344 62.4414L11.9268 62.4452Z" fill="#5E5958"/>
<path d="M28.7178 59.3237C28.7178 59.3237 35.4336 58.1172 37.9717 57.6959C41.6772 57.0831 45.0984 56.5967 45.0984 56.5967L60.3348 72.5565C60.3348 72.5565 55.5236 73.491 52.997 74.0732C50.0057 74.7626 44.7836 76.1223 44.7836 76.1223L28.7216 59.3198L28.7178 59.3237Z" fill="white"/>
<path d="M45.0986 56.6007C45.0986 56.6007 50.8967 55.8691 52.0563 55.7351C53.0124 55.624 56.3761 55.3291 56.3761 55.3291L72.1885 70.5727C72.1885 70.5727 68.3909 71.0514 66.5516 71.3693C64.8928 71.6566 60.3311 72.5605 60.3311 72.5605L45.0947 56.6007H45.0986Z" fill="#5E5958"/>
<path d="M56.376 55.3251C56.376 55.3251 62.7078 54.7468 65.2728 54.6127C69.0474 54.4136 71.1209 54.3638 71.1209 54.3638L89.3139 68.8222C89.3139 68.8222 82.1373 69.3546 80.4401 69.5269C78.4703 69.7261 72.1883 70.5725 72.1883 70.5725L56.376 55.3289V55.3251Z" fill="white"/>
<path d="M71.1211 54.3635C71.1211 54.3635 78.9236 53.8273 80.0871 53.7086C81.0547 53.6128 87.1907 53.272 87.1907 53.272L105.269 67.6193C105.269 67.6193 98.0689 68.167 96.2949 68.2628C94.6169 68.3547 89.318 68.8181 89.318 68.8181L71.1249 54.3597L71.1211 54.3635Z" fill="#5E5958"/>
<path d="M87.1904 53.272C87.1904 53.272 94.4438 52.9043 97.0127 52.9158C99.1399 52.9235 101.409 53.7163 101.409 53.7163L114.376 66.2788C114.376 66.2788 111.9 66.6235 110.894 66.7116C107.837 66.9836 105.268 67.6232 105.268 67.6232L87.1904 53.2758V53.272Z" fill="white"/>
<path d="M292.348 86.9307L311.021 97.3407C311.021 97.3407 306.479 97.5054 301.061 96.613C299.387 96.3373 284.419 92.6489 284.419 92.6489L292.344 86.9307H292.348Z" fill="#5E5958"/>
<path d="M292.349 86.9307C292.349 86.9307 301.222 85.5557 304.529 84.7667C307.835 83.9777 312.308 82.5645 312.308 82.5645L341.36 92.1357C341.36 92.1357 335.213 95.0389 327.744 96.2913C316.543 98.1681 311.029 97.3446 311.029 97.3446L292.356 86.9345L292.349 86.9307Z" fill="white"/>
<path d="M312.304 82.5604C312.304 82.5604 316.412 81.0705 318.609 79.8908C320.655 78.7916 322.495 77.3247 322.495 77.3247L354.569 82.6638C354.569 82.6638 352.668 85.8925 348.321 88.6348C344.75 90.8869 341.356 92.1317 341.356 92.1317L312.304 82.5604Z" fill="#5E5958"/>
<path d="M322.491 77.3249C322.491 77.3249 324.012 75.8312 324.572 73.8894C325.175 71.8097 324.738 70.9364 324.738 70.9364L354.696 70.9058C354.696 70.9058 356.251 72.7097 356.151 76.6125C356.063 80.0251 354.596 82.6142 354.596 82.6142L322.495 77.3249H322.491Z" fill="white"/>
<path d="M324.738 70.9361C324.738 70.9361 324.211 69.3198 321.316 67.0946C320.214 66.2481 316.678 64.1454 316.678 64.1454L337.685 60.5337C337.685 60.5337 342.097 61.6521 346.406 64.042C352.204 67.2631 354.696 70.9055 354.696 70.9055L324.738 70.9361Z" fill="#5E5958"/>
<path d="M316.678 64.1455C316.678 64.1455 314.447 63.0003 310.657 60.8899C306.506 58.5766 301.833 56.765 301.833 56.765L317.999 53.9346C317.999 53.9346 323.551 55.0759 327.687 56.4701C331.822 57.8642 337.685 60.5261 337.685 60.5261L316.678 64.1378V64.1455Z" fill="white"/>
<path d="M301.833 56.7649C301.833 56.7649 297.182 54.984 294.998 54.2371C293.251 53.6396 287.806 51.7974 287.806 51.7974L299.01 49.2695C299.01 49.2695 304.659 50.3534 307.005 50.9241C309.351 51.4948 318.002 53.9384 318.002 53.9384L301.836 56.7688L301.833 56.7649Z" fill="#5E5958"/>
<path d="M287.806 51.7977C287.806 51.7977 282.868 49.9784 281.282 49.5112C279.912 49.1052 274.521 47.148 274.521 47.148L282.331 45.6543C282.331 45.6543 285.71 46.3131 289.162 47.1135C293.574 48.1362 299.011 49.2775 299.011 49.2775L287.806 51.8054V51.7977Z" fill="white"/>
<path d="M274.52 47.1481C274.52 47.1481 270.408 46.1638 268.223 45.4169C266.476 44.8194 261.058 43.4598 261.058 43.4598L269.866 42.8853C269.866 42.8853 272.834 43.7508 275.177 44.3215C277.519 44.8922 282.326 45.6544 282.326 45.6544L274.516 47.1481H274.52Z" fill="#5E5958"/>
<path d="M261.062 43.4557C261.062 43.4557 257.157 42.3642 254.818 41.0313C253.586 40.3266 251.942 38.6299 251.942 38.6299L258.547 38.6414C258.547 38.6414 260.924 40.093 262.694 40.8283C264.741 41.6786 269.871 42.8774 269.871 42.8774L261.062 43.4519V43.4557Z" fill="white"/>
<path d="M251.942 38.6299C251.942 38.6299 250.898 36.9447 251.961 34.9033C253.359 32.2222 258.554 30.5562 258.554 30.5562L262.901 34.2177C262.901 34.2177 259.33 35.6999 258.712 36.4353C257.625 37.726 258.546 38.6414 258.546 38.6414L251.942 38.6299Z" fill="#5E5958"/>
<path d="M258.555 30.5561C258.555 30.5561 262.874 29.5373 264.514 29.3114C267.69 28.8786 269.433 28.9169 269.433 28.9169L270.358 32.3754C270.358 32.3754 268.116 32.7048 266.814 32.9882C265.343 33.3099 262.905 34.2215 262.905 34.2215L258.559 30.56L258.555 30.5561Z" fill="white"/>
<path d="M269.429 28.9171C269.429 28.9171 272.324 28.6834 274.632 28.5877C276.605 28.5072 279.155 28.5034 279.155 28.5034L278.333 31.5292C278.333 31.5292 277.039 31.6364 274.632 31.8164C272.451 31.9811 270.354 32.3718 270.354 32.3718L269.429 28.9132V28.9171Z" fill="#5E5958"/>
<path d="M279.155 28.5034C279.155 28.5034 282.641 28.5915 284.415 28.5609C286.811 28.5187 289.004 28.6605 289.004 28.6605L289.18 31.0925C289.18 31.0925 286.274 31.0964 284.365 31.1653C282.899 31.2189 278.333 31.533 278.333 31.533L279.155 28.5072V28.5034Z" fill="white"/>
<path d="M300.339 29.0278C300.339 29.0278 296.741 28.9052 294.917 28.8363C292.398 28.7405 289.008 28.6562 289.008 28.6562L289.184 31.0883C289.184 31.0883 291.131 31.073 294.587 31.2071C296.054 31.2645 300.247 31.3986 300.247 31.3986L300.343 29.0278H300.339Z" fill="#5E5958"/>
<path d="M300.247 31.4025C300.247 31.4025 306.003 31.5863 307.823 31.6821C309.793 31.7855 315.718 32.2872 315.718 32.2872L315.848 30.2151C315.848 30.2151 311.406 29.6291 308.507 29.5028C307.04 29.4376 300.343 29.0278 300.343 29.0278L300.247 31.3986V31.4025Z" fill="white"/>
<path d="M340.661 33.0342C340.661 33.0342 332.187 32.0614 329.311 31.6861C322.265 30.7669 315.848 30.2153 315.848 30.2153L315.718 32.2874C315.718 32.2874 324.868 33.1223 327.521 33.3483C330.981 33.6394 339.667 34.5778 339.667 34.5778L340.665 33.0381L340.661 33.0342Z" fill="#5E5958"/>
<path d="M365.263 36.6843C365.263 36.6843 356.627 35.2365 354.139 34.8344C349.516 34.0837 340.661 33.0381 340.661 33.0381L339.663 34.5778C339.663 34.5778 349.543 35.7727 352.181 36.1749C355.583 36.6919 364.303 38.0516 364.303 38.0516L365.263 36.6843Z" fill="white"/>
<path d="M389.795 40.9583C389.795 40.9583 385.168 40.1464 379.067 39.0586C372.032 37.8062 365.267 36.6802 365.267 36.6802L364.307 38.0475C364.307 38.0475 374.386 39.6523 377.005 40.1502C380.495 40.8166 389.073 42.4482 389.073 42.4482L389.795 40.9583Z" fill="#5E5958"/>
<path d="M401.718 43.0344C401.718 43.0344 400.293 42.9846 397.805 42.5786C393.182 41.8279 389.795 40.9585 389.795 40.9585L389.073 42.4484C389.073 42.4484 394.196 43.2833 396.83 43.6855C400.232 44.2025 401.199 44.4668 401.199 44.4668L401.722 43.0344H401.718Z" fill="white"/>
<path d="M173.011 47.8604H127.294V66.4131H173.011V47.8604Z" fill="#A72116"/>
<path d="M130.208 39.9054L123.351 39.1892L121.822 17.0017C121.822 16.0059 122.632 15.1978 123.631 15.1978L129.344 15.2744L130.208 39.9054Z" fill="#8D8D8D"/>
<path d="M157.943 40.5641L152.882 40.6522L152.164 27.3198H157.152L157.943 40.5641Z" fill="#5E5958"/>
<path d="M180.276 28.8327H128.677V21.2568L180.338 21.9616L180.276 28.8327Z" fill="#8D8D8D"/>
<path d="M179.492 40.0089L186.35 39.2927L187.878 17.1052C187.878 16.1094 187.068 15.3013 186.07 15.3013L180.356 15.3779L179.492 40.0089Z" fill="#8D8D8D"/>
<path d="M225.789 46.0029H219.88C218.635 46.0029 217.626 47.0095 217.626 48.2512V50.913C217.626 52.1547 218.635 53.1613 219.88 53.1613H225.789C227.034 53.1613 228.043 52.1547 228.043 50.913V48.2512C228.043 47.0095 227.034 46.0029 225.789 46.0029Z" fill="#A42B19"/>
<path d="M229.806 50.6675H217.626C214.324 50.6675 211.647 53.3374 211.647 56.6309V63.0232C211.647 66.3167 214.324 68.9866 217.626 68.9866H229.806C233.108 68.9866 235.785 66.3167 235.785 63.0232V56.6309C235.785 53.3374 233.108 50.6675 229.806 50.6675Z" fill="#A72116"/>
<path d="M186.607 33.6586C186.607 33.6586 194.329 33.4671 202.259 33.4288C208.149 33.402 210.011 38.9479 210.944 41.9468C214.02 51.836 212.127 69.5155 211.858 70.0938C210.441 73.1426 209.681 77.7501 202.239 77.9837C192.766 78.2787 186.918 78.4548 186.918 78.4548" fill="#5E5958"/>
<path d="M107.361 35.0409C107.361 35.0409 115.083 34.8494 123.012 34.8111C128.903 34.7843 130.965 40.0009 131.948 42.9845C136.191 55.8687 132.881 70.8978 132.612 71.4762C131.195 74.5249 130.435 79.1324 122.993 79.3661C113.52 79.661 107.672 79.8372 107.672 79.8372" fill="#5E5958"/>
<path d="M107.55 79.8487C112.567 79.8487 116.635 69.8172 116.635 57.4429C116.635 45.0685 112.567 35.0371 107.55 35.0371C102.532 35.0371 98.4648 45.0685 98.4648 57.4429C98.4648 69.8172 102.532 79.8487 107.55 79.8487Z" fill="#8D8D8D"/>
<path d="M107.377 69.5266C109.998 69.5266 112.123 64.3205 112.123 57.8985C112.123 51.4766 109.998 46.2705 107.377 46.2705C104.756 46.2705 102.631 51.4766 102.631 57.8985C102.631 64.3205 104.756 69.5266 107.377 69.5266Z" fill="#302D2D"/>
<path d="M145.695 66.7194C143.091 67.5505 140.799 68.5884 133.273 70.6911C128.369 72.0623 124.361 72.7402 122.759 73.2688C122.003 73.5177 121.803 74.6093 122.51 74.977C126.853 77.2214 149.849 83.8473 155.598 85.4866C156.738 85.8122 157.921 85.9769 159.107 85.9654C161.799 85.9424 166.053 85.3449 166.526 81.8442C167.29 76.1528 161.446 61.679 145.695 66.7194Z" fill="#A42B19"/>
<path d="M146.6 54.4171C146.6 54.4171 142.757 51.6978 140.115 49.7751C138.537 48.6261 138.706 46.4009 139.719 44.9454C141.086 42.9768 143.598 42.8849 145.971 41.8239C150.171 39.9434 151.005 38.5493 158.711 32.199C163.734 28.0626 166.518 25.079 171.544 23.455C172.231 23.2329 180.963 23.1218 184.48 23.1525C186.331 23.1678 186.657 28.7826 187.372 35.2975C187.629 37.6377 189.952 42.5019 193.915 42.8887C197.455 43.2334 200.88 42.5478 203.794 43.107C206.709 43.6662 207.803 49.1087 207.934 51.8817" fill="#DB3821"/>
<path d="M186.17 35.8188C186.17 42.1077 184.741 47.2055 182.975 47.2055C181.209 47.2055 179.78 42.1077 179.78 35.8188C179.78 29.5298 180.61 24.4895 182.975 24.4321C185.187 24.3784 186.17 29.5298 186.17 35.8188Z" fill="#302D2D"/>
<path d="M135.143 50.4492C135.143 50.4492 136.471 47.8179 140.572 48.0822C146.247 48.4499 152.679 49.9206 155.805 48.3235C159.188 46.5923 162.908 45.0297 166.226 42.8044C172.181 38.8135 173.602 36.7031 177.611 35.6077C178.698 35.309 181.885 34.1408 186.204 36.1861C191.534 38.7063 191.96 44.1181 196.345 44.3134C198.023 44.39 199.214 44.3939 200.769 44.4169C201.825 44.4322 203.073 45.7421 202.996 48.2775L202.965 50.6177C202.965 50.6177 182.038 65.7196 144.619 66.3209C138.495 66.4205 137.761 65.5281 135.143 65.3787" fill="#A72116"/>
<path d="M181.757 50.4189C179.576 47.4277 179.918 43.1457 181.316 40.4876C181.727 39.7063 184.046 36.5082 188.047 36.2401C191.411 36.0141 193.818 38.044 194.64 38.8445C196.164 40.3268 196.714 41.9354 197.251 43.5057C197.984 45.6429 197.977 48.9252 197.938 51.0432L181.757 50.4228V50.4189Z" fill="white"/>
<path d="M184.787 44.2713L197.543 44.2368V47.9635C196.115 49.3882 186.488 49.4457 184.81 46.2936L184.791 44.2713H184.787Z" fill="#302D2D"/>
<path d="M174.34 45.6885H182.361C183.49 45.6885 184.411 46.6039 184.411 47.7337V50.9012H172.293V47.7337C172.293 46.6077 173.211 45.6885 174.343 45.6885H174.34Z" fill="#302D2D"/>
<path d="M257.229 52.8048C257.229 52.8048 266.091 52.7588 274.097 52.7052C278.425 52.6784 281.508 57.6268 282.71 60.4495C286.511 69.4042 285.586 81.9744 283.324 89.24C282.345 92.3768 280.003 96.7354 274.397 96.6435C264.832 96.4865 257.133 96.3447 257.133 96.3447" fill="#5E5958"/>
<path d="M257.935 96.5322C263.863 96.5322 268.668 86.7254 268.668 74.6282C268.668 62.5309 263.863 52.7241 257.935 52.7241C252.008 52.7241 247.203 62.5309 247.203 74.6282C247.203 86.7254 252.008 96.5322 257.935 96.5322Z" fill="#8D8D8D"/>
<path d="M257.997 86.1838C260.805 86.1838 263.081 81.0875 263.081 74.8009C263.081 68.5143 260.805 63.418 257.997 63.418C255.189 63.418 252.913 68.5143 252.913 74.8009C252.913 81.0875 255.189 86.1838 257.997 86.1838Z" fill="#302D2D"/>
<path d="M235.53 63.1347L256.035 69.4504C258.024 70.3313 257.183 73.3188 255.025 73.0315L232.873 66.4975L235.534 63.1309L235.53 63.1347Z" fill="#5E5958"/>
<path d="M136.586 73.3607C136.586 73.3607 139.708 62.7247 141.946 56.7881C142.975 54.0573 144.83 52.441 148.182 50.7979C151.534 49.1548 162.597 49.7255 166.16 49.7944C186.031 50.1812 191.392 50.526 218.34 50.6983C221.784 50.7213 229.291 54.5398 236.863 64.5324C245.076 75.3753 249.849 80.3582 254.084 86.7237C254.864 87.8957 253.677 90.0865 252.76 90.0788C249.396 90.0482 237.45 90.0482 235.281 89.4163C227.889 87.2561 225.708 85.3181 218.704 82.2541C212.227 79.4237 207.242 79.5654 200.657 80.3161C184.991 82.097 185.432 52.1959 178.317 52.5559C174.289 52.7589 169.862 60.0819 162.631 71.304C161.963 72.3381 160.558 75.0383 157.682 76.4745C154.622 78.0065 151.031 77.8801 148.532 77.252C144.25 76.1796 136.594 73.3607 136.594 73.3607H136.586Z" fill="#E82321"/>
<path d="M178.075 52.7358C182.487 51.4182 188.397 51.0429 195.527 52.2876C199.202 52.9311 205.142 54.2027 211.697 58.1897C217.387 61.6521 218.881 63.1765 227.44 73.6516C236.602 84.866 242.676 89.8681 242.676 89.8681C242.676 89.8681 236.993 90.1477 232.405 88.5046C225.044 85.8695 221.546 83.4719 217.214 81.645C212.991 79.8601 203.84 79.0903 197.374 81.0092" fill="#A72116"/>
<path d="M172.643 52.6324C172.643 52.6324 181.647 52.5826 189.78 52.5328C194.177 52.506 197.31 57.5961 198.531 60.5031C202.394 69.7182 201.453 82.6523 199.153 90.1286C198.158 93.3573 195.778 97.8384 190.083 97.7465C180.365 97.5857 172.543 97.4401 172.543 97.4401" fill="#5E5958"/>
<path d="M172.716 97.4478C178.306 97.4478 182.837 87.4164 182.837 75.042C182.837 62.6676 178.306 52.6362 172.716 52.6362C167.125 52.6362 162.594 62.6676 162.594 75.042C162.594 87.4164 167.125 97.4478 172.716 97.4478Z" fill="#8D8D8D"/>
<path d="M172.662 86.5934C175.283 86.5934 177.408 81.3874 177.408 74.9654C177.408 68.5434 175.283 63.3374 172.662 63.3374C170.041 63.3374 167.916 68.5434 167.916 74.9654C167.916 81.3874 170.041 86.5934 172.662 86.5934Z" fill="#302D2D"/>
<path d="M295.374 96.5595C295.374 96.5595 260.04 97.2374 248.205 97.2374C221.434 97.2374 200.588 96.0845 200.588 96.0845L200.634 94.1695L248.202 94.2078L295.335 93.9282L295.37 96.5556L295.374 96.5595Z" fill="#DB3821"/>
<path d="M200.687 85.9194L200.63 94.4834L228.922 94.6098C229.275 94.7209 231.713 94.7362 231.713 94.7362C231.713 94.7362 228.388 91.6645 225.166 89.761C223.661 88.8724 219.18 86.1339 217.318 86.088C214.192 86.0114 200.687 85.9233 200.687 85.9233V85.9194Z" fill="#DB3821"/>
<path d="M295.439 85.4062L295.335 94.0009L267.205 94.0966C266.851 94.2077 264.413 94.223 264.413 94.223C264.413 94.223 267.738 91.1513 270.96 89.2478C272.465 88.3592 276.946 85.6207 278.809 85.5748C281.934 85.4982 295.439 85.4101 295.439 85.4101V85.4062Z" fill="#DB3821"/>
<path d="M199.298 70.1168L209.366 64.6552C211.389 63.8547 212.937 66.5472 211.224 67.8839L199.847 74.3682L199.302 70.1168H199.298Z" fill="#5E5958"/>
</g>
<defs>
<clipPath id="clip0_2923_150">
<rect width="394" height="182" fill="white"/>
</clipPath>
</defs>
</svg>
