<svg width="441" height="91" viewBox="0 0 441 91" fill="none" xmlns="http://www.w3.org/2000/svg">
<path d="M21.2836 12.4929C21.2836 12.4929 40.9433 11.4993 83.9583 18.204C112.43 22.6443 129.376 27.4197 138.726 30.154C144.004 31.6982 143.519 42.204 140.401 47.1989C134.064 57.3542 112.734 48.8818 83.7004 49.1552C35.8349 49.6058 15.3206 73.3786 4.6573 62.8459C-5.20529 53.1065 0.715343 13.7252 21.2874 12.489L21.2836 12.4929Z" fill="#302D2D"/>
<path d="M439.027 71.7653C439.027 71.7653 418.297 84.8937 398.868 88.3597C342.56 98.4033 300.654 67.8372 300.654 67.8372C299.287 62.2339 310.99 63.3622 308.269 56.4572C304.369 46.5715 300.023 40.6447 293.505 37.6678C280.91 31.9104 272.213 29.9617 264.495 23.2416C263.132 22.0554 260.942 19.5137 262.07 16.4829C263.198 13.4521 270.955 11.7307 274.885 11.3147C297.771 8.90781 312.006 10.3558 316.052 10.4945C342.83 11.3918 369.253 15.0696 375.963 15.9322C397.913 18.7473 412.973 22.4598 428.186 24.9322C434.434 25.9489 436.809 23.2185 440.37 23.8154" fill="#302D2D"/>
<path d="M27.4232 55.8062L42.1439 71.6342C42.1439 71.6342 39.095 72.5122 34.6142 74.7189C28.5626 77.6958 25.9295 80.0257 25.9295 80.0257C25.9295 80.0257 24.0163 49.9718 27.4193 55.8062H27.4232Z" fill="#5E5958"/>
<path d="M23.8359 51.8855C23.8359 51.8855 28.8981 50.0947 32.3858 49.1242C36.1083 48.0883 40.339 47.5029 40.339 47.5029L58.02 65.7764C58.02 65.7764 55.972 66.3848 49.8974 68.5337C44.9122 70.2975 42.1406 71.6262 42.1406 71.6262L23.832 51.8816L23.8359 51.8855Z" fill="white"/>
<path d="M40.3389 47.5068C40.3389 47.5068 46.0016 46.2167 49.5778 45.6467C53.72 44.9882 57.1769 44.3682 57.1769 44.3682L73.2796 61.2629C73.2796 61.2629 67.5938 62.8419 64.8991 63.6005C62.2044 64.3592 58.0276 65.7764 58.0276 65.7764L40.3466 47.503L40.3389 47.5068Z" fill="#5E5958"/>
<path d="M57.1729 44.3684C57.1729 44.3684 63.9057 43.1553 66.4503 42.7317C70.1651 42.1156 73.5951 41.6265 73.5951 41.6265L88.8702 57.674C88.8702 57.674 84.0467 58.6136 81.5137 59.199C78.5148 59.8922 73.2794 61.2593 73.2794 61.2593L57.1767 44.3646L57.1729 44.3684Z" fill="white"/>
<path d="M73.5947 41.6301C73.5947 41.6301 79.4075 40.8946 80.5701 40.7598C81.5286 40.6481 84.9008 40.3516 84.9008 40.3516L100.753 55.6789C100.753 55.6789 96.9461 56.1603 95.1022 56.4799C93.4392 56.7688 88.8659 57.6776 88.8659 57.6776L73.5908 41.6301H73.5947Z" fill="#5E5958"/>
<path d="M84.9014 40.348C84.9014 40.348 91.2493 39.7665 93.8208 39.6317C97.6049 39.4314 99.6837 39.3813 99.6837 39.3813L117.923 53.9192C117.923 53.9192 110.728 54.4545 109.027 54.6278C107.052 54.8281 100.754 55.6792 100.754 55.6792L84.9014 40.3518V40.348Z" fill="white"/>
<path d="M99.6836 39.3813C99.6836 39.3813 107.506 38.8421 108.672 38.7227C109.642 38.6264 115.794 38.2837 115.794 38.2837L133.918 52.7099C133.918 52.7099 126.7 53.2606 124.921 53.3569C123.239 53.4493 117.927 53.9153 117.927 53.9153L99.6874 39.3774L99.6836 39.3813Z" fill="#5E5958"/>
<path d="M115.794 38.2837C115.794 38.2837 123.066 37.914 125.641 37.9256C127.774 37.9333 130.049 38.7304 130.049 38.7304L143.049 51.362C143.049 51.362 140.566 51.7086 139.557 51.7972C136.493 52.0706 133.918 52.7137 133.918 52.7137L115.794 38.2876V38.2837Z" fill="white"/>
<path d="M321.472 72.127L340.192 82.5942C340.192 82.5942 335.638 82.7598 330.206 81.8625C328.528 81.5852 313.522 77.8766 313.522 77.8766L321.468 72.127H321.472Z" fill="#5E5958"/>
<path d="M321.473 72.1271C321.473 72.1271 330.369 70.7445 333.683 69.9512C336.998 69.1579 341.483 67.7368 341.483 67.7368L370.609 77.3607C370.609 77.3607 364.445 80.2798 356.958 81.5391C345.729 83.4262 340.201 82.5982 340.201 82.5982L321.48 72.1309L321.473 72.1271Z" fill="white"/>
<path d="M341.479 67.7327C341.479 67.7327 345.598 66.2346 347.799 65.0485C349.851 63.9432 351.695 62.4683 351.695 62.4683L383.851 67.8367C383.851 67.8367 381.945 71.0832 377.587 73.8405C374.007 76.105 370.604 77.3566 370.604 77.3566L341.479 67.7327Z" fill="#5E5958"/>
<path d="M351.691 62.4686C351.691 62.4686 353.216 60.9667 353.778 59.0142C354.382 56.923 353.943 56.045 353.943 56.045L383.978 56.0142C383.978 56.0142 385.537 57.828 385.437 61.7523C385.348 65.1836 383.878 67.7869 383.878 67.7869L351.695 62.4686H351.691Z" fill="white"/>
<path d="M353.944 56.045C353.944 56.045 353.416 54.4198 350.514 52.1824C349.409 51.3313 345.863 49.217 345.863 49.217L366.924 45.5854C366.924 45.5854 371.347 46.71 375.667 49.1131C381.479 52.3518 383.978 56.0142 383.978 56.0142L353.944 56.045Z" fill="#5E5958"/>
<path d="M345.863 49.2167C345.863 49.2167 343.626 48.0652 339.827 45.9433C335.665 43.6172 330.98 41.7957 330.98 41.7957L347.187 38.9497C347.187 38.9497 352.754 40.0973 356.9 41.4991C361.046 42.9009 366.924 45.5774 366.924 45.5774L345.863 49.209V49.2167Z" fill="white"/>
<path d="M330.98 41.7959C330.98 41.7959 326.319 40.0051 324.128 39.2541C322.377 38.6534 316.918 36.801 316.918 36.801L328.151 34.2593C328.151 34.2593 333.814 35.3491 336.166 35.923C338.518 36.4968 347.191 38.9538 347.191 38.9538L330.984 41.7997L330.98 41.7959Z" fill="#5E5958"/>
<path d="M316.918 36.8007C316.918 36.8007 311.968 34.9714 310.378 34.5016C309.003 34.0934 303.599 32.1255 303.599 32.1255L311.429 30.6235C311.429 30.6235 314.816 31.2859 318.277 32.0908C322.7 33.119 328.151 34.2667 328.151 34.2667L316.918 36.8084V36.8007Z" fill="white"/>
<path d="M303.599 32.1256C303.599 32.1256 299.476 31.1359 297.286 30.3849C295.534 29.7842 290.103 28.417 290.103 28.417L298.933 27.8394C298.933 27.8394 301.909 28.7097 304.257 29.2835C306.606 29.8573 311.425 30.6237 311.425 30.6237L303.595 32.1256H303.599Z" fill="#5E5958"/>
<path d="M290.106 28.4129C290.106 28.4129 286.191 27.3154 283.846 25.9752C282.611 25.2666 280.963 23.5605 280.963 23.5605L287.584 23.5721C287.584 23.5721 289.967 25.0317 291.742 25.7711C293.793 26.626 298.937 27.8314 298.937 27.8314L290.106 28.4091V28.4129Z" fill="white"/>
<path d="M280.964 23.561C280.964 23.561 279.917 21.8665 280.983 19.8139C282.384 17.1181 287.593 15.4429 287.593 15.4429L291.95 19.1245C291.95 19.1245 288.37 20.6149 287.75 21.3543C286.661 22.6521 287.585 23.5725 287.585 23.5725L280.964 23.561Z" fill="#5E5958"/>
<path d="M287.593 15.4431C287.593 15.4431 291.924 14.4187 293.567 14.1915C296.751 13.7563 298.499 13.7948 298.499 13.7948L299.426 17.2724C299.426 17.2724 297.178 17.6035 295.873 17.8885C294.399 18.212 291.954 19.1286 291.954 19.1286L287.597 15.4469L287.593 15.4431Z" fill="white"/>
<path d="M298.494 13.7948C298.494 13.7948 301.397 13.5599 303.71 13.4636C305.689 13.3828 308.245 13.3789 308.245 13.3789L307.421 16.4213C307.421 16.4213 306.124 16.5291 303.71 16.7101C301.524 16.8757 299.422 17.2685 299.422 17.2685L298.494 13.791V13.7948Z" fill="#5E5958"/>
<path d="M308.245 13.3789C308.245 13.3789 311.74 13.4675 313.519 13.4367C315.921 13.3943 318.119 13.5368 318.119 13.5368L318.296 15.9822C318.296 15.9822 315.382 15.9861 313.469 16.0554C311.998 16.1093 307.421 16.4251 307.421 16.4251L308.245 13.3828V13.3789Z" fill="white"/>
<path d="M329.483 13.9063C329.483 13.9063 325.876 13.783 324.048 13.7137C321.522 13.6174 318.123 13.5327 318.123 13.5327L318.3 15.9782C318.3 15.9782 320.252 15.9628 323.716 16.0975C325.187 16.1553 329.391 16.2901 329.391 16.2901L329.487 13.9063H329.483Z" fill="#5E5958"/>
<path d="M329.391 16.2939C329.391 16.2939 335.161 16.4788 336.986 16.5751C338.961 16.679 344.901 17.1835 344.901 17.1835L345.031 15.1001C345.031 15.1001 340.577 14.5109 337.671 14.3838C336.201 14.3183 329.487 13.9062 329.487 13.9062L329.391 16.2901V16.2939Z" fill="white"/>
<path d="M369.907 17.9345C369.907 17.9345 361.411 16.9563 358.528 16.5789C351.464 15.6547 345.031 15.1001 345.031 15.1001L344.9 17.1835C344.9 17.1835 354.074 18.0231 356.734 18.2503C360.202 18.543 368.91 19.4865 368.91 19.4865L369.911 17.9384L369.907 17.9345Z" fill="#5E5958"/>
<path d="M394.571 21.6047C394.571 21.6047 385.914 20.149 383.419 19.7446C378.784 18.9898 369.907 17.9385 369.907 17.9385L368.906 19.4866C368.906 19.4866 378.811 20.6882 381.456 21.0925C384.867 21.6124 393.609 22.9796 393.609 22.9796L394.571 21.6047Z" fill="white"/>
<path d="M419.167 25.9023C419.167 25.9023 414.528 25.0858 408.411 23.9921C401.359 22.7328 394.576 21.6006 394.576 21.6006L393.613 22.9754C393.613 22.9754 403.718 24.589 406.344 25.0897C409.843 25.7598 418.443 27.4003 418.443 27.4003L419.167 25.9023Z" fill="#5E5958"/>
<path d="M431.119 27.9896C431.119 27.9896 429.691 27.9396 427.196 27.5314C422.561 26.7765 419.166 25.9023 419.166 25.9023L418.442 27.4004C418.442 27.4004 423.578 28.24 426.218 28.6443C429.629 29.1642 430.599 29.4299 430.599 29.4299L431.123 27.9896H431.119Z" fill="white"/>
<path d="M201.832 32.8418H155.999V51.4965H201.832V32.8418Z" fill="#A72116"/>
<path d="M158.92 24.8434L152.045 24.1232L150.513 1.81386C150.513 0.81258 151.325 0 152.326 0L158.054 0.0770221L158.92 24.8434Z" fill="#8D8D8D"/>
<path d="M186.725 25.5056L181.652 25.5941L180.932 12.1885H185.932L186.725 25.5056Z" fill="#5E5958"/>
<path d="M209.114 13.7097H157.384V6.09229L209.176 6.80089L209.114 13.7097Z" fill="#8D8D8D"/>
<path d="M208.329 24.9474L215.204 24.2272L216.737 1.91787C216.737 0.916584 215.924 0.104004 214.923 0.104004L209.195 0.181026L208.329 24.9474Z" fill="#8D8D8D"/>
<path d="M254.744 30.9741H248.819C247.571 30.9741 246.56 31.9862 246.56 33.2347V35.9112C246.56 37.1597 247.571 38.1718 248.819 38.1718H254.744C255.992 38.1718 257.003 37.1597 257.003 35.9112V33.2347C257.003 31.9862 255.992 30.9741 254.744 30.9741Z" fill="#A42B19"/>
<path d="M258.771 35.665H246.56C243.25 35.665 240.566 38.3496 240.566 41.6612V48.0887C240.566 51.4002 243.25 54.0848 246.56 54.0848H258.771C262.081 54.0848 264.765 51.4002 264.765 48.0887V41.6612C264.765 38.3496 262.081 35.665 258.771 35.665Z" fill="#A72116"/>
<path d="M215.463 18.5622C215.463 18.5622 223.204 18.3697 231.154 18.3312C237.059 18.3042 238.926 23.8806 239.861 26.896C242.945 36.8395 241.047 54.6161 240.778 55.1976C239.357 58.2631 238.595 62.896 231.134 63.1309C221.638 63.4274 215.775 63.6046 215.775 63.6046" fill="#5E5958"/>
<path d="M136.017 19.9524C136.017 19.9524 143.758 19.7598 151.707 19.7213C157.613 19.6943 159.68 24.9395 160.665 27.9395C164.919 40.8946 161.601 56.0063 161.331 56.5878C159.911 59.6533 159.149 64.2861 151.688 64.521C142.191 64.8176 136.328 64.9947 136.328 64.9947" fill="#5E5958"/>
<path d="M136.205 65.0065C141.235 65.0065 145.313 54.92 145.313 42.4776C145.313 30.0353 141.235 19.9487 136.205 19.9487C131.175 19.9487 127.097 30.0353 127.097 42.4776C127.097 54.92 131.175 65.0065 136.205 65.0065Z" fill="#8D8D8D"/>
<path d="M136.032 54.6275C138.659 54.6275 140.79 49.3928 140.79 42.9356C140.79 36.4783 138.659 31.2437 136.032 31.2437C133.404 31.2437 131.273 36.4783 131.273 42.9356C131.273 49.3928 133.404 54.6275 136.032 54.6275Z" fill="#302D2D"/>
<path d="M174.446 51.8047C171.836 52.6404 169.538 53.6841 161.993 55.7983C157.077 57.177 153.058 57.8586 151.453 58.3901C150.694 58.6404 150.494 59.738 151.202 60.1077C155.556 62.3644 178.611 69.0268 184.374 70.6751C185.517 71.0024 186.703 71.168 187.893 71.1565C190.591 71.1334 194.856 70.5326 195.33 67.0127C196.096 61.29 190.237 46.7367 174.446 51.8047Z" fill="#A42B19"/>
<path d="M175.354 39.4351C175.354 39.4351 171.501 36.7009 168.852 34.7676C167.27 33.6123 167.439 31.3748 168.456 29.9114C169.826 27.9319 172.344 27.8395 174.723 26.7728C178.934 24.8819 179.77 23.4801 187.496 17.095C192.531 12.9358 195.322 9.93579 200.361 8.30292C201.05 8.07956 209.804 7.96788 213.33 7.99869C215.186 8.01409 215.513 13.6598 216.229 20.2105C216.487 22.5635 218.816 27.4544 222.789 27.8434C226.338 28.19 229.772 27.5006 232.693 28.0629C235.615 28.6251 236.712 34.0975 236.843 36.8857" fill="#DB3821"/>
<path d="M215.024 20.7339C215.024 27.0574 213.592 32.1832 211.821 32.1832C210.05 32.1832 208.618 27.0574 208.618 20.7339C208.618 14.4104 209.45 9.34236 211.821 9.2846C214.038 9.23068 215.024 14.4104 215.024 20.7339Z" fill="#302D2D"/>
<path d="M163.867 35.4452C163.867 35.4452 165.199 32.7995 169.31 33.0652C175 33.4349 181.448 34.9137 184.582 33.3078C187.973 31.5671 191.703 29.9959 195.029 27.7584C201 23.7456 202.424 21.6236 206.443 20.5222C207.533 20.2218 210.728 19.0472 215.059 21.1037C220.402 23.6377 220.829 29.0793 225.225 29.2757C226.908 29.3527 228.101 29.3566 229.66 29.3797C230.719 29.3951 231.97 30.7122 231.893 33.2616L231.862 35.6146C231.862 35.6146 210.882 50.7995 173.368 51.4041C167.228 51.5042 166.493 50.6069 163.867 50.4567" fill="#A72116"/>
<path d="M210.601 35.4144C208.415 32.4067 208.757 28.1012 210.159 25.4285C210.57 24.6429 212.896 21.4273 216.907 21.1577C220.279 20.9305 222.693 22.9715 223.517 23.7764C225.045 25.2668 225.595 26.8842 226.134 28.4632C226.869 30.6121 226.862 33.9125 226.823 36.0421L210.601 35.4183V35.4144Z" fill="white"/>
<path d="M213.639 29.2334L226.427 29.1987V32.9458C224.995 34.3784 215.344 34.4362 213.662 31.2668L213.643 29.2334H213.639Z" fill="#302D2D"/>
<path d="M203.164 30.6582H211.206C212.338 30.6582 213.262 31.5786 213.262 32.7147V35.8995H201.112V32.7147C201.112 31.5825 202.032 30.6582 203.168 30.6582H203.164Z" fill="#302D2D"/>
<path d="M286.263 37.8136C286.263 37.8136 295.148 37.7674 303.174 37.7135C307.513 37.6865 310.604 42.6621 311.809 45.5004C315.62 54.5042 314.692 67.1435 312.425 74.449C311.443 77.6031 309.095 81.9856 303.475 81.8932C293.885 81.7353 286.167 81.5928 286.167 81.5928" fill="#5E5958"/>
<path d="M286.971 81.7812C292.914 81.7812 297.731 71.9205 297.731 59.7568C297.731 47.5931 292.914 37.7324 286.971 37.7324C281.029 37.7324 276.212 47.5931 276.212 59.7568C276.212 71.9205 281.029 81.7812 286.971 81.7812Z" fill="#8D8D8D"/>
<path d="M287.033 71.3758C289.848 71.3758 292.13 66.2515 292.13 59.9303C292.13 53.6092 289.848 48.4849 287.033 48.4849C284.218 48.4849 281.937 53.6092 281.937 59.9303C281.937 66.2515 284.218 71.3758 287.033 71.3758Z" fill="#302D2D"/>
<path d="M264.51 48.2001L285.066 54.5506C287.06 55.4363 286.217 58.4402 284.054 58.1514L261.846 51.5814L264.513 48.1963L264.51 48.2001Z" fill="#5E5958"/>
<path d="M165.314 58.4827C165.314 58.4827 168.444 47.7882 170.688 41.819C171.72 39.0732 173.579 37.4481 176.94 35.7959C180.301 34.1438 191.391 34.7176 194.964 34.7869C214.885 35.1759 220.259 35.5225 247.276 35.6958C250.729 35.7189 258.254 39.5585 265.846 49.6059C274.08 60.5084 278.865 65.5186 283.111 71.9192C283.893 73.0976 282.703 75.3004 281.783 75.2927C278.411 75.2619 266.435 75.2619 264.26 74.6265C256.849 72.4545 254.663 70.5058 247.641 67.4249C241.147 64.579 236.15 64.7215 229.548 65.4763C213.842 67.267 214.285 37.2016 207.152 37.5636C203.113 37.7677 198.675 45.131 191.426 56.4147C190.756 57.4545 189.347 60.1695 186.464 61.6136C183.396 63.1541 179.797 63.027 177.29 62.3954C172.998 61.3171 165.322 58.4827 165.322 58.4827H165.314Z" fill="#E82321"/>
<path d="M206.909 37.7444C211.332 36.4196 217.257 36.0422 224.405 37.2938C228.089 37.9408 234.045 39.2193 240.616 43.2283C246.321 46.7097 247.819 48.2424 256.399 58.7752C265.584 70.0512 271.674 75.0807 271.674 75.0807C271.674 75.0807 265.977 75.3618 261.377 73.7097C253.997 71.0601 250.49 68.6494 246.148 66.8124C241.913 65.0178 232.74 64.2437 226.257 66.1731" fill="#A72116"/>
<path d="M201.462 37.6403C201.462 37.6403 210.49 37.5902 218.643 37.5401C223.051 37.5132 226.192 42.6313 227.416 45.5543C231.289 54.82 230.346 67.8251 228.04 75.3425C227.043 78.5889 224.656 83.0947 218.947 83.0023C209.204 82.8405 201.362 82.6942 201.362 82.6942" fill="#5E5958"/>
<path d="M201.535 82.7018C207.139 82.7018 211.683 72.6153 211.683 60.1729C211.683 47.7306 207.139 37.644 201.535 37.644C195.931 37.644 191.388 47.7306 191.388 60.1729C191.388 72.6153 195.931 82.7018 201.535 82.7018Z" fill="#8D8D8D"/>
<path d="M201.482 71.7881C204.11 71.7881 206.24 66.5535 206.24 60.0962C206.24 53.6389 204.11 48.4043 201.482 48.4043C198.854 48.4043 196.724 53.6389 196.724 60.0962C196.724 66.5535 198.854 71.7881 201.482 71.7881Z" fill="#302D2D"/>
<path d="M324.506 81.8088C324.506 81.8088 289.082 82.4904 277.218 82.4904C250.379 82.4904 229.479 81.3312 229.479 81.3312L229.526 79.4057L277.214 79.4442L324.468 79.1631L324.502 81.8049L324.506 81.8088Z" fill="#DB3821"/>
<path d="M229.579 71.1104L229.521 79.7214L257.885 79.8485C258.239 79.9602 260.684 79.9756 260.684 79.9756C260.684 79.9756 257.35 76.887 254.12 74.973C252.611 74.0795 248.119 71.326 246.252 71.2798C243.118 71.2028 229.579 71.1142 229.579 71.1142V71.1104Z" fill="#DB3821"/>
<path d="M324.571 70.5942L324.467 79.2361L296.265 79.3324C295.911 79.444 293.467 79.4594 293.467 79.4594C293.467 79.4594 296.801 76.3709 300.03 74.4569C301.539 73.5634 306.032 70.8099 307.899 70.7637C311.032 70.6867 324.571 70.5981 324.571 70.5981V70.5942Z" fill="#DB3821"/>
<path d="M228.186 55.2209L238.279 49.7292C240.308 48.9244 241.859 51.6317 240.142 52.9757L228.736 59.4956L228.189 55.2209H228.186Z" fill="#5E5958"/>
</svg>
