<svg width="393" height="782" viewBox="0 0 393 782" fill="none" xmlns="http://www.w3.org/2000/svg">
<g clip-path="url(#clip0_2374_302)">
<path d="M393 0H0V782H393V0Z" fill="#A72116" stroke="#A72116" stroke-miterlimit="10"/>
<path d="M88.5009 610.2C81.5009 607.3 70.7009 624.9 69.3009 626.9C64.6009 633.5 54.9009 643.8 50.9009 657.5C45.3009 682.8 60.3009 701.3 87.2009 725.7C108.301 744.8 170.601 796.4 170.601 796.4C170.601 796.4 220.501 776.5 221.801 766.6C224.701 743.9 101.001 732.8 86.2009 669.5C79.9009 642.5 96.6009 613.6 88.5009 610.2Z" fill="#782521" stroke="#782521" stroke-miterlimit="10"/>
<path d="M141.5 384.5C143.7 384.7 146.7 384.6 154.7 387C168.2 390.9 209.4 426.4 240.3 446C250.2 452.3 261.9 451.7 265.7 451.9C276.7 452.4 288.9 451.3 294.5 449.6C299 448.3 319.5 444.8 318.9 439C318 429.7 261.2 446.3 218.2 415.6C190.3 395.7 182.8 366.3 163.4 368.1C153.5 369 146.2 377.5 141.4 384.6L141.5 384.5Z" fill="#782521" stroke="#782521" stroke-miterlimit="10"/>
<path d="M267.001 275.3C262.101 280.7 250.701 287.3 245.001 298.3C243.301 301.7 239.001 313.1 244.101 324.8C248.301 334.4 260.901 345.3 288.601 368.9C292.001 371.8 301.801 379.7 304.101 387.4C308.001 400 304.201 401 306.501 403.1C309.701 406.2 326.601 399.3 327.501 378.4C327.901 369.4 321.501 362.6 310.101 350.5C292.501 331.8 286.301 335 279.501 323.4C268.201 304.1 276.001 279.4 269.501 278.1C268.701 277.9 267.901 274.1 267.001 275.2V275.3Z" fill="#782521" stroke="#782521" stroke-miterlimit="10"/>
<path d="M62.1992 634.1C58.1992 641.3 50.6992 665.5 61.0992 684.4C74.5992 708.7 164.299 775.6 178.799 787.5C194.299 800.3 199.799 810.3 200.999 810.9C202.699 811.8 206.399 782.4 195.599 768.3C159.499 721.5 65.7992 627.6 62.1992 634.1Z" fill="#81170E" stroke="#81170E" stroke-miterlimit="10"/>
<path d="M75.8999 383.9C71.8999 391.1 60.1999 412 73.0998 429.3C89.2999 451 162.4 506.6 176.8 518.5C192.3 531.3 175.8 549 177 549.6C178.7 550.5 211.4 525.6 200.5 511.6C164.4 464.8 79.3999 377.4 75.7999 383.9H75.8999Z" fill="#81170E" stroke="#81170E" stroke-miterlimit="10"/>
<path d="M268.4 451.7C265.9 451.1 260.6 450.2 256.2 447.9C245.9 442.7 238.8 437.2 235.7 434.8C193.8 402 175.5 386.7 164.7 384.2C152.7 381.4 147 383.2 139 384.9C131.6 386.4 133.4 367.7 138.9 362.7C145.2 356.9 157.9 363.2 200.6 383.6C254.5 409.4 270.9 416.8 272.5 431.7C273.4 439.5 271.3 447.2 268.3 451.7H268.4Z" fill="#81170E" stroke="#81170E" stroke-miterlimit="10"/>
<path d="M256.9 290C254.1 293.3 250.3 304 251 312.6C251.6 320.7 255.5 327.7 264.8 336.4C275.2 346 285.2 352.9 301.7 367.4C304.8 370.1 308.6 373.4 311.8 378.9C314 382.7 313.5 390.7 315.4 389.8C317.3 388.9 323.4 391 323.4 382.2C323.4 350.5 272.2 272.5 256.9 290.1V290Z" fill="#81170E" stroke="#81170E" stroke-miterlimit="10"/>
<path d="M294.7 308.6C296.6 305.2 301 300.5 302.3 299.2C314.1 287.3 409.9 224.5 419.6 218C426.6 213.2 415.2 203.4 408 207.5C350.9 240.1 297.8 280.5 290.9 290.2C287.7 294.7 292 313.6 294.7 308.6Z" fill="#DB3821" stroke="#DB3821" stroke-miterlimit="10"/>
<path d="M347.699 373.2C354.799 365.3 352.699 397.6 352.099 400.8C349.599 413.8 340.299 424 332.599 431.6C327.699 436.5 317.099 445.7 296.999 450.3C288.999 452.1 274.499 452.2 268.399 451.6C266.799 451.5 265.599 450.1 265.799 448.5C266.699 439.9 272.299 429.1 270.099 424C269.099 421.7 327.699 395.5 347.699 373.1V373.2Z" fill="#DB3821" stroke="#DB3821" stroke-miterlimit="10"/>
<path d="M143.101 367.2C143.401 368.5 142.601 377 142.201 382.7C142.201 383.7 141.401 384.6 140.401 384.8C137.201 385.7 125.701 391.5 122.501 393.8C116.501 398.2 113.101 402.4 111.901 407.8C110.901 412.1 101.401 401.7 100.301 395.4C98.1006 382.7 112.901 368.8 127.101 365.4C130.601 364.6 141.601 361.1 143.001 367.2H143.101Z" fill="#DB3821" stroke="#DB3821" stroke-miterlimit="10"/>
<path d="M226.9 513.9C228.1 513.9 229.4 534.7 228.7 542.1C227.4 555.8 220.6 560.1 214.2 565.4C203.1 574.8 180.1 593.3 180.1 593.3C180.1 593.3 105.6 649.7 102.5 660.2C99.3996 670.7 96.1996 672.1 94.2996 672.2C91.8996 672.4 90.0996 654 90.0996 646.7C90.0996 639.4 218.5 513.3 226.8 513.9H226.9Z" fill="#DB3821" stroke="#DB3821" stroke-miterlimit="10"/>
<path d="M271.601 269.6C270.701 270.3 257.201 281 256.401 296.3C256.101 301.7 257.901 308.9 263.501 316.9C269.101 324.9 282.001 334.4 294.001 344.4C306.001 354.4 316.801 364.6 317.601 372.9C318.501 382.1 312.001 393.2 302.501 400.2C293.001 407.2 280.301 409.9 268.701 402.4C259.801 396.6 244.901 383.4 228.601 370.6C212.301 357.8 194.701 345.3 180.401 340.9C175.501 339.4 164.801 337 151.401 337.4C138.001 337.8 122.001 341.1 106.601 351C102.001 354 91.7007 359.8 82.6007 370.6C73.5007 381.4 66.3007 397.8 75.8007 414.6C83.3007 427.9 116.301 454 134.201 468.5C161.201 490.5 189.701 506.9 189.801 521.2C189.801 531 182.101 535.4 174.101 542.6C165.601 550.1 105.501 592.3 86.3007 606.4C61.9007 624.4 57.0007 637.1 58.0007 654.4C59.8007 683.7 117.101 723 226.401 807.2C249.101 824.7 275.901 812.3 267.901 808.2C268.601 793.7 182.201 727.8 160.801 711.7C158.201 709.8 105.101 670 99.7007 660C91.4007 644.8 103.701 635.2 116.601 625.3C116.601 625.3 183.501 571.8 210.001 551.5C219.101 544.2 226.801 534.5 227.801 526.5C230.601 503.5 215.801 493 212.501 490.4C202.701 482.4 158.301 447.8 129.001 425.2C125.101 422.6 110.101 411.7 109.101 401.7C108.501 395.6 110.401 389.8 113.601 385.4C116.801 381 121.301 377.9 122.801 376.6C129.501 370.9 142.201 364.5 158.401 365.9C179.401 367.7 202.401 391.2 208.101 395C211.301 397.1 226.301 409.6 237.601 418C248.401 426.5 253.301 429.7 261.401 431.9C267.901 433.7 274.701 434.4 278.701 434.6C289.901 435.1 299.701 432.4 307.601 429C315.501 425.6 321.401 421.4 324.801 419C329.601 415.6 334.701 411.1 339.401 405.8C344.101 400.5 349.101 394.9 350.801 386.8C352.101 380.6 352.201 377.9 351.901 373.1C351.001 359.7 336.101 345.2 328.201 338.3C320.301 331.4 298.501 313.8 296.101 311.3C293.701 308.8 291.101 305.6 290.601 301.8C290.301 299.3 290.601 296.9 291.301 294.7C292.001 292.5 293.101 290.6 294.401 289.2C306.201 276.3 427.501 197.9 427.501 197.9L413.401 192L417.201 169.8C417.201 169.8 288.501 256.4 271.801 269.8L271.601 269.6Z" fill="#F4F1F1" stroke="#F4F1F1" stroke-miterlimit="10"/>
<path d="M321.199 250.6L396.699 198.4" stroke="#A72116" stroke-width="3" stroke-miterlimit="10"/>
<path d="M298.8 267.2C286.3 276.8 268.3 286.7 274.2 304.1C278.4 316.6 296.1 328.6 300.6 333.1" stroke="#A72116" stroke-width="3" stroke-miterlimit="10"/>
<path d="M321.5 351.8C323.1 352.9 331.8 361.2 333.7 371.7C335.4 380.8 332.1 388.4 330.9 390.6" stroke="#A72116" stroke-width="3" stroke-miterlimit="10"/>
<path d="M314.2 407.9C311.4 410.3 299.8 420.9 282.2 420.6C262 420.3 249.7 407.1 247.6 404.8" stroke="#A72116" stroke-width="3" stroke-miterlimit="10"/>
<path d="M227.2 388.9L198 366.5" stroke="#A72116" stroke-width="3" stroke-miterlimit="10"/>
<path d="M172.3 354.1C168.5 352.7 161.5 351.1 154.2 351C146.5 350.9 139.5 352.5 135.6 353.9" stroke="#A72116" stroke-width="3" stroke-miterlimit="10"/>
<path d="M113.499 363.8C112.599 364.4 94.5994 374 90.8994 392.2C86.8994 411.7 101.899 422 102.799 422.9" stroke="#A72116" stroke-width="3" stroke-miterlimit="10"/>
<path d="M124.4 441.1C136.5 450.7 149.2 459.7 161.4 469.3" stroke="#A72116" stroke-width="3" stroke-miterlimit="10"/>
<path d="M184.101 486.8C184.101 486.8 214.601 505 211.401 521C207.901 538.5 174.301 560.5 174.301 560.5" stroke="#A72116" stroke-width="3" stroke-miterlimit="10"/>
<path d="M150.701 577.4C129.201 592.8 111.701 605.6 98.8009 615.4C89.9009 622.2 78.6009 633.1 77.1009 644.7C74.6009 664.4 89.4009 674.5 93.6009 678.5" stroke="#A72116" stroke-width="3" stroke-miterlimit="10"/>
<path d="M114.6 696L148.7 722.5" stroke="#A72116" stroke-width="3" stroke-miterlimit="10"/>
<path d="M168.1 738.4L246.8 803.3" stroke="#A72116" stroke-width="3" stroke-miterlimit="10"/>
</g>
<defs>
<clipPath id="clip0_2374_302">
<rect width="393" height="782" fill="white"/>
</clipPath>
</defs>
</svg>
