<svg width="281" height="145" viewBox="0 0 281 145" fill="none" xmlns="http://www.w3.org/2000/svg">
<path d="M56.12 0H223.96C254.92 0 280.07 25.14 280.07 56.12V121.82C280.07 134.41 269.85 144.63 257.26 144.63H22.81C10.22 144.62 0 134.4 0 121.81V56.12C0 25.14 25.14 0 56.12 0Z" fill="#81170E"/>
<path d="M60.8395 10.6699H221.559C250.299 10.6699 273.629 33.9999 273.629 62.7399V111.58C273.629 121.14 265.869 128.9 256.309 128.9H23.7595C14.1995 128.9 6.43945 121.14 6.43945 111.58V65.0699C6.43945 35.0399 30.8195 10.6699 60.8395 10.6699Z" fill="#A72116"/>
<path d="M3.00049 74.7001C2.93049 59.1001 10.3905 33.3701 27.7605 21.9901C40.8605 13.4101 47.9805 10.9501 69.3305 10.7601C153.8 10.0101 209.47 9.95008 222.33 10.5401C235.19 11.1301 249.16 16.9401 259.58 27.5901C271.3 39.5701 272.95 49.9401 273.35 64.8201C273.66 76.4501 273.03 95.5301 274.71 117.33" stroke="#DB3821" stroke-width="3" stroke-miterlimit="10"/>
<path d="M59.4498 3.66016H219.82C250.79 3.66016 275.94 28.8002 275.94 59.7802V118.99C275.94 131.58 265.72 141.8 253.13 141.8H26.1498C13.5598 141.8 3.33984 131.58 3.33984 118.99V59.7802C3.33984 28.8102 28.4798 3.66016 59.4498 3.66016Z" stroke="#81170E" stroke-width="6" stroke-miterlimit="10"/>
<path d="M68.1695 17.5898H213.69C242.43 17.5898 265.76 40.9198 265.76 69.6598V104.66C265.76 114.22 258 121.98 248.44 121.98H31.0895C21.5295 121.98 13.7695 114.22 13.7695 104.66V71.9898C13.7695 41.9598 38.1495 17.5898 68.1695 17.5898Z" fill="black"/>
<path d="M36.1895 48.1001C39.9795 50.5901 45.3995 53.6101 49.1895 56.1101" stroke="#F4F1F1" stroke-width="3" stroke-miterlimit="10"/>
<path d="M69.4795 42.5299C67.1695 40.3099 65.0795 37.5999 62.7695 35.3799" stroke="#F4F1F1" stroke-width="3" stroke-miterlimit="10"/>
<path d="M87.8008 29.2798C89.4608 31.8798 91.1208 34.4798 92.7908 37.0898" stroke="#F4F1F1" stroke-width="3" stroke-miterlimit="10"/>
<path d="M114.83 28.0098C115.59 30.7798 116.42 34.0398 117.18 36.7998" stroke="#F4F1F1" stroke-width="3" stroke-miterlimit="10"/>
<path d="M141.859 23.73C142.019 27.21 142.179 31.02 142.339 34.5" stroke="#F4F1F1" stroke-width="3" stroke-miterlimit="10"/>
<path d="M195.84 29.2998C194.18 31.8998 192.52 34.4998 190.85 37.1098" stroke="#F4F1F1" stroke-width="3" stroke-miterlimit="10"/>
<path d="M168.629 27.2202C167.869 29.9902 167.039 33.2502 166.279 36.0102" stroke="#F4F1F1" stroke-width="3" stroke-miterlimit="10"/>
<path d="M214.801 42.5401C217.111 40.3201 219.201 37.6101 221.511 35.3901" stroke="#F4F1F1" stroke-width="3" stroke-miterlimit="10"/>
<path d="M247.131 48.23C243.341 50.72 237.921 53.74 234.131 56.24" stroke="#F4F1F1" stroke-width="3" stroke-miterlimit="10"/>
<path d="M141.261 47.98L139.311 66.18L145.361 66.26L142.601 47.52L141.261 47.98Z" fill="#F4F1F1" stroke="#F4F1F1" stroke-miterlimit="10"/>
</svg>
