<svg viewBox="0 0 60 60" fill="none" xmlns="http://www.w3.org/2000/svg">
  <path d="M17.0865 25.345C18.3775 25.3336 19.6686 25.3303 20.9597 25.3354C21.04 29.348 20.9557 33.4327 20.9838 37.4553C22.3566 37.439 23.7296 37.435 25.1026 37.4433C25.1917 38.238 25.1545 40.4603 25.1451 41.3157C25.1235 43.2844 25.2027 45.4674 25.1051 47.4117C23.9705 47.4244 22.8018 47.4112 21.665 47.4106L13.5828 47.4078C13.4948 46.4681 13.5397 44.785 13.5407 43.8027L13.5486 37.3224L13.5458 32.5603C13.543 31.7431 13.5016 30.3665 13.606 29.6001L16.0727 29.6243C16.1225 28.3034 16.0876 26.7162 16.0909 25.3769L17.0865 25.345Z" fill="currentColor"/>
  <path d="M14.7848 38.6291C15.3843 38.6114 16.0582 38.6286 16.6638 38.6318L16.6801 40.8863L14.7759 40.8864C14.7694 40.1339 14.7724 39.3815 14.7848 38.6291Z" fill="currentColor"/>
  <path d="M14.787 31.2032C15.4038 31.1977 16.0372 31.2121 16.6553 31.2186C16.6735 31.9445 16.677 32.6707 16.666 33.3968C16.0476 33.3595 15.4102 33.3811 14.7896 33.3918C14.7632 32.6188 14.7671 31.9791 14.787 31.2032Z" fill="currentColor"/>
  <path d="M17.9563 38.6293L19.7726 38.6324C19.7868 39.3749 19.7735 40.1452 19.7693 40.89L17.9512 40.8928L17.9563 38.6293Z" fill="currentColor"/>
  <path d="M14.7884 34.9549C15.3987 34.9468 16.0445 34.9609 16.6578 34.9652C16.6791 35.6696 16.6701 36.3941 16.6701 37.1001L14.789 37.1047C14.7531 36.3708 14.7691 35.688 14.7884 34.9549Z" fill="currentColor"/>
  <path d="M17.9592 31.197L19.7687 31.2085C19.7845 31.9182 19.773 32.6527 19.7702 33.3649C19.1654 33.3644 18.5605 33.3759 17.9561 33.3993C17.947 32.6717 17.9571 31.9261 17.9592 31.197Z" fill="currentColor"/>
  <path d="M17.9565 34.952C18.5582 34.9489 19.1599 34.9556 19.7615 34.9718C19.773 35.6922 19.7824 36.3783 19.7644 37.0986C19.1647 37.0955 18.5541 37.1043 17.9535 37.1075C17.9507 36.389 17.9517 35.6705 17.9565 34.952Z" fill="currentColor"/>
  <path d="M25.8261 19.8252C26.8952 19.8255 28.3043 19.7854 29.3363 19.8402L29.3436 47.4113C28.2792 47.4146 27.0677 47.4474 26.0152 47.4133C25.9503 44.837 26.0295 42.2047 25.9997 39.6256C25.9932 39.0542 26.0403 36.8759 25.9339 36.4893C24.5577 36.4689 23.2412 36.5118 21.823 36.4766C21.7724 35.5489 21.8034 34.3832 21.8037 33.4417L21.804 28.1452L21.8056 23.1228C21.8062 22.0805 21.7839 20.8513 21.8538 19.8252C23.1778 19.8377 24.502 19.8377 25.8261 19.8252Z" fill="currentColor"/>
  <path d="M21.8538 19.8251C23.1778 19.8377 24.502 19.8377 25.8261 19.8252L25.8305 30.7936C25.8299 31.6124 25.7762 36.0045 25.9339 36.4893C24.5577 36.4689 23.2412 36.5117 21.823 36.4766C21.7724 35.5489 21.8034 34.3832 21.8037 33.4417L21.804 28.1452L21.8056 23.1228C21.8062 22.0805 21.7839 20.8512 21.8538 19.8251Z" fill="currentColor"/>
  <path d="M30.275 25.341C31.4736 25.3346 33.947 25.2543 35.0635 25.3664C35.1537 26.36 35.1013 28.5502 35.1085 29.6202C35.915 29.5977 36.7334 29.5635 37.5391 29.5895C37.5427 29.6092 37.5461 29.6289 37.5493 29.6487C37.635 30.1844 37.613 31.3123 37.613 31.8781L37.613 35.5342L37.6231 43.4033C37.622 43.8039 37.6476 47.263 37.5387 47.4117C35.0906 47.4144 32.5838 47.4484 30.141 47.4109C30.0852 45.86 30.1324 44.0259 30.1325 42.4523L30.1316 32.8801L30.1298 27.791C30.1299 27.3656 30.1056 25.7711 30.1584 25.4115L30.275 25.341Z" fill="currentColor"/>
  <path d="M31.3946 38.632C32.0149 38.6297 32.6353 38.6313 33.2555 38.6366C33.2724 39.3855 33.2748 40.1347 33.2628 40.8836C32.6374 40.889 32.0119 40.8864 31.3866 40.876L31.3946 38.632Z" fill="currentColor"/>
  <path d="M34.5439 38.6331C35.1557 38.6267 35.7674 38.6285 36.379 38.6383L36.3962 40.8761C35.79 40.8997 35.1482 40.8833 34.539 40.878L34.5439 38.6331Z" fill="currentColor"/>
  <path d="M31.4087 34.9584C32.0253 34.9463 32.6423 34.9539 33.2585 34.9812C33.2674 35.689 33.2683 36.3968 33.2614 37.1046C32.6455 37.1015 32.0296 37.0951 31.4138 37.0851C31.3717 36.3926 31.3978 35.655 31.4087 34.9584Z" fill="currentColor"/>
  <path d="M34.5436 31.2034L36.3741 31.217C36.3858 31.9357 36.4018 32.6372 36.3767 33.3561C36.1681 33.3855 34.8259 33.3651 34.5393 33.3647C34.529 32.6443 34.5304 31.9238 34.5436 31.2034Z" fill="currentColor"/>
  <path d="M31.4025 31.206L33.2532 31.2127C33.2642 31.9304 33.2641 32.6482 33.253 33.3659L31.4121 33.3686C31.3846 32.6814 31.401 31.9008 31.4025 31.206Z" fill="currentColor"/>
  <path d="M34.5423 34.9534C35.1563 34.9559 35.7703 34.9621 36.3843 34.9722C36.3941 35.6585 36.3927 36.3449 36.38 37.0311C36.2094 37.1554 34.8455 37.0927 34.5424 37.087C34.5323 36.3758 34.5323 35.6646 34.5423 34.9534Z" fill="currentColor"/>
  <path d="M9.65489 34.2173C10.6557 34.1887 11.7277 34.2069 12.7338 34.2066C12.7566 34.83 12.7603 35.5153 12.7475 36.1384C12.671 39.8679 12.8631 43.6906 12.7252 47.4103L9.89794 47.4157L6.91473 47.4204C6.90782 47.0578 6.9213 46.6633 6.92748 46.2977C7.22371 46.2863 7.53291 46.2943 7.83033 46.2972C7.91087 45.3461 7.85242 44.1604 7.86601 43.1859C7.89807 40.8932 7.81096 38.5264 7.87949 36.24C8.11829 35.8315 9.29381 34.5656 9.65489 34.2173Z" fill="currentColor"/>
  <path d="M38.4683 34.2108C39.4814 34.2011 40.4946 34.2024 41.5077 34.2148C41.926 34.6599 43.0313 35.8002 43.3094 36.2572C43.3889 37.0587 43.3399 38.8359 43.3394 39.6842L43.3346 46.268L44.2444 46.2962L44.2642 47.4109C42.4111 47.4518 40.3187 47.4441 38.4674 47.4159C38.449 46.8072 38.4507 46.1702 38.4565 45.5609C38.4923 41.7854 38.39 37.9837 38.4683 34.2108Z" fill="currentColor"/>
  <path d="M23.9487 16.9244C24.3539 15.8054 24.6574 14.596 25.1194 13.489C25.2652 13.1398 25.0522 11.748 25.3382 11.4486C25.5408 11.4141 25.619 11.3843 25.8068 11.467C25.9663 11.7076 25.9342 13.1477 25.9096 13.4917C25.9896 13.7978 26.1442 13.7857 26.225 14.0722C26.4588 14.901 26.947 16.1288 27.1132 16.9366C27.5851 16.8934 27.9954 16.9079 28.4663 16.9187C28.4926 17.5822 28.5018 18.2462 28.494 18.91C27.6085 18.9134 26.6562 18.934 25.776 18.9105C24.7295 18.9159 23.683 18.9159 22.6365 18.9106C22.5931 18.2578 22.6137 17.568 22.621 16.9114C23.0166 16.8826 23.5419 16.9122 23.9487 16.9244Z" fill="currentColor"/>
  <path d="M25.7037 14.4834C25.8713 14.3773 25.8137 13.8449 25.9096 13.4917C25.9895 13.7978 26.1442 13.7857 26.225 14.0722C26.4587 14.901 26.947 16.1288 27.1132 16.9366C27.5851 16.8934 27.9954 16.9079 28.4663 16.9187C28.4925 17.5822 28.5018 18.2462 28.494 18.9101C27.6085 18.9135 26.6561 18.934 25.776 18.9105C25.8354 18.6164 25.8441 17.3488 25.8698 16.9421L26.1111 16.9088C26.3777 16.614 26.2372 16.2931 25.871 16.1862L25.8064 15.3074C25.8318 15.0802 25.7619 14.7057 25.7037 14.4834Z" fill="currentColor"/>
  <path d="M25.871 16.1862C26.2372 16.2931 26.3777 16.614 26.1111 16.9088L25.8698 16.9421C25.6607 16.8829 25.0727 16.8861 24.8249 16.8807L24.889 16.2017C25.2164 16.2033 25.5438 16.1981 25.871 16.1862Z" fill="currentColor"/>
  <path d="M25.8064 15.3073C24.9293 15.2987 25.197 14.6337 25.7037 14.4833C25.7619 14.7057 25.8318 15.0802 25.8064 15.3073Z" fill="currentColor"/>
  <path d="M23.6045 11.2215C24.0975 11.1828 24.6617 11.1153 24.5643 11.8834C24.5412 12.0658 24.5646 12.231 24.4498 12.3758C24.1334 12.3993 23.8518 12.3852 23.5359 12.3748C23.5097 12.0175 23.4442 11.5344 23.6045 11.2215Z" fill="currentColor"/>
  <path d="M25.0573 9.56767C25.3593 9.55413 25.6947 9.56942 25.9993 9.57633L25.9975 10.7439C25.6988 10.7602 25.3426 10.7474 25.0394 10.7444C25.0314 10.3352 25.0408 9.97684 25.0573 9.56767Z" fill="currentColor"/>
  <path d="M26.633 11.2272C26.9164 11.2121 27.2282 11.2138 27.5142 11.2094C27.5315 11.5822 27.5238 12.0267 27.5272 12.4055L26.6168 12.3514C26.6097 11.9702 26.6213 11.608 26.633 11.2272Z" fill="currentColor"/>
</svg>
