<svg width="393" height="782" viewBox="0 0 393 782" fill="none" xmlns="http://www.w3.org/2000/svg">
<g clip-path="url(#clip0_4493_35)">
<path d="M393 0H0V782H393V0Z" fill="#A72116" stroke="#A72116" stroke-miterlimit="10"/>
<path d="M88.49 610.17C84.98 608.73 79.08 612.66 73.9 617.2C68.71 621.73 66.28 627.09 65.59 628.07C63.27 631.37 62.32 634.75 58.8 640.48C55.28 646.21 50.83 655.32 50.05 657.07C44.76 668.94 47.94 680.71 54.98 691.58C62.02 702.45 73.74 713.4 87.2 725.61C97.75 735.18 118.61 752.86 136.83 768.14C155.05 783.43 170.64 796.32 170.64 796.32C170.64 796.32 183.12 791.35 195.75 785.14C208.39 778.93 221.18 771.47 221.82 766.49C223.28 755.16 193.08 746.71 160.67 733.19C128.26 719.67 93.63 701.07 86.22 669.43C83.06 655.95 85.67 641.97 88.04 630.94C90.41 619.91 92.56 611.83 88.48 610.16L88.49 610.17Z" fill="#782521" stroke="#782521" stroke-miterlimit="10"/>
<path d="M141.51 384.46C143.76 384.68 146.7 384.6 154.73 386.91C168.19 390.77 209.43 426.26 240.34 445.88C250.27 452.18 261.94 451.57 265.72 451.74C276.75 452.23 288.92 451.1 294.52 449.46C299.07 448.13 319.51 444.63 318.95 438.81C318.06 429.55 261.25 446.09 218.29 415.42C190.44 395.53 182.86 366.12 163.47 367.93C153.61 368.85 146.24 377.33 141.5 384.47L141.51 384.46Z" fill="#782521" stroke="#782521" stroke-miterlimit="10"/>
<path d="M267.03 275.27C262.11 280.69 250.71 287.3 245.07 298.31C243.33 301.7 239.09 313.07 244.2 324.85C248.36 334.44 261.01 345.39 288.67 368.92C292.08 371.82 301.85 379.74 304.21 387.42C308.07 399.98 304.35 401.05 306.57 403.16C309.81 406.24 326.67 399.4 327.56 378.49C327.95 369.45 321.57 362.74 310.13 350.6C292.49 331.87 286.33 335.09 279.53 323.49C268.22 304.19 276.03 279.51 269.54 278.17C268.7 278 267.97 274.22 267.02 275.27H267.03Z" fill="#782521" stroke="#782521" stroke-miterlimit="10"/>
<path d="M62.24 634.14C58.22 641.38 50.69 665.54 61.17 684.4C74.67 708.71 164.4 775.6 178.82 787.49C194.34 800.29 199.85 810.26 201.06 810.88C202.74 811.74 206.51 782.35 195.69 768.31C159.63 721.53 65.87 627.59 62.24 634.13V634.14Z" fill="#81170E" stroke="#81170E" stroke-miterlimit="10"/>
<path d="M75.92 383.85C71.9 391.09 60.19 411.96 73.12 429.24C89.33 450.9 162.43 506.58 176.84 518.47C192.36 531.27 175.88 548.94 177.09 549.56C178.77 550.42 211.44 525.58 200.62 511.55C164.56 464.77 79.55 377.32 75.91 383.85H75.92Z" fill="#81170E" stroke="#81170E" stroke-miterlimit="10"/>
<path d="M268.4 451.7C265.89 451.12 260.58 450.15 256.22 447.95C245.9 442.75 238.83 437.25 235.74 434.84C193.86 402.07 175.55 386.72 164.77 384.23C152.8 381.46 147.1 383.27 139.11 384.94C131.68 386.49 133.51 367.7 138.98 362.71C145.3 356.94 157.97 363.26 200.64 383.65C254.54 409.41 270.91 416.82 272.58 431.74C273.45 439.55 271.41 447.19 268.4 451.7Z" fill="#81170E" stroke="#81170E" stroke-miterlimit="10"/>
<path d="M256.89 290C254.06 293.27 250.33 304.02 250.97 312.6C251.58 320.72 255.45 327.74 264.79 336.35C275.19 345.94 285.19 352.81 301.7 367.34C304.8 370.07 308.59 373.3 311.81 378.81C314.02 382.61 313.48 390.62 315.39 389.67C317.3 388.72 323.35 390.83 323.35 382.09C323.35 350.36 272.16 272.37 256.89 290Z" fill="#81170E" stroke="#81170E" stroke-miterlimit="10"/>
<path d="M294.69 308.63C296.55 305.19 301.03 300.48 302.3 299.2C314.07 287.34 409.95 224.53 419.63 217.97C426.64 213.22 415.23 203.38 407.99 207.51C350.87 240.1 297.83 280.51 290.89 290.21C287.7 294.67 291.99 313.61 294.69 308.63Z" fill="#DB3821" stroke="#DB3821" stroke-miterlimit="10"/>
<path d="M347.67 373.21C354.74 365.31 352.65 397.62 352.03 400.83C349.52 413.86 340.22 424.02 332.55 431.67C327.67 436.53 317.06 445.8 296.98 450.41C289.03 452.23 274.46 452.26 268.39 451.7C266.8 451.55 265.59 450.15 265.75 448.55C266.61 439.97 272.3 429.18 270.03 424.09C269.02 421.82 327.6 395.6 347.66 373.21H347.67Z" fill="#DB3821" stroke="#DB3821" stroke-miterlimit="10"/>
<path d="M143.05 367.17C143.35 368.46 142.58 376.92 142.18 382.68C142.11 383.7 141.41 384.56 140.42 384.83C137.24 385.72 125.7 391.5 122.52 393.82C116.53 398.21 113.12 402.4 111.9 407.82C110.92 412.14 101.44 401.69 100.35 395.39C98.15 382.7 112.96 368.74 127.13 365.36C130.59 364.53 141.61 361.04 143.05 367.17Z" fill="#DB3821" stroke="#DB3821" stroke-miterlimit="10"/>
<path d="M226.87 513.92C228.08 514 229.39 534.7 228.71 542.11C227.45 555.81 220.56 560.08 214.25 565.44C203.2 574.83 180.14 593.34 180.14 593.34C180.14 593.34 105.66 649.78 102.52 660.28C99.38 670.78 96.19 672.15 94.34 672.3C91.89 672.5 90.13 654.1 90.13 646.75C90.13 636.5 218.54 513.36 226.87 513.93V513.92Z" fill="#DB3821" stroke="#DB3821" stroke-miterlimit="10"/>
<path d="M271.58 269.59C270.73 270.27 257.21 281.01 256.33 296.26C256.02 301.67 257.78 308.85 263.41 316.88C268.77 324.53 281.91 334.38 293.9 344.4C305.89 354.41 316.74 364.59 317.53 372.88C318.41 382.08 311.96 393.21 302.41 400.16C292.86 407.11 280.21 409.88 268.66 402.35C259.81 396.58 244.88 383.4 228.6 370.57C212.32 357.74 194.67 345.25 180.4 340.89C175.52 339.4 164.76 336.95 151.38 337.35C137.99 337.76 121.98 341.02 106.59 350.97C102 353.94 91.69 359.81 82.56 370.6C73.19 381.67 66.26 397.81 75.72 414.61C83.18 427.87 116.25 454.03 134.07 468.55C161.04 490.51 189.58 506.94 189.62 521.22C189.65 531.02 181.94 535.39 173.88 542.58C165.41 550.13 105.32 592.24 86.11 606.39C61.72 624.35 56.77 637.1 57.85 654.36C59.68 683.63 116.92 722.92 226.27 807.11C248.95 824.57 275.76 812.2 267.8 808.1C268.54 793.57 182.06 727.73 160.74 711.64C158.17 709.7 105.08 669.96 99.62 659.97C91.33 644.82 103.61 635.19 116.52 625.3C116.52 625.3 183.46 571.78 209.91 551.49C218.97 544.14 226.7 534.46 227.66 526.5C230.44 503.48 215.68 493.04 212.37 490.35C202.57 482.38 158.21 447.75 128.89 425.19C124.94 422.63 109.97 411.67 109.02 401.66C108.38 395.53 110.33 389.79 113.53 385.37C116.73 380.95 121.19 377.86 122.71 376.56C129.36 370.86 142.13 364.46 158.29 365.86C179.27 367.67 202.31 391.14 207.98 394.95C211.19 397.1 226.16 409.51 237.45 417.96C248.22 426.46 253.19 429.62 261.21 431.88C267.74 433.72 274.48 434.4 278.52 434.59C289.73 435.1 299.54 432.4 307.41 428.97C315.28 425.54 321.2 421.37 324.65 418.95C329.42 415.6 334.55 411.05 339.29 405.73C343.96 400.5 349 394.86 350.72 386.68C352.03 380.46 352.15 377.81 351.82 372.98C350.91 359.62 335.98 345.06 328.13 338.15C320.28 331.24 298.46 313.66 296.05 311.13C293.64 308.6 291.05 305.45 290.58 301.6C290.28 299.12 290.55 296.69 291.24 294.52C291.93 292.35 293.01 290.46 294.33 289.05C306.17 276.12 427.39 197.77 427.39 197.77L413.24 191.84L417.01 169.64C417.01 169.64 288.27 256.19 271.57 269.61L271.58 269.59Z" fill="#F47F7F" stroke="#F47F7F" stroke-miterlimit="10"/>
<path d="M321.21 250.58L396.69 198.41" stroke="#A72116" stroke-width="3" stroke-miterlimit="10"/>
<path d="M298.81 267.18C286.31 276.78 268.36 286.65 274.18 304.12C278.34 316.61 296.09 328.57 300.62 333.09" stroke="#A72116" stroke-width="3" stroke-miterlimit="10"/>
<path d="M321.46 351.78C323.08 352.9 331.73 361.19 333.68 371.66C335.39 380.8 332.06 388.39 330.86 390.58" stroke="#A72116" stroke-width="3" stroke-miterlimit="10"/>
<path d="M314.22 407.88C311.46 410.31 299.83 420.85 282.17 420.56C262.01 420.23 249.65 407.03 247.59 404.76" stroke="#A72116" stroke-width="3" stroke-miterlimit="10"/>
<path d="M227.2 388.88L197.96 366.5" stroke="#A72116" stroke-width="3" stroke-miterlimit="10"/>
<path d="M172.32 354.09C168.55 352.71 161.5 351.09 154.21 350.98C146.55 350.87 139.53 352.52 135.66 353.87" stroke="#A72116" stroke-width="3" stroke-miterlimit="10"/>
<path d="M113.47 363.84C112.6 364.46 94.59 374.02 90.86 392.28C86.88 411.76 101.84 422.09 102.77 422.94" stroke="#A72116" stroke-width="3" stroke-miterlimit="10"/>
<path d="M124.36 441.07C136.49 450.65 149.19 459.65 161.32 469.23" stroke="#A72116" stroke-width="3" stroke-miterlimit="10"/>
<path d="M184.15 486.79C184.15 486.79 214.62 505.01 211.43 521.03C207.96 538.49 174.36 560.48 174.36 560.48" stroke="#A72116" stroke-width="3" stroke-miterlimit="10"/>
<path d="M150.71 577.44C129.21 592.81 111.72 605.6 98.82 615.4C89.88 622.2 78.58 633.13 77.14 644.67C74.68 664.4 89.41 674.48 93.6 678.43" stroke="#A72116" stroke-width="3" stroke-miterlimit="10"/>
<path d="M114.55 696.05L148.73 722.54" stroke="#A72116" stroke-width="3" stroke-miterlimit="10"/>
<path d="M168.15 738.36L246.77 803.34" stroke="#A72116" stroke-width="3" stroke-miterlimit="10"/>
<path d="M355.174 216.084C356.131 216.768 357.676 217.824 357.839 219.735C357.959 221.145 357.225 222.491 356.778 223.227C356.429 223.801 354.164 226.241 352.266 226.409C350.369 226.578 349.699 225.829 349.342 225.58C348.893 225.268 348.025 224.47 347.415 223.621C346.851 222.834 346.414 221.48 346.433 221.013C346.476 219.923 346.691 218.547 347.9 217.276C348.741 216.392 349.856 215.308 351.453 214.992C352.999 214.687 354.331 215.482 355.174 216.085L355.174 216.084Z" fill="#303338"/>
<path d="M350.916 219.584C349.105 221.729 348.219 224.7 350.187 226.046C351.449 226.909 353.981 226.585 356.275 223.879C358.057 221.777 358.252 218.919 356.963 217.726C355.683 216.542 352.909 217.221 350.916 219.584Z" fill="#131414"/>
<path d="M378.282 201.21C378.732 201.468 380.662 202.83 380.835 204.21C381.007 205.59 380.287 206.866 379.886 207.576C379.573 208.129 377.535 210.475 375.824 210.633C374.112 210.792 373.545 210.169 373.189 209.913C372.779 209.618 371.951 208.939 371.399 208.118C370.887 207.358 370.962 205.833 371.067 205.396C371.314 204.367 372.119 203.189 372.859 202.426C373.648 201.611 374.315 201.028 375.378 200.768C376.762 200.43 377.802 200.935 378.282 201.21Z" fill="#303338"/>
<path d="M375.002 204.963C373.367 206.898 372.877 209.425 373.949 210.304C375.02 211.184 377.355 210.543 379.424 208.102C381.032 206.206 381.304 203.781 380.061 202.799C378.974 201.94 376.801 202.832 375.002 204.963L375.002 204.963Z" fill="#131414"/>
<path d="M354.219 230.448C354.78 231.895 355.176 232.675 355.095 232.767C354.981 232.899 354.571 232.914 354.345 232.803C353.59 232.434 352.883 231.927 352.576 231.73C351.184 230.833 348.339 228.96 348.058 228.686C347.823 228.456 347.568 228.095 347.568 228.095C347.4 227.819 347.335 227.628 347.243 227.506C347.087 227.298 346.417 226.776 345.97 226.409C345.551 226.065 344.875 225.57 344.543 225.234C344.268 224.954 344.07 224.704 343.975 224.379C343.948 224.285 343.817 223.766 344.044 223.497C344.366 223.118 345.322 223.434 345.97 223.69C348.49 224.684 352.726 226.599 354.219 230.447L354.219 230.448Z" fill="#28436B"/>
<path d="M358.059 228.162C358.274 228.444 359.068 229.707 358.906 230.12C358.802 230.388 358.378 230.585 357.215 231.423C355.848 232.408 355.29 232.654 355.095 232.766C354.863 232.901 354.081 230.526 354.233 230.376C354.321 230.29 354.589 230.368 354.809 230.277C355.804 229.86 357.977 228.056 358.058 228.162L358.059 228.162Z" fill="#172A3F"/>
<path d="M389.399 205.872C389.558 206.106 389.121 205.972 388.485 206.355C387.742 206.803 384.57 208.606 380.375 211.227C379.08 212.037 378.648 212.402 378.216 213.194C377.784 213.986 377.928 214.984 378.135 216.121C378.26 216.81 378.452 217.302 378.491 218.066C378.52 218.633 378.401 218.793 378.075 219.086C376.777 220.249 375.358 221.377 373.352 222.635C372.352 223.262 371.841 223.766 371.148 223.766C370.455 223.767 370.256 223.392 369.692 222.845C369.412 222.573 368.171 221.763 367.459 221.505C366.747 221.248 365.112 221.204 363.74 221.66C361.597 222.373 359.248 223.839 357.584 224.621C355.919 225.403 354.894 226.204 354.894 226.204C354.894 226.204 358.043 227.815 358.035 228.185C358.031 228.403 357.799 228.372 356.174 229.525C354.893 230.435 354.508 230.364 354.373 230.391C353.169 230.634 343.841 223.976 344.039 223.522C344.252 223.033 346.741 221.346 347.449 221.534C348.365 221.776 351.994 224.563 351.994 224.563C351.994 224.563 356.978 218.288 356.949 218.068C356.877 217.532 356.854 216.998 357.098 216.216C357.314 215.518 357.982 214.949 359.36 213.698C361.316 211.924 363.108 210.288 364.05 209.654C364.345 209.456 364.256 208.93 364.691 208.517C365.131 208.099 365.62 207.948 365.871 207.888C368.649 207.227 374.166 208.122 375.977 207.833C377.145 207.648 378.448 206.914 381.373 205.514C383.355 204.565 384.665 203.921 386.199 204.051C388.195 204.22 389.16 205.518 389.399 205.873L389.399 205.872Z" fill="#518ACE"/>
<path d="M389.399 205.872C389.306 205.783 387.792 206.756 385.763 207.903C382.248 209.892 380.045 211.351 378.881 212.283C378.504 212.584 378.124 213.27 377.976 213.909C377.793 214.697 378.142 216.48 378.468 217.768C378.566 218.153 378.57 218.588 378.264 218.885C376.338 220.761 373.749 222.373 371.621 223.628C371.109 223.929 370.352 223.429 370.111 223.211C369.111 222.303 368.368 221.95 367.769 221.642C366.987 221.239 365.386 221.105 363.739 221.66C361.132 222.54 359.99 223.279 357.399 224.655C356.135 225.326 354.893 226.203 354.893 226.203C354.893 226.203 357.453 227.595 357.864 227.996C357.964 228.095 358.827 228.997 358.907 230.122C358.907 230.122 359.796 230.157 359.969 230.077C362.474 228.927 366.85 231.12 371.127 228.483C373.147 227.238 374.266 226.358 376.081 225.133C377.097 224.447 378.843 223.284 379.139 222.431C379.251 222.106 379.282 221.734 379.252 220.583C379.222 219.432 379.243 218.588 379.358 218.146C379.636 217.077 380.429 216.421 382.767 214.721C386.045 212.337 388.346 211.1 388.943 209.446C389.036 209.188 389.227 208.544 389.383 207.792C389.576 206.853 389.579 206.045 389.4 205.873L389.399 205.872Z" fill="#28436B"/>
<path d="M366.807 211.151C366.984 211.33 367.446 212.954 367.512 213.132C367.542 213.212 367.766 213.42 367.915 214.128C368.065 214.836 368.19 215.277 368.297 215.482C368.551 215.97 368.892 216.24 368.911 216.307C368.943 216.418 367.406 217.154 366.906 217.39C366.222 217.712 364.878 218.276 362.167 219.908C360.488 220.919 358.775 222.265 356.925 223.376C355.584 224.182 353.844 225.526 353.844 225.526L353.116 225.053C353.116 225.053 354.122 223.692 354.931 222.668C355.508 221.938 356.539 220.71 358.416 218.338C359.649 216.781 360.372 215.952 362.269 214.185C362.269 214.185 363.999 212.322 365.895 211.234C366.098 211.118 366.56 210.9 366.807 211.151Z" fill="#28436B"/>
<path d="M382.795 211.479C382.813 212.085 383.168 212.509 383.682 212.488C384.195 212.467 384.393 211.888 384.653 211.401C384.927 210.888 384.22 210.465 383.706 210.486C383.193 210.507 382.778 210.925 382.795 211.479Z" fill="#131414"/>
<path d="M389.931 209.916C390.382 210.174 392.311 211.536 392.484 212.916C392.656 214.296 391.936 215.573 391.535 216.282C391.222 216.835 389.184 219.181 387.473 219.339C385.762 219.498 385.194 218.875 384.838 218.619C384.428 218.324 383.6 217.645 383.049 216.825C382.536 216.064 382.611 214.539 382.716 214.102C382.963 213.073 383.768 211.895 384.508 211.132C385.297 210.317 385.964 209.734 387.028 209.474C388.411 209.136 389.452 209.641 389.931 209.916Z" fill="#303338"/>
<path d="M386.651 213.669C385.017 215.604 384.526 218.131 385.598 219.01C386.669 219.89 389.004 219.249 391.074 216.808C392.681 214.912 392.954 212.487 391.711 211.505C390.623 210.646 388.45 211.538 386.652 213.669L386.651 213.669Z" fill="#131414"/>
<path d="M387.684 214.617C386.933 215.581 386.914 216.742 387.539 217.133C388.164 217.525 389.171 217.087 389.945 216.141C390.728 215.186 390.683 213.955 390.058 213.563C389.433 213.172 388.435 213.654 387.685 214.617L387.684 214.617Z" fill="#303338"/>
<path d="M368.42 224.401C369.376 225.084 370.921 226.141 371.084 228.052C371.204 229.462 370.47 230.808 370.023 231.544C369.674 232.118 367.409 234.558 365.512 234.726C363.614 234.895 362.944 234.145 362.587 233.896C362.139 233.585 361.27 232.786 360.661 231.938C360.096 231.15 359.66 229.796 359.678 229.33C359.722 228.24 359.936 226.864 361.146 225.593C361.986 224.709 363.102 223.624 364.699 223.309C366.295 222.993 367.576 223.799 368.42 224.402L368.42 224.401Z" fill="#303338"/>
<path d="M364.161 227.9C362.35 230.046 361.464 233.017 363.433 234.363C364.695 235.226 367.226 234.902 369.52 232.196C371.302 230.094 371.498 227.236 370.208 226.043C368.928 224.859 366.155 225.538 364.161 227.9Z" fill="#131414"/>
<path d="M365.52 229.298C364.687 230.367 364.288 231.487 365.399 232.212C366.083 232.66 367.393 232.229 368.252 231.181C369.11 230.133 369.034 228.81 368.376 228.324C367.525 227.693 366.351 228.231 365.52 229.297L365.52 229.298Z" fill="#303338"/>
<path d="M372.415 211.262C372.752 211.27 373.348 211.728 373.749 212.318C374.368 213.227 373.851 214.615 373.493 215.004C372.6 215.975 371.062 216.77 369.634 216.536C369.261 216.475 368.811 216.15 368.511 215.656C368.211 215.162 368.017 214.16 367.894 213.67C367.83 213.415 367.546 213.114 367.583 213.091C367.617 213.07 367.949 213.446 368.476 213.482C368.906 213.511 370.202 213.41 371.124 212.326C371.317 212.099 371.441 211.775 371.598 211.614C371.812 211.396 372.084 211.255 372.416 211.263L372.415 211.262Z" fill="#303338"/>
<path d="M372.348 211.143C372.352 211.126 371.84 210.888 371.466 210.765C371.035 210.623 370.574 210.51 369.929 210.647C369.016 210.842 368.435 211.343 368.228 211.54C367.902 211.851 367.644 212.186 367.647 212.563C367.65 212.884 367.863 213.175 368.129 213.306C368.609 213.543 369.72 213.296 370.327 212.89C370.805 212.57 371.128 212.177 371.23 211.996C371.343 211.796 371.474 211.588 371.623 211.438C371.875 211.184 372.343 211.162 372.347 211.143L372.348 211.143Z" fill="#28436B"/>
<path d="M367.331 209.512C366.919 208.778 366.244 208.357 366.146 208.316C365.777 208.164 365.349 208.062 364.913 208.25C364.421 208.463 364.157 209.09 364.167 209.574C364.18 210.246 364.429 210.443 364.934 210.897C365.311 211.236 365.556 211.438 365.97 211.531C366.084 211.556 366.716 211.697 367.181 211.274C367.659 210.839 367.563 210.17 367.543 210.054C367.505 209.825 367.419 209.668 367.331 209.512Z" fill="#303338"/>
<path d="M367.463 209.767C367.463 209.767 367.254 210.364 366.769 210.767C366.162 211.272 365.608 211.406 365.608 211.406C365.608 211.406 365.901 211.561 366.183 211.566C366.857 211.576 367.039 211.395 367.201 211.256C367.555 210.951 367.564 210.444 367.563 210.292C367.561 209.982 367.461 209.767 367.461 209.767L367.463 209.767Z" fill="#141313"/>
</g>
<defs>
<clipPath id="clip0_4493_35">
<rect width="393" height="782" fill="white"/>
</clipPath>
</defs>
</svg>
