<svg width="393" height="782" viewBox="0 0 393 782" fill="none" xmlns="http://www.w3.org/2000/svg">
<g clip-path="url(#clip0_4493_88)">
<path d="M393 0H0V782H393V0Z" fill="#A72116" stroke="#A72116" stroke-miterlimit="10"/>
<path d="M88.49 610.17C84.98 608.73 79.08 612.66 73.9 617.2C68.72 621.74 66.28 627.09 65.59 628.07C63.27 631.37 62.32 634.75 58.8 640.48C55.28 646.21 50.83 655.32 50.05 657.07C44.76 668.94 47.94 680.71 54.98 691.58C62.02 702.45 73.74 713.4 87.2 725.61C97.75 735.18 118.61 752.86 136.83 768.14C155.05 783.43 170.64 796.32 170.64 796.32C170.64 796.32 183.12 791.35 195.75 785.14C208.39 778.93 221.18 771.47 221.82 766.49C223.28 755.16 193.08 746.71 160.67 733.19C128.26 719.67 93.63 701.07 86.22 669.43C83.06 655.95 85.67 641.97 88.04 630.94C90.41 619.91 92.56 611.83 88.48 610.16L88.49 610.17Z" fill="#782521" stroke="#782521" stroke-miterlimit="10"/>
<path d="M141.51 384.46C143.76 384.68 146.7 384.6 154.73 386.91C168.19 390.77 209.43 426.26 240.34 445.88C250.27 452.18 261.94 451.57 265.72 451.74C276.75 452.23 288.92 451.1 294.52 449.46C299.07 448.13 319.51 444.63 318.95 438.81C318.06 429.55 261.25 446.09 218.29 415.42C190.44 395.53 182.86 366.12 163.47 367.93C153.61 368.85 146.24 377.33 141.5 384.47L141.51 384.46Z" fill="#782521" stroke="#782521" stroke-miterlimit="10"/>
<path d="M267.03 275.27C262.11 280.69 250.71 287.3 245.07 298.31C243.33 301.7 239.09 313.07 244.2 324.85C248.36 334.44 261.01 345.39 288.67 368.92C292.08 371.82 301.85 379.74 304.21 387.42C308.07 399.98 304.35 401.05 306.57 403.16C309.81 406.24 326.67 399.4 327.56 378.49C327.95 369.45 321.57 362.74 310.13 350.6C292.49 331.87 286.33 335.09 279.53 323.49C268.22 304.19 276.03 279.51 269.54 278.17C268.7 278 267.97 274.22 267.02 275.27H267.03Z" fill="#782521" stroke="#782521" stroke-miterlimit="10"/>
<path d="M62.24 634.14C58.22 641.38 50.69 665.54 61.17 684.4C74.67 708.71 164.4 775.6 178.82 787.49C194.34 800.29 199.85 810.26 201.06 810.88C202.74 811.74 206.51 782.35 195.69 768.31C159.63 721.53 65.87 627.59 62.24 634.13V634.14Z" fill="#81170E" stroke="#81170E" stroke-miterlimit="10"/>
<path d="M75.92 383.85C71.9 391.09 60.19 411.96 73.12 429.24C89.33 450.9 162.43 506.58 176.84 518.47C192.36 531.27 175.88 548.94 177.09 549.56C178.77 550.42 211.44 525.58 200.62 511.55C164.56 464.77 79.55 377.32 75.91 383.85H75.92Z" fill="#81170E" stroke="#81170E" stroke-miterlimit="10"/>
<path d="M268.4 451.7C265.89 451.12 260.58 450.15 256.22 447.95C245.9 442.75 238.83 437.25 235.74 434.84C193.86 402.07 175.55 386.72 164.77 384.23C152.8 381.46 147.1 383.27 139.11 384.94C131.68 386.49 133.51 367.7 138.98 362.71C145.3 356.94 157.97 363.26 200.64 383.65C254.54 409.41 270.91 416.82 272.58 431.74C273.45 439.55 271.41 447.19 268.4 451.7Z" fill="#81170E" stroke="#81170E" stroke-miterlimit="10"/>
<path d="M256.89 290C254.06 293.27 250.33 304.02 250.97 312.6C251.58 320.72 255.45 327.74 264.79 336.35C275.19 345.94 285.19 352.81 301.7 367.34C304.8 370.07 308.59 373.3 311.81 378.81C314.02 382.61 313.48 390.62 315.39 389.67C317.3 388.72 323.35 390.83 323.35 382.09C323.35 350.36 272.16 272.37 256.89 290Z" fill="#81170E" stroke="#81170E" stroke-miterlimit="10"/>
<path d="M294.69 308.63C296.55 305.19 301.03 300.48 302.3 299.2C314.07 287.34 409.95 224.53 419.63 217.97C426.64 213.22 415.23 203.38 407.99 207.51C350.87 240.1 297.83 280.51 290.89 290.21C287.7 294.67 291.99 313.61 294.69 308.63Z" fill="#DB3821" stroke="#DB3821" stroke-miterlimit="10"/>
<path d="M347.67 373.21C354.74 365.31 352.65 397.62 352.03 400.83C349.52 413.86 340.22 424.02 332.55 431.67C327.67 436.53 317.06 445.8 296.98 450.41C289.03 452.23 274.46 452.26 268.39 451.7C266.8 451.55 265.59 450.15 265.75 448.55C266.61 439.97 272.3 429.18 270.03 424.09C269.02 421.82 327.6 395.6 347.66 373.21H347.67Z" fill="#DB3821" stroke="#DB3821" stroke-miterlimit="10"/>
<path d="M143.05 367.17C143.35 368.46 142.58 376.92 142.18 382.68C142.11 383.7 141.41 384.56 140.42 384.83C137.24 385.72 125.7 391.5 122.52 393.82C116.53 398.21 113.12 402.4 111.9 407.82C110.92 412.14 101.44 401.69 100.35 395.39C98.15 382.7 112.96 368.74 127.13 365.36C130.59 364.53 141.61 361.04 143.05 367.17Z" fill="#DB3821" stroke="#DB3821" stroke-miterlimit="10"/>
<path d="M226.87 513.92C228.08 514 229.39 534.7 228.71 542.11C227.45 555.81 220.56 560.08 214.25 565.44C203.2 574.83 180.14 593.34 180.14 593.34C180.14 593.34 105.66 649.78 102.52 660.28C99.47 670.46 96.19 672.15 94.34 672.3C91.89 672.5 90.13 654.1 90.13 646.75C90.13 636.5 218.54 513.36 226.87 513.93V513.92Z" fill="#DB3821" stroke="#DB3821" stroke-miterlimit="10"/>
<path d="M271.58 269.59C270.73 270.27 257.21 281.01 256.33 296.26C256.02 301.67 257.78 308.85 263.41 316.88C269.04 324.91 281.91 334.38 293.9 344.4C305.89 354.42 316.74 364.59 317.53 372.88C318.41 382.08 311.96 393.21 302.41 400.16C292.86 407.11 280.21 409.88 268.66 402.35C259.81 396.58 244.88 383.4 228.6 370.57C212.32 357.74 194.67 345.25 180.4 340.89C175.52 339.4 164.76 336.95 151.38 337.35C137.99 337.76 121.98 341.02 106.59 350.97C102 353.94 91.69 359.81 82.56 370.6C73.19 381.67 66.26 397.81 75.72 414.61C83.18 427.87 116.25 454.03 134.07 468.55C161.04 490.51 189.58 506.94 189.62 521.22C189.65 531.02 181.94 535.39 173.88 542.58C165.41 550.13 105.32 592.24 86.11 606.39C61.72 624.35 56.77 637.1 57.85 654.36C59.68 683.63 116.92 722.92 226.27 807.11C248.95 824.57 275.76 812.2 267.8 808.1C268.54 793.57 182.06 727.73 160.74 711.64C158.17 709.7 105.08 669.96 99.62 659.97C91.33 644.82 103.61 635.19 116.52 625.3C116.52 625.3 183.46 571.78 209.91 551.49C218.97 544.14 226.7 534.46 227.66 526.5C230.44 503.48 215.68 493.04 212.37 490.35C202.57 482.38 158.21 447.75 128.89 425.19C124.94 422.63 109.97 411.67 109.02 401.66C108.38 395.53 110.33 389.79 113.53 385.37C116.73 380.95 121.19 377.86 122.71 376.56C129.36 370.86 142.13 364.46 158.29 365.86C179.27 367.67 202.31 391.14 207.98 394.95C211.19 397.1 226.16 409.51 237.45 417.96C248.22 426.46 253.19 429.62 261.21 431.88C267.74 433.72 274.48 434.4 278.52 434.59C289.73 435.1 299.54 432.4 307.41 428.97C315.28 425.54 321.2 421.37 324.65 418.95C329.42 415.6 334.55 411.05 339.29 405.73C344.03 400.41 349 394.86 350.72 386.68C352.03 380.46 352.15 377.81 351.82 372.98C350.91 359.62 335.98 345.06 328.13 338.15C320.28 331.24 298.46 313.66 296.05 311.13C293.64 308.6 291.05 305.45 290.58 301.6C290.28 299.12 290.55 296.69 291.24 294.52C291.93 292.35 293.01 290.46 294.33 289.05C306.17 276.12 427.39 197.77 427.39 197.77L413.24 191.84L417.01 169.64C417.01 169.64 288.27 256.19 271.57 269.61L271.58 269.59Z" fill="#EC822C" stroke="#EC822C" stroke-miterlimit="10"/>
<path d="M209.92 551.49C214.45 547.81 218.65 543.56 221.83 539.22C225.01 534.88 227.19 530.48 227.67 526.49C229.06 514.98 226.06 506.62 222.31 500.79C218.56 494.96 214.04 491.68 212.38 490.34C207.48 486.36 193.94 475.71 177.96 463.23C161.98 450.75 143.56 436.46 128.9 425.18C126.93 423.9 122.2 420.52 117.84 416.21C113.48 411.9 109.5 406.66 109.03 401.65C108.71 398.59 109.03 395.62 109.84 392.86C110.65 390.1 111.94 387.57 113.54 385.36C115.14 383.15 117.06 381.27 118.76 379.79C120.46 378.31 121.96 377.2 122.72 376.55C126.04 373.7 130.9 370.68 136.94 368.54C142.98 366.4 150.22 365.15 158.3 365.85C168.79 366.76 179.8 373.08 188.89 379.65C197.98 386.22 205.16 393.04 207.99 394.94C209.59 396.02 214.14 399.66 219.69 404.08C225.24 408.5 231.81 413.72 237.46 417.94C242.85 422.19 246.78 425.1 250.37 427.24C253.96 429.38 257.21 430.73 261.22 431.86C264.49 432.78 267.8 433.41 270.81 433.83C273.82 434.25 276.51 434.47 278.53 434.56C284.13 434.81 289.39 434.27 294.23 433.23C299.07 432.19 303.49 430.66 307.42 428.94C311.35 427.22 314.8 425.32 317.7 423.55C320.6 421.78 322.94 420.13 324.66 418.92C327.05 417.24 329.52 415.27 331.99 413.05C334.46 410.83 336.93 408.36 339.3 405.7C341.63 403.08 344.06 400.36 346.12 397.28C348.18 394.2 349.87 390.74 350.73 386.65C351.39 383.54 351.74 381.32 351.89 379.28C352.04 377.24 351.99 375.37 351.82 372.95C351.36 366.27 347.4 359.29 342.58 353.11C337.76 346.93 332.06 341.57 328.13 338.12C324.2 334.67 316.79 328.54 310.05 322.97C303.31 317.4 297.26 312.37 296.05 311.1C294.84 309.84 293.6 308.42 292.59 306.83C291.58 305.24 290.82 303.49 290.58 301.56C290.43 300.32 290.42 299.09 290.54 297.9C290.66 296.71 290.9 295.56 291.24 294.48C291.58 293.4 292.02 292.38 292.55 291.46C293.08 290.54 293.67 289.71 294.33 289.01C300.25 282.54 333.52 259.72 365.3 238.52C397.08 217.32 427.39 197.73 427.39 197.73L420.31 194.77L413.23 191.81L415.11 180.71L416.99 169.61C416.99 169.61 384.8 191.25 350.53 214.56C316.26 237.87 279.9 262.87 271.55 269.58C271.12 269.92 267.53 272.78 263.94 277.45C260.35 282.12 256.75 288.62 256.3 296.25C256.14 298.95 256.51 302.1 257.61 305.58C258.71 309.06 260.56 312.86 263.38 316.87C266.06 320.69 270.69 325.07 276.14 329.74C281.59 334.41 287.88 339.38 293.87 344.39C299.87 349.4 305.58 354.44 309.89 359.28C314.2 364.12 317.11 368.73 317.5 372.88C317.94 377.48 316.55 382.57 313.85 387.37C311.15 392.17 307.16 396.69 302.38 400.17C297.61 403.64 292.05 406.07 286.25 406.69C280.45 407.31 274.4 406.12 268.63 402.36C264.21 399.48 258.26 394.74 251.39 389.12C244.52 383.5 236.71 377 228.57 370.58C220.43 364.16 211.95 357.83 203.72 352.56C195.49 347.29 187.51 343.08 180.38 340.9C177.94 340.15 174.03 339.17 169.06 338.42C164.09 337.67 158.05 337.16 151.36 337.36C144.67 337.56 137.32 338.48 129.72 340.59C122.12 342.7 114.27 346 106.58 350.98C104.28 352.46 100.56 354.67 96.27 357.86C91.98 361.05 87.12 365.21 82.55 370.61C77.87 376.14 73.79 382.95 72.07 390.47C70.35 397.99 70.98 406.22 75.71 414.63C79.44 421.26 89.58 431.11 101 441.13C112.42 451.15 125.15 461.31 134.06 468.57C147.54 479.55 161.42 489.15 171.93 497.79C182.44 506.43 189.59 514.1 189.61 521.24C189.62 526.14 187.71 529.68 184.77 532.9C181.83 536.12 177.9 539.01 173.87 542.6C173.87 542.6 183.5 539.248 191.5 542.6C202.5 547.209 203 557 203 557L209.92 551.49Z" fill="white" stroke="white" stroke-miterlimit="10"/>
<path d="M321.21 250.58L396.69 198.41" stroke="#A72116" stroke-width="3" stroke-miterlimit="10"/>
<path d="M298.81 267.18C286.31 276.78 268.36 286.65 274.18 304.12C278.34 316.61 296.09 328.57 300.62 333.09" stroke="#A72116" stroke-width="3" stroke-miterlimit="10"/>
<path d="M321.46 351.78C323.08 352.9 331.73 361.19 333.68 371.66C335.39 380.8 332.06 388.39 330.86 390.58" stroke="#A72116" stroke-width="3" stroke-miterlimit="10"/>
<path d="M314.22 407.88C311.46 410.31 299.83 420.85 282.17 420.56C262.01 420.23 249.65 407.03 247.59 404.76" stroke="#A72116" stroke-width="3" stroke-miterlimit="10"/>
<path d="M227.2 388.88L197.96 366.5" stroke="#A72116" stroke-width="3" stroke-miterlimit="10"/>
<path d="M172.32 354.09C168.55 352.71 161.5 351.09 154.21 350.98C146.55 350.87 139.53 352.52 135.66 353.87" stroke="#A72116" stroke-width="3" stroke-miterlimit="10"/>
<path d="M113.47 363.84C112.6 364.46 94.59 374.02 90.86 392.28C86.88 411.76 101.84 422.09 102.77 422.94" stroke="#A72116" stroke-width="3" stroke-miterlimit="10"/>
<path d="M124.36 441.07C136.49 450.65 149.19 459.65 161.32 469.23" stroke="#A72116" stroke-width="3" stroke-miterlimit="10"/>
<path d="M184.15 486.79C184.15 486.79 214.62 505.01 211.43 521.03C207.96 538.49 174.36 560.48 174.36 560.48" stroke="#A72116" stroke-width="3" stroke-miterlimit="10"/>
<path d="M150.71 577.44C129.21 592.81 111.72 605.6 98.82 615.4C89.88 622.2 78.58 633.13 77.14 644.67C74.68 664.4 89.41 674.48 93.6 678.43" stroke="#A72116" stroke-width="3" stroke-miterlimit="10"/>
<path d="M114.55 696.05L148.73 722.54" stroke="#A72116" stroke-width="3" stroke-miterlimit="10"/>
<path d="M168.15 738.36L246.77 803.34" stroke="#A72116" stroke-width="3" stroke-miterlimit="10"/>
<path d="M174.465 549.515C175.485 550.099 177.129 550.993 177.485 552.878C177.746 554.269 177.152 555.682 176.781 556.46C176.492 557.066 174.485 559.722 172.614 560.081C170.744 560.44 170.001 559.763 169.62 559.551C169.143 559.286 168.198 558.58 167.506 557.797C166.865 557.07 166.294 555.767 166.266 555.301C166.199 554.213 166.273 552.822 167.348 551.435C168.095 550.471 169.096 549.279 170.653 548.804C172.159 548.344 173.565 549.002 174.465 549.516L174.465 549.515Z" fill="#303338"/>
<path d="M170.581 553.426C168.996 555.744 168.415 558.788 170.509 559.929C171.852 560.66 174.338 560.082 176.347 557.159C177.908 554.888 177.813 552.024 176.41 550.967C175.017 549.918 172.326 550.875 170.581 553.426Z" fill="#131414"/>
<path d="M195.953 532.384C196.427 532.596 198.484 533.755 198.795 535.111C199.106 536.467 198.519 537.809 198.192 538.555C197.936 539.137 196.145 541.677 194.459 542.007C192.772 542.338 192.144 541.775 191.764 541.556C191.327 541.304 190.435 540.712 189.803 539.952C189.217 539.247 189.137 537.722 189.197 537.277C189.339 536.228 190.021 534.975 190.68 534.141C191.383 533.25 191.987 532.604 193.02 532.237C194.362 531.761 195.448 532.158 195.953 532.384Z" fill="#303338"/>
<path d="M193.068 536.449C191.638 538.54 191.405 541.103 192.56 541.87C193.715 542.636 195.973 541.763 197.785 539.126C199.193 537.077 199.219 534.637 197.884 533.786C196.715 533.041 194.643 534.148 193.069 536.449L193.068 536.449Z" fill="#131414"/>
<path d="M174.965 563.902C175.669 565.285 176.142 566.021 176.071 566.121C175.97 566.264 175.564 566.32 175.327 566.233C174.539 565.941 173.785 565.509 173.459 565.343C171.984 564.592 168.964 563.015 168.657 562.771C168.4 562.566 168.11 562.233 168.11 562.233C167.915 561.975 167.831 561.791 167.728 561.68C167.551 561.488 166.832 561.036 166.35 560.716C165.898 560.417 165.176 559.992 164.812 559.691C164.51 559.441 164.287 559.212 164.161 558.898C164.124 558.807 163.941 558.304 164.14 558.014C164.422 557.604 165.405 557.822 166.076 558.012C168.683 558.745 173.09 560.223 174.965 563.901L174.965 563.902Z" fill="#28436B"/>
<path d="M178.554 561.24C178.797 561.499 179.713 562.675 179.594 563.103C179.518 563.38 179.116 563.619 178.043 564.57C176.783 565.687 176.253 565.989 176.07 566.12C175.853 566.277 174.835 563.994 174.971 563.829C175.05 563.735 175.325 563.785 175.534 563.672C176.482 563.157 178.462 561.143 178.553 561.24L178.554 561.24Z" fill="#172A3F"/>
<path d="M207.484 535.9C207.665 536.117 207.217 536.028 206.623 536.472C205.929 536.993 202.956 539.107 199.047 542.139C197.839 543.075 197.447 543.482 197.097 544.313C196.747 545.145 196.992 546.124 197.311 547.233C197.506 547.907 197.747 548.377 197.863 549.132C197.949 549.694 197.847 549.865 197.552 550.189C196.378 551.478 195.08 552.743 193.211 554.198C192.279 554.922 191.822 555.475 191.132 555.545C190.443 555.616 190.207 555.263 189.591 554.776C189.284 554.533 187.968 553.852 187.234 553.668C186.499 553.484 184.868 553.605 183.55 554.198C181.489 555.123 179.301 556.819 177.724 557.765C176.147 558.711 175.208 559.611 175.208 559.611C175.208 559.611 178.503 560.896 178.533 561.265C178.55 561.483 178.316 561.475 176.816 562.786C175.633 563.821 175.244 563.789 175.112 563.83C173.939 564.193 163.986 558.51 164.137 558.039C164.299 557.531 166.606 555.601 167.33 555.716C168.265 555.865 172.156 558.271 172.156 558.271C172.156 558.271 176.482 551.525 176.431 551.309C176.305 550.783 176.229 550.255 176.392 549.452C176.537 548.736 177.143 548.102 178.388 546.719C180.155 544.756 181.773 542.947 182.646 542.222C182.92 541.995 182.778 541.48 183.169 541.025C183.565 540.566 184.036 540.365 184.279 540.281C186.977 539.343 192.556 539.676 194.329 539.206C195.472 538.903 196.694 538.042 199.462 536.354C201.339 535.21 202.577 534.437 204.116 534.411C206.119 534.378 207.21 535.572 207.484 535.901L207.484 535.9Z" fill="#518ACE"/>
<path d="M207.484 535.9C207.382 535.821 205.974 536.942 204.072 538.288C200.775 540.621 198.731 542.296 197.667 543.34C197.322 543.677 197.013 544.399 196.93 545.049C196.828 545.852 197.355 547.59 197.81 548.839C197.946 549.212 197.994 549.644 197.72 549.971C195.993 552.031 193.58 553.896 191.589 555.36C191.111 555.711 190.306 555.29 190.044 555.097C188.958 554.295 188.184 554.018 187.557 553.772C186.737 553.451 185.132 553.479 183.549 554.198C181.044 555.337 179.982 556.187 177.543 557.817C176.354 558.612 175.207 559.61 175.207 559.61C175.207 559.61 177.894 560.737 178.343 561.095C178.453 561.182 179.402 561.993 179.595 563.104C179.595 563.104 180.483 563.049 180.648 562.953C183.024 561.555 187.598 563.295 191.587 560.24C193.471 558.798 194.496 557.809 196.179 556.407C197.12 555.622 198.74 554.289 198.948 553.41C199.027 553.075 199.02 552.702 198.874 551.56C198.728 550.418 198.663 549.576 198.733 549.125C198.902 548.033 199.625 547.3 201.779 545.373C204.799 542.67 206.964 541.208 207.391 539.502C207.457 539.236 207.582 538.576 207.661 537.812C207.759 536.858 207.68 536.054 207.485 535.901L207.484 535.9Z" fill="#28436B"/>
<path d="M185.54 543.433C185.734 543.594 186.358 545.162 186.441 545.333C186.479 545.409 186.723 545.593 186.943 546.283C187.164 546.972 187.332 547.399 187.459 547.592C187.761 548.051 188.129 548.285 188.154 548.351C188.197 548.458 186.742 549.345 186.269 549.63C185.621 550.02 184.34 550.717 181.808 552.614C180.239 553.79 178.671 555.301 176.943 556.593C175.69 557.53 174.095 559.043 174.095 559.043L173.323 558.647C173.323 558.647 174.186 557.19 174.887 556.09C175.388 555.305 176.289 553.98 177.918 551.43C178.987 549.757 179.623 548.86 181.332 546.91C181.332 546.91 182.864 544.882 184.642 543.608C184.831 543.472 185.269 543.208 185.54 543.433Z" fill="#28436B"/>
<path d="M201.479 542.145C201.558 542.746 201.955 543.133 202.463 543.06C202.972 542.987 203.11 542.391 203.32 541.88C203.541 541.342 202.795 540.992 202.286 541.065C201.777 541.139 201.407 541.596 201.479 542.145Z" fill="#131414"/>
<path d="M208.422 539.87C208.896 540.081 210.953 541.241 211.264 542.597C211.575 543.952 210.988 545.295 210.66 546.041C210.404 546.623 208.614 549.163 206.927 549.493C205.24 549.823 204.613 549.261 204.233 549.042C203.796 548.79 202.903 548.198 202.272 547.438C201.685 546.733 201.605 545.208 201.666 544.763C201.808 543.714 202.49 542.461 203.149 541.627C203.852 540.736 204.456 540.09 205.488 539.723C206.831 539.247 207.917 539.644 208.422 539.87Z" fill="#303338"/>
<path d="M205.537 543.935C204.106 546.025 203.873 548.589 205.028 549.355C206.183 550.122 208.441 549.249 210.254 546.611C211.662 544.562 211.688 542.122 210.352 541.271C209.183 540.526 207.112 541.633 205.538 543.935L205.537 543.935Z" fill="#131414"/>
<path d="M206.661 544.773C206.01 545.808 206.109 546.965 206.77 547.292C207.432 547.618 208.389 547.081 209.064 546.062C209.746 545.032 209.577 543.812 208.916 543.486C208.255 543.159 207.31 543.74 206.661 544.773L206.661 544.773Z" fill="#303338"/>
<path d="M188.482 556.453C189.502 557.036 191.146 557.931 191.502 559.816C191.763 561.206 191.169 562.62 190.798 563.397C190.509 564.004 188.502 566.659 186.631 567.018C184.761 567.378 184.018 566.7 183.638 566.488C183.16 566.223 182.216 565.517 181.524 564.734C180.882 564.008 180.312 562.705 180.283 562.238C180.216 561.15 180.29 559.759 181.366 558.373C182.112 557.409 183.113 556.217 184.67 555.741C186.227 555.266 187.582 555.939 188.482 556.453L188.482 556.453Z" fill="#303338"/>
<path d="M184.598 560.364C183.013 562.681 182.432 565.726 184.526 566.866C185.869 567.598 188.355 567.02 190.364 564.096C191.925 561.825 191.831 558.961 190.427 557.905C189.034 556.856 186.343 557.812 184.598 560.364Z" fill="#131414"/>
<path d="M186.092 561.617C185.371 562.764 185.087 563.919 186.265 564.529C186.992 564.904 188.251 564.344 189 563.215C189.748 562.085 189.538 560.776 188.835 560.359C187.925 559.818 186.811 560.472 186.092 561.616L186.092 561.617Z" fill="#303338"/>
<path d="M191.13 542.977C191.467 542.95 192.106 543.347 192.565 543.893C193.272 544.734 192.898 546.168 192.581 546.591C191.79 547.647 190.341 548.594 188.897 548.505C188.519 548.482 188.039 548.203 187.69 547.742C187.342 547.281 187.047 546.304 186.876 545.829C186.786 545.581 186.473 545.311 186.508 545.284C186.539 545.26 186.908 545.601 187.436 545.583C187.867 545.569 189.146 545.337 189.954 544.165C190.123 543.92 190.214 543.585 190.354 543.41C190.545 543.171 190.8 543.003 191.131 542.977L191.13 542.977Z" fill="#303338"/>
<path d="M191.052 542.865C191.054 542.848 190.521 542.663 190.136 542.578C189.693 542.48 189.223 542.414 188.596 542.616C187.707 542.902 187.179 543.459 186.993 543.676C186.7 544.018 186.477 544.378 186.518 544.753C186.554 545.072 186.796 545.339 187.072 545.443C187.575 545.63 188.655 545.272 189.218 544.807C189.661 544.44 189.943 544.016 190.026 543.826C190.118 543.616 190.227 543.396 190.36 543.231C190.586 542.953 191.049 542.884 191.051 542.865L191.052 542.865Z" fill="#28436B"/>
<path d="M185.896 541.749C185.412 541.061 184.698 540.71 184.596 540.679C184.214 540.565 183.778 540.507 183.363 540.738C182.895 541 182.696 541.65 182.755 542.131C182.835 542.798 183.103 542.968 183.651 543.369C184.06 543.668 184.325 543.845 184.746 543.895C184.861 543.909 185.505 543.985 185.925 543.517C186.356 543.036 186.194 542.381 186.162 542.267C186.1 542.043 185.999 541.895 185.896 541.749Z" fill="#303338"/>
<path d="M186.053 541.989C186.053 541.989 185.905 542.605 185.464 543.055C184.911 543.618 184.373 543.807 184.373 543.807C184.373 543.807 184.68 543.932 184.961 543.908C185.633 543.851 185.795 543.652 185.942 543.497C186.264 543.158 186.222 542.653 186.205 542.501C186.172 542.194 186.051 541.989 186.051 541.989L186.053 541.989Z" fill="#141313"/>
</g>
<defs>
<clipPath id="clip0_4493_88">
<rect width="393" height="782" fill="white"/>
</clipPath>
</defs>
</svg>
