<svg width="393" height="782" viewBox="0 0 393 782" fill="none" xmlns="http://www.w3.org/2000/svg">
<g clip-path="url(#clip0_4477_10)">
<path d="M393 0H0V782H393V0Z" fill="#A72116" stroke="#A72116" stroke-miterlimit="10"/>
<path d="M88.4902 610.17C84.9802 608.73 79.0802 612.66 73.9002 617.2C68.7202 621.74 66.2802 627.09 65.5902 628.07C63.2702 631.37 62.3202 634.75 58.8002 640.48C55.2802 646.21 50.8302 655.32 50.0502 657.07C44.7602 668.94 47.9402 680.71 54.9802 691.58C62.0202 702.45 73.7402 713.4 87.2002 725.61C97.7502 735.18 118.61 752.86 136.83 768.14C155.05 783.43 170.64 796.32 170.64 796.32C170.64 796.32 183.12 791.35 195.75 785.14C208.39 778.93 221.18 771.47 221.82 766.49C223.28 755.16 193.08 746.71 160.67 733.19C128.26 719.67 93.6302 701.07 86.2202 669.43C83.0602 655.95 85.6702 641.97 88.0402 630.94C90.4102 619.91 92.5602 611.83 88.4802 610.16L88.4902 610.17Z" fill="#782521" stroke="#782521" stroke-miterlimit="10"/>
<path d="M141.51 384.46C143.76 384.68 146.7 384.6 154.73 386.91C168.19 390.77 209.43 426.26 240.34 445.88C250.27 452.18 261.94 451.57 265.72 451.74C276.75 452.23 288.92 451.1 294.52 449.46C299.07 448.13 319.51 444.63 318.95 438.81C318.06 429.55 261.25 446.09 218.29 415.42C190.44 395.53 182.86 366.12 163.47 367.93C153.61 368.85 146.24 377.33 141.5 384.47L141.51 384.46Z" fill="#782521" stroke="#782521" stroke-miterlimit="10"/>
<path d="M267.03 275.27C262.11 280.69 250.71 287.3 245.07 298.31C243.33 301.7 239.09 313.07 244.2 324.85C248.36 334.44 261.01 345.39 288.67 368.92C292.08 371.82 301.85 379.74 304.21 387.42C308.07 399.98 304.35 401.05 306.57 403.16C309.81 406.24 326.67 399.4 327.56 378.49C327.95 369.45 321.57 362.74 310.13 350.6C292.49 331.87 286.33 335.09 279.53 323.49C268.22 304.19 276.03 279.51 269.54 278.17C268.7 278 267.97 274.22 267.02 275.27H267.03Z" fill="#782521" stroke="#782521" stroke-miterlimit="10"/>
<path d="M62.2397 634.14C58.2197 641.38 50.6896 665.54 61.1696 684.4C74.6696 708.71 164.4 775.6 178.82 787.49C194.34 800.29 199.85 810.26 201.06 810.88C202.74 811.74 206.51 782.35 195.69 768.31C159.63 721.53 65.8697 627.59 62.2397 634.13V634.14Z" fill="#81170E" stroke="#81170E" stroke-miterlimit="10"/>
<path d="M75.9196 383.85C71.8996 391.09 60.1896 411.96 73.1196 429.24C89.3296 450.9 162.43 506.58 176.84 518.47C192.36 531.27 175.88 548.94 177.09 549.56C178.77 550.42 211.44 525.58 200.62 511.55C164.56 464.77 79.5497 377.32 75.9096 383.85H75.9196Z" fill="#81170E" stroke="#81170E" stroke-miterlimit="10"/>
<path d="M268.4 451.7C265.89 451.12 260.58 450.15 256.22 447.95C245.9 442.75 238.83 437.25 235.74 434.84C193.86 402.07 175.55 386.72 164.77 384.23C152.8 381.46 147.1 383.27 139.11 384.94C131.68 386.49 133.51 367.7 138.98 362.71C145.3 356.94 157.97 363.26 200.64 383.65C254.54 409.41 270.91 416.82 272.58 431.74C273.45 439.55 271.41 447.19 268.4 451.7Z" fill="#81170E" stroke="#81170E" stroke-miterlimit="10"/>
<path d="M256.89 290C254.06 293.27 250.33 304.02 250.97 312.6C251.58 320.72 255.45 327.74 264.79 336.35C275.19 345.94 285.19 352.81 301.7 367.34C304.8 370.07 308.59 373.3 311.81 378.81C314.02 382.61 313.48 390.62 315.39 389.67C317.3 388.72 323.35 390.83 323.35 382.09C323.35 350.36 272.16 272.37 256.89 290Z" fill="#81170E" stroke="#81170E" stroke-miterlimit="10"/>
<path d="M294.69 308.63C296.55 305.19 301.03 300.48 302.3 299.2C314.07 287.34 409.95 224.53 419.63 217.97C426.64 213.22 415.23 203.38 407.99 207.51C350.87 240.1 297.83 280.51 290.89 290.21C287.7 294.67 291.99 313.61 294.69 308.63Z" fill="#DB3821" stroke="#DB3821" stroke-miterlimit="10"/>
<path d="M347.67 373.21C354.74 365.31 352.65 397.62 352.03 400.83C349.52 413.86 340.22 424.02 332.55 431.67C327.67 436.53 317.06 445.8 296.98 450.41C289.03 452.23 274.46 452.26 268.39 451.7C266.8 451.55 265.59 450.15 265.75 448.55C266.61 439.97 272.3 429.18 270.03 424.09C269.02 421.82 327.6 395.6 347.66 373.21H347.67Z" fill="#DB3821" stroke="#DB3821" stroke-miterlimit="10"/>
<path d="M143.05 367.17C143.35 368.46 142.58 376.92 142.18 382.68C142.11 383.7 141.41 384.56 140.42 384.83C137.24 385.72 125.7 391.5 122.52 393.82C116.53 398.21 113.12 402.4 111.9 407.82C110.92 412.14 101.44 401.69 100.35 395.39C98.1503 382.7 112.96 368.74 127.13 365.36C130.59 364.53 141.61 361.04 143.05 367.17Z" fill="#DB3821" stroke="#DB3821" stroke-miterlimit="10"/>
<path d="M226.87 513.92C228.08 514 229.39 534.7 228.71 542.11C227.45 555.81 220.56 560.08 214.25 565.44C203.2 574.83 180.14 593.34 180.14 593.34C180.14 593.34 105.66 649.78 102.52 660.28C99.4699 670.46 96.1899 672.15 94.3399 672.3C91.8899 672.5 90.1299 654.1 90.1299 646.75C90.1299 636.5 218.54 513.36 226.87 513.93V513.92Z" fill="#DB3821" stroke="#DB3821" stroke-miterlimit="10"/>
<path d="M271.58 269.59C270.73 270.27 257.21 281.01 256.33 296.26C256.02 301.67 257.78 308.85 263.41 316.88C268.77 324.53 281.91 334.38 293.9 344.4C305.89 354.41 316.74 364.59 317.53 372.88C318.41 382.08 311.96 393.21 302.41 400.16C292.86 407.11 280.21 409.88 268.66 402.35C259.81 396.58 244.88 383.4 228.6 370.57C212.32 357.74 194.67 345.25 180.4 340.89C175.52 339.4 164.76 336.95 151.38 337.35C137.99 337.76 121.98 341.02 106.59 350.97C102 353.94 91.6895 359.81 82.5595 370.6C73.1895 381.67 66.2595 397.81 75.7195 414.61C83.1795 427.87 116.25 454.03 134.07 468.55C161.04 490.51 189.58 506.94 189.62 521.22C189.65 531.02 181.94 535.39 173.88 542.58C165.41 550.13 105.32 592.24 86.1095 606.39C61.7195 624.35 56.7695 637.1 57.8495 654.36C59.6795 683.63 116.92 722.92 226.27 807.11C248.95 824.57 275.76 812.2 267.8 808.1C268.54 793.57 182.06 727.73 160.74 711.64C158.17 709.7 105.08 669.96 99.6195 659.97C91.3295 644.82 103.61 635.19 116.52 625.3C116.52 625.3 183.46 571.78 209.91 551.49C218.97 544.14 226.7 534.46 227.66 526.5C230.44 503.48 215.68 493.04 212.37 490.35C202.57 482.38 158.21 447.75 128.89 425.19C124.94 422.63 109.97 411.67 109.02 401.66C108.38 395.53 110.33 389.79 113.53 385.37C116.73 380.95 121.19 377.86 122.71 376.56C129.36 370.86 142.13 364.46 158.29 365.86C179.27 367.67 202.31 391.14 207.98 394.95C211.19 397.1 226.16 409.51 237.45 417.96C248.22 426.46 253.19 429.62 261.21 431.88C267.74 433.72 274.48 434.4 278.52 434.59C289.73 435.1 299.54 432.4 307.41 428.97C315.28 425.54 321.2 421.37 324.65 418.95C329.42 415.6 334.55 411.05 339.29 405.73C344.03 400.41 349 394.86 350.72 386.68C352.03 380.46 352.15 377.81 351.82 372.98C350.91 359.62 335.98 345.06 328.13 338.15C320.28 331.25 298.46 313.66 296.05 311.13C293.64 308.6 291.05 305.45 290.58 301.6C290.28 299.12 290.55 296.69 291.24 294.52C291.93 292.35 293.01 290.46 294.33 289.05C306.17 276.12 427.39 197.77 427.39 197.77L413.24 191.84L417.01 169.64C417.01 169.64 288.27 256.19 271.57 269.61L271.58 269.59Z" fill="#F9DA5E" stroke="white" stroke-miterlimit="10"/>
<path d="M158.3 365.85C163.55 366.3 168.92 368.11 174.12 370.62C179.32 373.13 184.34 376.36 188.89 379.64C193.44 382.92 197.5 386.27 200.79 389.03C204.08 391.79 206.58 393.97 208 394.93C208.8 395.47 210.34 396.65 212.37 398.25C214.4 399.85 216.93 401.87 219.7 404.08C222.47 406.29 225.51 408.7 228.55 411.09C231.59 413.48 234.64 415.83 237.47 417.95C240.16 420.07 242.49 421.86 244.6 423.39C246.71 424.92 248.59 426.18 250.38 427.25C252.17 428.32 253.89 429.19 255.65 429.94C257.41 430.69 259.23 431.31 261.23 431.87C262.86 432.33 264.51 432.72 266.12 433.04C267.73 433.36 269.31 433.63 270.82 433.84C272.33 434.05 273.75 434.21 275.05 434.33C276.35 434.45 277.53 434.53 278.54 434.57C281.34 434.7 284.06 434.62 286.68 434.39C289.3 434.16 291.82 433.76 294.24 433.24C296.66 432.72 298.97 432.08 301.17 431.35C303.37 430.62 305.46 429.81 307.43 428.95C309.4 428.09 311.24 427.19 312.96 426.28C314.68 425.37 316.26 424.45 317.71 423.56C319.16 422.67 320.47 421.82 321.63 421.03C322.79 420.24 323.81 419.53 324.67 418.93C325.86 418.09 327.08 417.18 328.3 416.2C329.52 415.22 330.76 414.17 332 413.06C333.24 411.95 334.47 410.78 335.69 409.55C336.91 408.32 338.12 407.04 339.31 405.71C340.5 404.38 341.67 403.07 342.82 401.67C343.97 400.27 345.1 398.83 346.13 397.28C347.16 395.73 348.1 394.1 348.89 392.34C349.68 390.58 350.32 388.69 350.75 386.65C351.08 385.09 351.33 383.76 351.52 382.56C351.71 381.36 351.84 380.3 351.91 379.27C351.98 378.24 352.01 377.27 352 376.25C351.99 375.23 351.93 374.16 351.85 372.95C351.62 369.61 350.52 366.19 348.87 362.84C347.22 359.49 345.02 356.2 342.61 353.11C340.2 350.02 337.57 347.14 335.05 344.59C332.53 342.04 330.13 339.84 328.16 338.11C326.19 336.38 323.36 333.99 320.17 331.33C316.98 328.67 313.44 325.75 310.08 322.96C306.72 320.17 303.51 317.52 301.01 315.41C298.51 313.3 296.69 311.73 296.08 311.09C295.47 310.45 294.86 309.79 294.27 309.08C293.68 308.37 293.12 307.62 292.61 306.82C292.1 306.02 291.66 305.19 291.32 304.32C290.98 303.45 290.72 302.52 290.61 301.56C290.53 300.94 290.5 300.32 290.49 299.71C290.48 299.1 290.51 298.5 290.57 297.9C290.63 297.3 290.72 296.72 290.83 296.15C290.94 295.58 291.09 295.02 291.26 294.48C291.43 293.94 291.63 293.41 291.85 292.91C292.07 292.41 292.31 291.92 292.57 291.46C292.83 291 293.11 290.56 293.41 290.15C293.71 289.74 294.02 289.36 294.35 289C297.31 285.77 307.11 278.45 320.14 269.28C333.17 260.12 349.43 249.11 365.33 238.51C381.23 227.91 396.75 217.71 408.29 210.16C419.84 202.61 427.42 197.72 427.42 197.72L423.88 196.24L420.34 194.76L416.8 193.28L413.26 191.8L414.2 186.25L415.14 180.7L416.08 175.15L417.02 169.6C417.02 169.6 408.97 175.01 396.64 183.33C384.31 191.65 367.69 202.89 350.56 214.55C333.43 226.21 315.76 238.29 301.35 248.29C286.94 258.29 275.75 266.22 271.58 269.57C271.37 269.74 270.36 270.54 268.96 271.88C267.56 273.22 265.76 275.1 263.97 277.44C262.18 279.78 260.37 282.57 258.97 285.73C257.57 288.89 256.56 292.42 256.34 296.24C256.26 297.59 256.31 299.05 256.52 300.61C256.73 302.17 257.1 303.83 257.65 305.56C258.2 307.29 258.94 309.12 259.89 311C260.84 312.88 262.01 314.84 263.41 316.85C264.81 318.86 266.58 320.81 268.75 322.97C270.92 325.13 273.44 327.39 276.17 329.72C278.9 332.05 281.83 334.47 284.83 336.92C287.83 339.37 290.9 341.87 293.9 344.37C296.9 346.87 299.83 349.39 302.54 351.88C305.25 354.37 307.76 356.84 309.92 359.26C312.08 361.68 313.88 364.04 315.2 366.31C316.52 368.58 317.34 370.78 317.54 372.85C317.76 375.15 317.52 377.57 316.89 380.02C316.26 382.47 315.24 384.94 313.89 387.34C312.54 389.74 310.87 392.07 308.94 394.24C307.01 396.41 304.81 398.4 302.43 400.14C300.05 401.88 297.46 403.35 294.75 404.47C292.04 405.59 289.2 406.35 286.3 406.66C283.4 406.97 280.44 406.83 277.48 406.14C274.52 405.45 271.57 404.21 268.68 402.33C266.47 400.89 263.88 398.98 260.98 396.74C258.08 394.5 254.88 391.9 251.44 389.09C248 386.28 244.33 383.25 240.51 380.12C236.69 376.99 232.7 373.76 228.62 370.55C224.54 367.34 220.39 364.16 216.23 361.11C212.07 358.06 207.89 355.17 203.77 352.53C199.65 349.89 195.6 347.52 191.69 345.54C187.78 343.56 184 341.96 180.43 340.87C179.21 340.5 177.62 340.06 175.72 339.63C173.82 339.2 171.6 338.76 169.11 338.39C166.62 338.02 163.87 337.7 160.9 337.5C157.93 337.3 154.75 337.23 151.4 337.33C151.4 337.33 146.56 343.37 148.39 353.06C149.82 360.63 158.31 365.83 158.31 365.83L158.3 365.85Z" fill="white" stroke="#F9DA5E" stroke-miterlimit="10"/>
<path d="M321.21 250.58L396.69 198.41" stroke="#A72116" stroke-width="3" stroke-miterlimit="10"/>
<path d="M298.81 267.18C286.31 276.78 268.36 286.65 274.18 304.12C278.34 316.61 296.09 328.57 300.62 333.09" stroke="#A72116" stroke-width="3" stroke-miterlimit="10"/>
<path d="M321.46 351.78C323.08 352.9 331.73 361.19 333.68 371.66C335.39 380.8 332.06 388.39 330.86 390.58" stroke="#A72116" stroke-width="3" stroke-miterlimit="10"/>
<path d="M314.22 407.88C311.46 410.31 299.83 420.85 282.17 420.56C262.01 420.23 249.65 407.03 247.59 404.76" stroke="#A72116" stroke-width="3" stroke-miterlimit="10"/>
<path d="M227.2 388.88L197.96 366.5" stroke="#A72116" stroke-width="3" stroke-miterlimit="10"/>
<path d="M172.32 354.09C168.55 352.71 161.5 351.09 154.21 350.98C146.55 350.87 139.53 352.52 135.66 353.87" stroke="#A72116" stroke-width="3" stroke-miterlimit="10"/>
<path d="M113.47 363.84C112.6 364.46 94.5905 374.02 90.8605 392.28C86.8805 411.76 101.84 422.09 102.77 422.94" stroke="#A72116" stroke-width="3" stroke-miterlimit="10"/>
<path d="M124.36 441.07C136.49 450.65 149.19 459.65 161.32 469.23" stroke="#A72116" stroke-width="3" stroke-miterlimit="10"/>
<path d="M184.15 486.79C184.15 486.79 214.62 505.01 211.43 521.03C207.96 538.49 174.36 560.48 174.36 560.48" stroke="#A72116" stroke-width="3" stroke-miterlimit="10"/>
<path d="M150.71 577.44C129.21 592.81 111.72 605.6 98.8204 615.4C89.8804 622.2 78.5804 633.13 77.1404 644.67C74.6804 664.4 89.4104 674.48 93.6004 678.43" stroke="#A72116" stroke-width="3" stroke-miterlimit="10"/>
<path d="M114.55 696.05L148.73 722.54" stroke="#A72116" stroke-width="3" stroke-miterlimit="10"/>
<path d="M168.15 738.36L246.77 803.34" stroke="#A72116" stroke-width="3" stroke-miterlimit="10"/>
</g>
<defs>
<clipPath id="clip0_4477_10">
<rect width="393" height="782" fill="white"/>
</clipPath>
</defs>
</svg>
