<svg width="393" height="782" viewBox="0 0 393 782" fill="none" xmlns="http://www.w3.org/2000/svg">
<g clip-path="url(#clip0_4477_119)">
<path d="M393 0H0V782H393V0Z" fill="#A72116" stroke="#A72116" stroke-miterlimit="10"/>
<path d="M88.4902 610.17C84.9802 608.73 79.0802 612.66 73.9002 617.2C68.7102 621.73 66.2802 627.09 65.5902 628.07C63.2702 631.37 62.3202 634.75 58.8002 640.48C55.2802 646.21 50.8302 655.32 50.0502 657.07C44.7602 668.94 47.9402 680.71 54.9802 691.58C62.0202 702.45 73.7402 713.4 87.2002 725.61C97.7502 735.18 118.61 752.86 136.83 768.14C155.05 783.43 170.64 796.32 170.64 796.32C170.64 796.32 183.12 791.35 195.75 785.14C208.39 778.93 221.18 771.47 221.82 766.49C223.28 755.16 193.08 746.71 160.67 733.19C128.26 719.67 93.6302 701.07 86.2202 669.43C83.0602 655.95 85.6702 641.97 88.0402 630.94C90.4102 619.91 92.5602 611.83 88.4802 610.16L88.4902 610.17Z" fill="#782521" stroke="#782521" stroke-miterlimit="10"/>
<path d="M141.51 384.46C143.76 384.68 146.7 384.6 154.73 386.91C168.19 390.77 209.43 426.26 240.34 445.88C250.27 452.18 261.94 451.57 265.72 451.74C276.75 452.23 288.92 451.1 294.52 449.46C299.07 448.13 319.51 444.63 318.95 438.81C318.06 429.55 261.25 446.09 218.29 415.42C190.44 395.53 182.86 366.12 163.47 367.93C153.61 368.85 146.24 377.33 141.5 384.47L141.51 384.46Z" fill="#782521" stroke="#782521" stroke-miterlimit="10"/>
<path d="M267.03 275.27C262.11 280.69 250.71 287.3 245.07 298.31C243.33 301.7 239.09 313.07 244.2 324.85C248.36 334.44 261.01 345.39 288.67 368.92C292.08 371.82 301.85 379.74 304.21 387.42C308.07 399.98 304.35 401.05 306.57 403.16C309.81 406.24 326.67 399.4 327.56 378.49C327.95 369.45 321.57 362.74 310.13 350.6C292.49 331.87 286.33 335.09 279.53 323.49C268.22 304.19 276.03 279.51 269.54 278.17C268.7 278 267.97 274.22 267.02 275.27H267.03Z" fill="#782521" stroke="#782521" stroke-miterlimit="10"/>
<path d="M62.2397 634.14C58.2197 641.38 50.6896 665.54 61.1696 684.4C74.6696 708.71 164.4 775.6 178.82 787.49C194.34 800.29 199.85 810.26 201.06 810.88C202.74 811.74 206.51 782.35 195.69 768.31C159.63 721.53 65.8697 627.59 62.2397 634.13V634.14Z" fill="#81170E" stroke="#81170E" stroke-miterlimit="10"/>
<path d="M75.9196 383.85C71.8996 391.09 60.1896 411.96 73.1196 429.24C89.3296 450.9 162.43 506.58 176.84 518.47C192.36 531.27 175.88 548.94 177.09 549.56C178.77 550.42 211.44 525.58 200.62 511.55C164.56 464.77 79.5497 377.32 75.9096 383.85H75.9196Z" fill="#81170E" stroke="#81170E" stroke-miterlimit="10"/>
<path d="M268.4 451.7C265.89 451.12 260.58 450.15 256.22 447.95C245.9 442.75 238.83 437.25 235.74 434.84C193.86 402.07 175.55 386.72 164.77 384.23C152.8 381.46 147.1 383.27 139.11 384.94C131.68 386.49 133.51 367.7 138.98 362.71C145.3 356.94 157.97 363.26 200.64 383.65C254.54 409.41 270.91 416.82 272.58 431.74C273.45 439.55 271.41 447.19 268.4 451.7Z" fill="#81170E" stroke="#81170E" stroke-miterlimit="10"/>
<path d="M256.89 290C254.06 293.27 250.33 304.02 250.97 312.6C251.58 320.72 255.45 327.74 264.79 336.35C275.19 345.94 285.19 352.81 301.7 367.34C304.8 370.07 308.59 373.3 311.81 378.81C314.02 382.61 313.48 390.62 315.39 389.67C317.3 388.72 323.35 390.83 323.35 382.09C323.35 350.36 272.16 272.37 256.89 290Z" fill="#81170E" stroke="#81170E" stroke-miterlimit="10"/>
<path d="M294.69 308.63C296.55 305.19 301.03 300.48 302.3 299.2C314.07 287.34 409.95 224.53 419.63 217.97C426.64 213.22 415.23 203.38 407.99 207.51C350.87 240.1 297.83 280.51 290.89 290.21C287.7 294.67 291.99 313.61 294.69 308.63Z" fill="#DB3821" stroke="#DB3821" stroke-miterlimit="10"/>
<path d="M347.67 373.21C354.74 365.31 352.65 397.62 352.03 400.83C349.52 413.86 340.22 424.02 332.55 431.67C327.67 436.53 317.06 445.8 296.98 450.41C289.03 452.23 274.46 452.26 268.39 451.7C266.8 451.55 265.59 450.15 265.75 448.55C266.61 439.97 272.3 429.18 270.03 424.09C269.02 421.82 327.6 395.6 347.66 373.21H347.67Z" fill="#DB3821" stroke="#DB3821" stroke-miterlimit="10"/>
<path d="M143.05 367.17C143.35 368.46 142.58 376.92 142.18 382.68C142.11 383.7 141.41 384.56 140.42 384.83C137.24 385.72 125.7 391.5 122.52 393.82C116.53 398.21 113.12 402.4 111.9 407.82C110.92 412.14 101.44 401.69 100.35 395.39C98.1503 382.7 112.96 368.74 127.13 365.36C130.59 364.53 141.61 361.04 143.05 367.17Z" fill="#DB3821" stroke="#DB3821" stroke-miterlimit="10"/>
<path d="M226.87 513.92C228.08 514 229.39 534.7 228.71 542.11C227.45 555.81 220.56 560.08 214.25 565.44C203.2 574.83 180.14 593.34 180.14 593.34C180.14 593.34 105.66 649.78 102.52 660.28C99.3799 670.78 96.1899 672.15 94.3399 672.3C91.8899 672.5 90.1299 654.1 90.1299 646.75C90.1299 636.5 218.54 513.36 226.87 513.93V513.92Z" fill="#DB3821" stroke="#DB3821" stroke-miterlimit="10"/>
<path d="M271.58 269.59C270.73 270.27 257.21 281.01 256.33 296.26C256.02 301.67 257.78 308.85 263.41 316.88C268.77 324.53 281.91 334.38 293.9 344.4C305.89 354.41 316.74 364.59 317.53 372.88C318.41 382.08 311.96 393.21 302.41 400.16C292.86 407.11 280.21 409.88 268.66 402.35C259.81 396.58 244.88 383.4 228.6 370.57C212.32 357.74 194.67 345.25 180.4 340.89C175.52 339.4 164.76 336.95 151.38 337.35C137.99 337.76 121.98 341.02 106.59 350.97C102 353.94 91.6895 359.81 82.5595 370.6C73.1895 381.67 66.2595 397.81 75.7195 414.61C83.1795 427.87 116.25 454.03 134.07 468.55C161.04 490.51 189.58 506.94 189.62 521.22C189.65 531.02 181.94 535.39 173.88 542.58C165.41 550.13 105.32 592.24 86.1095 606.39C61.7195 624.35 56.7695 637.1 57.8495 654.36C59.6795 683.63 116.92 722.92 226.27 807.11C248.95 824.57 275.76 812.2 267.8 808.1C268.54 793.57 182.06 727.73 160.74 711.64C158.17 709.7 105.08 669.96 99.6195 659.97C91.3295 644.82 103.61 635.19 116.52 625.3C116.52 625.3 183.46 571.78 209.91 551.49C218.97 544.14 226.7 534.46 227.66 526.5C230.44 503.48 215.68 493.04 212.37 490.35C202.57 482.38 158.21 447.75 128.89 425.19C124.94 422.63 109.97 411.67 109.02 401.66C108.38 395.53 110.33 389.79 113.53 385.37C116.73 380.95 121.19 377.86 122.71 376.56C129.36 370.86 142.13 364.46 158.29 365.86C179.27 367.67 202.31 391.14 207.98 394.95C211.19 397.1 226.16 409.51 237.45 417.96C248.22 426.46 253.19 429.62 261.21 431.88C267.74 433.72 274.48 434.4 278.52 434.59C289.73 435.1 299.54 432.4 307.41 428.97C315.28 425.54 321.2 421.37 324.65 418.95C329.42 415.6 334.55 411.05 339.29 405.73C343.96 400.5 349 394.86 350.72 386.68C352.03 380.46 352.15 377.81 351.82 372.98C350.91 359.62 335.98 345.06 328.13 338.15C320.28 331.24 298.46 313.66 296.05 311.13C293.64 308.6 291.05 305.45 290.58 301.6C290.28 299.12 290.55 296.69 291.24 294.52C291.93 292.35 293.01 290.46 294.33 289.05C306.17 276.12 427.39 197.77 427.39 197.77L413.24 191.84L417.01 169.64C417.01 169.64 288.27 256.19 271.57 269.61L271.58 269.59Z" fill="#F47F7F" stroke="#F47F7F" stroke-miterlimit="10"/>
<path d="M321.21 250.58L396.69 198.41" stroke="#A72116" stroke-width="3" stroke-miterlimit="10"/>
<path d="M298.81 267.18C286.31 276.78 268.36 286.65 274.18 304.12C278.34 316.61 296.09 328.57 300.62 333.09" stroke="#A72116" stroke-width="3" stroke-miterlimit="10"/>
<path d="M321.46 351.78C323.08 352.9 331.73 361.19 333.68 371.66C335.39 380.8 332.06 388.39 330.86 390.58" stroke="#A72116" stroke-width="3" stroke-miterlimit="10"/>
<path d="M314.22 407.88C311.46 410.31 299.83 420.85 282.17 420.56C262.01 420.23 249.65 407.03 247.59 404.76" stroke="#A72116" stroke-width="3" stroke-miterlimit="10"/>
<path d="M227.2 388.88L197.96 366.5" stroke="#A72116" stroke-width="3" stroke-miterlimit="10"/>
<path d="M172.32 354.09C168.55 352.71 161.5 351.09 154.21 350.98C146.55 350.87 139.53 352.52 135.66 353.87" stroke="#A72116" stroke-width="3" stroke-miterlimit="10"/>
<path d="M113.47 363.84C112.6 364.46 94.5905 374.02 90.8605 392.28C86.8805 411.76 101.84 422.09 102.77 422.94" stroke="#A72116" stroke-width="3" stroke-miterlimit="10"/>
<path d="M124.36 441.07C136.49 450.65 149.19 459.65 161.32 469.23" stroke="#A72116" stroke-width="3" stroke-miterlimit="10"/>
<path d="M184.15 486.79C184.15 486.79 214.62 505.01 211.43 521.03C207.96 538.49 174.36 560.48 174.36 560.48" stroke="#A72116" stroke-width="3" stroke-miterlimit="10"/>
<path d="M150.71 577.44C129.21 592.81 111.72 605.6 98.8204 615.4C89.8804 622.2 78.5804 633.13 77.1404 644.67C74.6804 664.4 89.4104 674.48 93.6004 678.43" stroke="#A72116" stroke-width="3" stroke-miterlimit="10"/>
<path d="M114.55 696.05L148.73 722.54" stroke="#A72116" stroke-width="3" stroke-miterlimit="10"/>
<path d="M168.15 738.36L246.77 803.34" stroke="#A72116" stroke-width="3" stroke-miterlimit="10"/>
</g>
<defs>
<clipPath id="clip0_4477_119">
<rect width="393" height="782" fill="white"/>
</clipPath>
</defs>
</svg>
