<svg width="393" height="782" viewBox="0 0 393 782" fill="none" xmlns="http://www.w3.org/2000/svg">
<g clip-path="url(#clip0_4493_61)">
<path d="M393 0H0V782H393V0Z" fill="#A72116" stroke="#A72116" stroke-miterlimit="10"/>
<path d="M88.49 610.17C84.98 608.73 79.08 612.66 73.9 617.2C68.72 621.74 66.28 627.09 65.59 628.07C63.27 631.37 62.32 634.75 58.8 640.48C55.28 646.21 50.83 655.32 50.05 657.07C44.76 668.94 47.94 680.71 54.98 691.58C62.02 702.45 73.74 713.4 87.2 725.61C97.75 735.18 118.61 752.86 136.83 768.14C155.05 783.43 170.64 796.32 170.64 796.32C170.64 796.32 183.12 791.35 195.75 785.14C208.39 778.93 221.18 771.47 221.82 766.49C223.28 755.16 193.08 746.71 160.67 733.19C128.26 719.67 93.63 701.07 86.22 669.43C83.06 655.95 85.67 641.97 88.04 630.94C90.41 619.91 92.56 611.83 88.48 610.16L88.49 610.17Z" fill="#782521" stroke="#782521" stroke-miterlimit="10"/>
<path d="M141.51 384.46C143.76 384.68 146.7 384.6 154.73 386.91C168.19 390.77 209.43 426.26 240.34 445.88C250.27 452.18 261.94 451.57 265.72 451.74C276.75 452.23 288.92 451.1 294.52 449.46C299.07 448.13 319.51 444.63 318.95 438.81C318.06 429.55 261.25 446.09 218.29 415.42C190.44 395.53 182.86 366.12 163.47 367.93C153.61 368.85 146.24 377.33 141.5 384.47L141.51 384.46Z" fill="#782521" stroke="#782521" stroke-miterlimit="10"/>
<path d="M267.03 275.27C262.11 280.69 250.71 287.3 245.07 298.31C243.33 301.7 239.09 313.07 244.2 324.85C248.36 334.44 261.01 345.39 288.67 368.92C292.08 371.82 301.85 379.74 304.21 387.42C308.07 399.98 304.35 401.05 306.57 403.16C309.81 406.24 326.67 399.4 327.56 378.49C327.95 369.45 321.57 362.74 310.13 350.6C292.49 331.87 286.33 335.09 279.53 323.49C268.22 304.19 276.03 279.51 269.54 278.17C268.7 278 267.97 274.22 267.02 275.27H267.03Z" fill="#782521" stroke="#782521" stroke-miterlimit="10"/>
<path d="M62.24 634.14C58.22 641.38 50.69 665.54 61.17 684.4C74.67 708.71 164.4 775.6 178.82 787.49C194.34 800.29 199.85 810.26 201.06 810.88C202.74 811.74 206.51 782.35 195.69 768.31C159.63 721.53 65.87 627.59 62.24 634.13V634.14Z" fill="#81170E" stroke="#81170E" stroke-miterlimit="10"/>
<path d="M75.92 383.85C71.9 391.09 60.19 411.96 73.12 429.24C89.33 450.9 162.43 506.58 176.84 518.47C192.36 531.27 175.88 548.94 177.09 549.56C178.77 550.42 211.44 525.58 200.62 511.55C164.56 464.77 79.55 377.32 75.91 383.85H75.92Z" fill="#81170E" stroke="#81170E" stroke-miterlimit="10"/>
<path d="M268.4 451.7C265.89 451.12 260.58 450.15 256.22 447.95C245.9 442.75 238.83 437.25 235.74 434.84C193.86 402.07 175.55 386.72 164.77 384.23C152.8 381.46 147.1 383.27 139.11 384.94C131.68 386.49 133.51 367.7 138.98 362.71C145.3 356.94 157.97 363.26 200.64 383.65C254.54 409.41 270.91 416.82 272.58 431.74C273.45 439.55 271.41 447.19 268.4 451.7Z" fill="#81170E" stroke="#81170E" stroke-miterlimit="10"/>
<path d="M256.89 290C254.06 293.27 250.33 304.02 250.97 312.6C251.58 320.72 255.45 327.74 264.79 336.35C275.19 345.94 285.19 352.81 301.7 367.34C304.8 370.07 308.59 373.3 311.81 378.81C314.02 382.61 313.48 390.62 315.39 389.67C317.3 388.72 323.35 390.83 323.35 382.09C323.35 350.36 272.16 272.37 256.89 290Z" fill="#81170E" stroke="#81170E" stroke-miterlimit="10"/>
<path d="M294.69 308.63C296.55 305.19 301.03 300.48 302.3 299.2C314.07 287.34 409.95 224.53 419.63 217.97C426.64 213.22 415.23 203.38 407.99 207.51C350.87 240.1 297.83 280.51 290.89 290.21C287.7 294.67 291.99 313.61 294.69 308.63Z" fill="#DB3821" stroke="#DB3821" stroke-miterlimit="10"/>
<path d="M347.67 373.21C354.74 365.31 352.65 397.62 352.03 400.83C349.52 413.86 340.22 424.02 332.55 431.67C327.67 436.53 317.06 445.8 296.98 450.41C289.03 452.23 274.46 452.26 268.39 451.7C266.8 451.55 265.59 450.15 265.75 448.55C266.61 439.97 272.3 429.18 270.03 424.09C269.02 421.82 327.6 395.6 347.66 373.21H347.67Z" fill="#DB3821" stroke="#DB3821" stroke-miterlimit="10"/>
<path d="M143.05 367.17C143.35 368.46 142.58 376.92 142.18 382.68C142.11 383.7 141.41 384.56 140.42 384.83C137.24 385.72 125.7 391.5 122.52 393.82C116.53 398.21 113.12 402.4 111.9 407.82C110.92 412.14 101.44 401.69 100.35 395.39C98.15 382.7 112.96 368.74 127.13 365.36C130.59 364.53 141.61 361.04 143.05 367.17Z" fill="#DB3821" stroke="#DB3821" stroke-miterlimit="10"/>
<path d="M226.87 513.92C228.08 514 229.39 534.7 228.71 542.11C227.45 555.81 220.56 560.08 214.25 565.44C203.2 574.83 180.14 593.34 180.14 593.34C180.14 593.34 105.66 649.78 102.52 660.28C99.47 670.46 96.19 672.15 94.34 672.3C91.89 672.5 90.13 654.1 90.13 646.75C90.13 636.5 218.54 513.36 226.87 513.93V513.92Z" fill="#DB3821" stroke="#DB3821" stroke-miterlimit="10"/>
<path d="M271.58 269.59C270.73 270.27 257.21 281.01 256.33 296.26C256.02 301.67 257.78 308.85 263.41 316.88C268.77 324.53 281.91 334.38 293.9 344.4C305.89 354.41 316.74 364.59 317.53 372.88C318.41 382.08 311.96 393.21 302.41 400.16C292.86 407.11 280.21 409.88 268.66 402.35C259.81 396.58 244.88 383.4 228.6 370.57C212.32 357.74 194.67 345.25 180.4 340.89C175.52 339.4 164.76 336.95 151.38 337.35C137.99 337.76 121.98 341.02 106.59 350.97C102 353.94 91.69 359.81 82.56 370.6C73.19 381.67 66.26 397.81 75.72 414.61C83.18 427.87 116.25 454.03 134.07 468.55C161.04 490.51 189.58 506.94 189.62 521.22C189.65 531.02 181.94 535.39 173.88 542.58C165.41 550.13 105.32 592.24 86.11 606.39C61.72 624.35 56.77 637.1 57.85 654.36C59.68 683.63 116.92 722.92 226.27 807.11C248.95 824.57 275.76 812.2 267.8 808.1C268.54 793.57 182.06 727.73 160.74 711.64C158.17 709.7 105.08 669.96 99.62 659.97C91.33 644.82 103.61 635.19 116.52 625.3C116.52 625.3 183.46 571.78 209.91 551.49C218.97 544.14 226.7 534.46 227.66 526.5C230.44 503.48 215.68 493.04 212.37 490.35C202.57 482.38 158.21 447.75 128.89 425.19C124.94 422.63 109.97 411.67 109.02 401.66C108.38 395.53 110.33 389.79 113.53 385.37C116.73 380.95 121.19 377.86 122.71 376.56C129.36 370.86 142.13 364.46 158.29 365.86C179.27 367.67 202.31 391.14 207.98 394.95C211.19 397.1 226.16 409.51 237.45 417.96C248.22 426.46 253.19 429.62 261.21 431.88C267.74 433.72 274.48 434.4 278.52 434.59C289.73 435.1 299.54 432.4 307.41 428.97C315.28 425.54 321.2 421.37 324.65 418.95C329.42 415.6 334.55 411.05 339.29 405.73C344.03 400.41 349 394.86 350.72 386.68C352.03 380.46 352.15 377.81 351.82 372.98C350.91 359.62 335.98 345.06 328.13 338.15C320.28 331.25 298.46 313.66 296.05 311.13C293.64 308.6 291.05 305.45 290.58 301.6C290.28 299.12 290.55 296.69 291.24 294.52C291.93 292.35 293.01 290.46 294.33 289.05C306.17 276.12 427.39 197.77 427.39 197.77L413.24 191.84L417.01 169.64C417.01 169.64 288.27 256.19 271.57 269.61L271.58 269.59Z" fill="#F9DA5E" stroke="#F9DA5E" stroke-miterlimit="10"/>
<path d="M158.3 365.85C163.55 366.3 168.92 368.11 174.12 370.62C179.32 373.13 184.34 376.36 188.89 379.64C193.44 382.92 197.5 386.27 200.79 389.03C204.08 391.79 206.58 393.97 208 394.93C208.8 395.47 210.34 396.65 212.37 398.25C214.4 399.85 216.93 401.87 219.7 404.08C222.47 406.29 225.51 408.7 228.55 411.09C231.59 413.48 234.64 415.83 237.47 417.95C240.16 420.07 242.49 421.86 244.6 423.39C246.71 424.92 248.59 426.18 250.38 427.25C252.17 428.32 253.89 429.19 255.65 429.94C257.41 430.69 259.23 431.31 261.23 431.87C262.86 432.33 264.51 432.72 266.12 433.04C267.73 433.36 269.31 433.63 270.82 433.84C272.33 434.05 273.75 434.21 275.05 434.33C276.35 434.45 277.53 434.53 278.54 434.57C281.34 434.7 284.06 434.62 286.68 434.39C289.3 434.16 291.82 433.76 294.24 433.24C296.66 432.72 298.97 432.08 301.17 431.35C303.37 430.62 305.46 429.81 307.43 428.95C309.4 428.09 311.24 427.19 312.96 426.28C314.68 425.37 316.26 424.45 317.71 423.56C319.16 422.67 320.47 421.82 321.63 421.03C322.79 420.24 323.81 419.53 324.67 418.93C325.86 418.09 327.08 417.18 328.3 416.2C329.52 415.22 330.76 414.17 332 413.06C333.24 411.95 334.47 410.78 335.69 409.55C336.91 408.32 338.12 407.04 339.31 405.71C340.5 404.38 341.67 403.07 342.82 401.67C343.97 400.27 345.1 398.83 346.13 397.28C347.16 395.73 348.1 394.1 348.89 392.34C349.68 390.58 350.32 388.69 350.75 386.65C351.08 385.09 351.33 383.76 351.52 382.56C351.71 381.36 351.84 380.3 351.91 379.27C351.98 378.24 352.01 377.27 352 376.25C351.99 375.23 351.93 374.16 351.85 372.95C351.62 369.61 350.52 366.19 348.87 362.84C347.22 359.49 345.02 356.2 342.61 353.11C340.2 350.02 337.57 347.14 335.05 344.59C332.53 342.04 330.13 339.84 328.16 338.11C326.19 336.38 323.36 333.99 320.17 331.33C316.98 328.67 313.44 325.75 310.08 322.96C306.72 320.17 303.51 317.52 301.01 315.41C298.51 313.3 296.69 311.73 296.08 311.09C295.47 310.45 294.86 309.79 294.27 309.08C293.68 308.37 293.12 307.62 292.61 306.82C292.1 306.02 291.66 305.19 291.32 304.32C290.98 303.45 290.72 302.52 290.61 301.56C290.53 300.94 290.5 300.32 290.49 299.71C290.48 299.1 290.51 298.5 290.57 297.9C290.63 297.3 290.72 296.72 290.83 296.15C290.94 295.58 291.09 295.02 291.26 294.48C291.43 293.94 291.63 293.41 291.85 292.91C292.07 292.41 292.31 291.92 292.57 291.46C292.83 291 293.11 290.56 293.41 290.15C293.71 289.74 294.02 289.36 294.35 289C297.31 285.77 307.11 278.45 320.14 269.28C333.17 260.12 349.43 249.11 365.33 238.51C381.23 227.91 396.75 217.71 408.29 210.16C419.84 202.61 427.42 197.72 427.42 197.72L423.88 196.24L420.34 194.76L416.8 193.28L413.26 191.8L414.2 186.25L415.14 180.7L416.08 175.15L417.02 169.6C417.02 169.6 408.97 175.01 396.64 183.33C384.31 191.65 367.69 202.89 350.56 214.55C333.43 226.21 315.76 238.29 301.35 248.29C286.94 258.29 275.75 266.22 271.58 269.57C271.37 269.74 270.36 270.54 268.96 271.88C267.56 273.22 265.76 275.1 263.97 277.44C262.18 279.78 260.37 282.57 258.97 285.73C257.57 288.89 256.56 292.42 256.34 296.24C256.26 297.59 256.31 299.05 256.52 300.61C256.73 302.17 257.1 303.83 257.65 305.56C258.2 307.29 258.94 309.12 259.89 311C260.84 312.88 262.01 314.84 263.41 316.85C264.81 318.86 266.58 320.81 268.75 322.97C270.92 325.13 273.44 327.39 276.17 329.72C278.9 332.05 281.83 334.47 284.83 336.92C287.83 339.37 290.9 341.87 293.9 344.37C296.9 346.87 299.83 349.39 302.54 351.88C305.25 354.37 307.76 356.84 309.92 359.26C312.08 361.68 313.88 364.04 315.2 366.31C316.52 368.58 317.34 370.78 317.54 372.85C317.76 375.15 317.52 377.57 316.89 380.02C316.26 382.47 315.24 384.94 313.89 387.34C312.54 389.74 310.87 392.07 308.94 394.24C307.01 396.41 304.81 398.4 302.43 400.14C300.05 401.88 297.46 403.35 294.75 404.47C292.04 405.59 289.2 406.35 286.3 406.66C283.4 406.97 280.44 406.83 277.48 406.14C274.52 405.45 271.57 404.21 268.68 402.33C266.47 400.89 263.88 398.98 260.98 396.74C258.08 394.5 254.88 391.9 251.44 389.09C248 386.28 244.33 383.25 240.51 380.12C236.69 376.99 232.7 373.76 228.62 370.55C224.54 367.34 220.39 364.16 216.23 361.11C212.07 358.06 207.89 355.17 203.77 352.53C199.65 349.89 195.6 347.52 191.69 345.54C187.78 343.56 184 341.96 180.43 340.87C179.21 340.5 177.62 340.06 175.72 339.63C173.82 339.2 171.6 338.76 169.11 338.39C166.62 338.02 163.87 337.7 160.9 337.5C157.93 337.3 154.75 337.23 151.4 337.33C151.4 337.33 161.67 340.81 163.5 350.5C164.93 358.07 158.31 365.83 158.31 365.83L158.3 365.85Z" fill="white" stroke="white" stroke-miterlimit="10"/>
<path d="M321.21 250.58L396.69 198.41" stroke="#A72116" stroke-width="3" stroke-miterlimit="10"/>
<path d="M298.81 267.18C286.31 276.78 268.36 286.65 274.18 304.12C278.34 316.61 296.09 328.57 300.62 333.09" stroke="#A72116" stroke-width="3" stroke-miterlimit="10"/>
<path d="M321.46 351.78C323.08 352.9 331.73 361.19 333.68 371.66C335.39 380.8 332.06 388.39 330.86 390.58" stroke="#A72116" stroke-width="3" stroke-miterlimit="10"/>
<path d="M314.22 407.88C311.46 410.31 299.83 420.85 282.17 420.56C262.01 420.23 249.65 407.03 247.59 404.76" stroke="#A72116" stroke-width="3" stroke-miterlimit="10"/>
<path d="M227.2 388.88L197.96 366.5" stroke="#A72116" stroke-width="3" stroke-miterlimit="10"/>
<path d="M172.32 354.09C168.55 352.71 161.5 351.09 154.21 350.98C146.55 350.87 139.53 352.52 135.66 353.87" stroke="#A72116" stroke-width="3" stroke-miterlimit="10"/>
<path d="M113.47 363.84C112.6 364.46 94.59 374.02 90.86 392.28C86.88 411.76 101.84 422.09 102.77 422.94" stroke="#A72116" stroke-width="3" stroke-miterlimit="10"/>
<path d="M124.36 441.07C136.49 450.65 149.19 459.65 161.32 469.23" stroke="#A72116" stroke-width="3" stroke-miterlimit="10"/>
<path d="M184.15 486.79C184.15 486.79 214.62 505.01 211.43 521.03C207.96 538.49 174.36 560.48 174.36 560.48" stroke="#A72116" stroke-width="3" stroke-miterlimit="10"/>
<path d="M150.71 577.44C129.21 592.81 111.72 605.6 98.82 615.4C89.88 622.2 78.58 633.13 77.14 644.67C74.68 664.4 89.41 674.48 93.6 678.43" stroke="#A72116" stroke-width="3" stroke-miterlimit="10"/>
<path d="M114.55 696.05L148.73 722.54" stroke="#A72116" stroke-width="3" stroke-miterlimit="10"/>
<path d="M168.15 738.36L246.77 803.34" stroke="#A72116" stroke-width="3" stroke-miterlimit="10"/>
<path d="M150.235 341.376C150.591 342.496 151.195 344.268 150.181 345.896C149.432 347.096 148.037 347.734 147.238 348.055C146.615 348.306 143.339 348.901 141.719 347.899C140.1 346.896 140.012 345.895 139.875 345.482C139.703 344.963 139.487 343.804 139.507 342.759C139.527 341.79 139.99 340.445 140.284 340.083C140.972 339.237 141.968 338.263 143.698 337.971C144.901 337.767 146.444 337.567 147.911 338.272C149.332 338.954 149.921 340.389 150.235 341.377L150.235 341.376Z" fill="#303338"/>
<path d="M144.729 341.625C141.994 342.257 139.504 344.104 140.273 346.361C140.766 347.809 142.987 349.067 146.445 348.275C149.131 347.661 151.001 345.49 150.683 343.762C150.368 342.047 147.741 340.929 144.729 341.625Z" fill="#131414"/>
<path d="M177.648 343.318C177.853 343.795 178.582 346.041 177.893 347.25C177.204 348.458 175.863 349.048 175.117 349.376C174.535 349.631 171.497 350.288 170.032 349.389C168.567 348.49 168.486 347.651 168.355 347.233C168.204 346.751 167.948 345.711 167.998 344.724C168.044 343.808 169.017 342.631 169.363 342.345C170.178 341.669 171.528 341.209 172.578 341.041C173.698 340.862 174.581 340.795 175.588 341.224C176.899 341.783 177.429 342.811 177.648 343.318Z" fill="#303338"/>
<path d="M172.772 344.357C170.304 344.927 168.397 346.655 168.728 348.002C169.059 349.348 171.312 350.234 174.432 349.521C176.855 348.966 178.526 347.188 178.12 345.657C177.764 344.317 175.49 343.73 172.773 344.357L172.772 344.357Z" fill="#131414"/>
<path d="M140.862 352.302C140.444 353.797 140.293 354.658 140.174 354.684C140.003 354.721 139.666 354.487 139.551 354.263C139.168 353.515 138.906 352.685 138.778 352.343C138.202 350.791 137.047 347.587 136.987 347.199C136.936 346.874 136.948 346.432 136.948 346.432C136.979 346.11 137.042 345.918 137.041 345.766C137.041 345.506 136.818 344.686 136.679 344.125C136.55 343.598 136.305 342.797 136.241 342.329C136.189 341.94 136.18 341.621 136.299 341.304C136.334 341.213 136.54 340.718 136.883 340.64C137.368 340.529 137.943 341.355 138.309 341.949C139.731 344.254 141.974 348.325 140.863 352.301L140.862 352.302Z" fill="#28436B"/>
<path d="M145.306 352.774C145.309 353.128 145.188 354.614 144.81 354.849C144.567 355 144.109 354.904 142.676 354.878C140.992 354.847 140.397 354.71 140.174 354.683C139.908 354.651 140.704 352.282 140.916 352.253C141.038 352.237 141.206 352.46 141.437 352.518C142.483 352.781 145.304 352.639 145.305 352.773L145.306 352.774Z" fill="#172A3F"/>
<path d="M183.753 353.714C183.739 353.995 183.47 353.626 182.732 353.552C181.869 353.465 178.249 353.007 173.32 352.592C171.798 352.463 171.233 352.497 170.413 352.872C169.592 353.247 169.109 354.133 168.593 355.166C168.28 355.793 168.14 356.302 167.713 356.937C167.397 357.408 167.205 357.465 166.769 357.504C165.032 357.657 163.221 357.71 160.86 357.514C159.684 357.417 158.974 357.514 158.418 357.099C157.863 356.684 157.928 356.265 157.805 355.489C157.744 355.103 157.236 353.711 156.82 353.078C156.404 352.445 155.122 351.43 153.75 350.973C151.608 350.259 148.849 350.025 147.048 349.654C145.247 349.282 143.946 349.308 143.946 349.308C143.946 349.308 145.501 352.486 145.273 352.777C145.139 352.949 144.972 352.785 142.98 352.734C141.409 352.695 141.144 352.407 141.02 352.348C139.91 351.821 136.433 340.901 136.864 340.656C137.327 340.392 140.331 340.533 140.786 341.108C141.373 341.851 142.608 346.257 142.608 346.257C142.608 346.257 150.359 344.221 150.467 344.027C150.731 343.555 151.033 343.115 151.696 342.634C152.288 342.206 153.163 342.15 155.016 341.974C157.645 341.726 160.061 341.491 161.194 341.548C161.55 341.566 161.794 341.092 162.39 341.022C162.992 340.951 163.474 341.123 163.71 341.225C166.331 342.362 170.211 346.385 171.833 347.239C172.879 347.79 174.362 347.983 177.542 348.616C179.698 349.044 181.132 349.314 182.283 350.337C183.779 351.669 183.774 353.286 183.753 353.714L183.753 353.714Z" fill="#518ACE"/>
<path d="M183.753 353.714C183.732 353.586 181.936 353.457 179.625 353.16C175.62 352.645 172.981 352.493 171.491 352.541C171.009 352.556 170.293 352.878 169.792 353.3C169.173 353.822 168.384 355.458 167.873 356.685C167.721 357.051 167.463 357.402 167.04 357.456C164.374 357.803 161.336 357.543 158.88 357.272C158.29 357.206 157.983 356.352 157.921 356.032C157.665 354.707 157.282 353.979 156.987 353.373C156.602 352.581 155.401 351.515 153.75 350.972C151.136 350.114 149.779 350.021 146.88 349.57C145.466 349.349 143.946 349.307 143.946 349.307C143.946 349.307 145.161 351.956 145.249 352.523C145.271 352.662 145.42 353.902 144.81 354.85C144.81 354.85 145.501 355.411 145.687 355.451C148.382 356.031 150.571 360.409 155.574 360.862C157.937 361.076 159.361 361.042 161.548 361.15C162.772 361.209 164.867 361.325 165.616 360.819C165.9 360.626 166.148 360.347 166.814 359.408C167.479 358.469 168.002 357.805 168.359 357.521C169.222 356.831 170.251 356.781 173.14 356.821C177.193 356.878 179.777 357.267 181.246 356.3C181.475 356.15 182.014 355.749 182.589 355.24C183.307 354.604 183.794 353.959 183.753 353.715L183.753 353.714Z" fill="#28436B"/>
<path d="M162.504 344.399C162.538 344.648 161.935 346.225 161.881 346.407C161.857 346.489 161.912 346.79 161.607 347.446C161.303 348.102 161.138 348.531 161.1 348.759C161.012 349.302 161.124 349.722 161.098 349.788C161.057 349.895 159.386 349.563 158.844 349.452C158.104 349.301 156.689 348.946 153.542 348.628C151.591 348.431 149.413 348.481 147.266 348.262C145.71 348.103 143.512 348.137 143.512 348.137L143.212 347.322C143.212 347.322 144.833 346.835 146.094 346.5C146.994 346.262 148.555 345.897 151.48 345.123C153.4 344.615 154.475 344.386 157.053 344.108C157.053 344.108 159.554 343.653 161.724 343.919C161.956 343.947 162.457 344.049 162.504 344.399Z" fill="#28436B"/>
<path d="M175.106 354.243C174.757 354.739 174.787 355.292 175.211 355.583C175.635 355.873 176.139 355.529 176.64 355.295C177.166 355.048 176.854 354.286 176.43 353.995C176.007 353.704 175.424 353.79 175.106 354.243Z" fill="#131414"/>
<path d="M181.755 357.27C181.961 357.746 182.689 359.992 182.001 361.201C181.312 362.409 179.97 362.999 179.224 363.327C178.642 363.582 175.604 364.239 174.14 363.34C172.675 362.441 172.594 361.602 172.462 361.184C172.311 360.702 172.055 359.662 172.105 358.675C172.151 357.759 173.125 356.583 173.471 356.296C174.285 355.621 175.635 355.16 176.685 354.992C177.805 354.813 178.688 354.746 179.696 355.176C181.006 355.734 181.536 356.762 181.755 357.27Z" fill="#303338"/>
<path d="M176.88 358.308C174.412 358.877 172.505 360.606 172.836 361.952C173.167 363.299 175.419 364.185 178.539 363.471C180.962 362.917 182.634 361.139 182.227 359.608C181.871 358.268 179.597 357.681 176.88 358.308L176.88 358.308Z" fill="#131414"/>
<path d="M177.139 359.686C175.96 360.007 175.249 360.925 175.515 361.613C175.78 362.301 176.848 362.554 178.035 362.261C179.235 361.965 179.936 360.953 179.671 360.265C179.405 359.577 178.317 359.365 177.14 359.686L177.139 359.686Z" fill="#303338"/>
<path d="M155.854 355.972C156.21 357.092 156.813 358.864 155.799 360.491C155.05 361.692 153.655 362.33 152.856 362.651C152.233 362.901 148.957 363.497 147.338 362.494C145.718 361.492 145.63 360.49 145.494 360.077C145.322 359.559 145.105 358.399 145.126 357.355C145.146 356.386 145.608 355.041 145.902 354.678C146.59 353.832 147.587 352.859 149.317 352.567C150.519 352.363 152.062 352.163 153.53 352.867C154.997 353.572 155.539 354.985 155.853 355.973L155.854 355.972Z" fill="#303338"/>
<path d="M150.347 356.221C147.612 356.853 145.122 358.7 145.891 360.957C146.384 362.405 148.605 363.663 152.063 362.872C154.749 362.257 156.619 360.086 156.302 358.358C155.987 356.643 153.359 355.525 150.347 356.221Z" fill="#131414"/>
<path d="M150.598 358.154C149.29 358.511 148.3 359.169 148.754 360.415C149.034 361.183 150.34 361.624 151.656 361.299C152.971 360.974 153.703 359.869 153.468 359.086C153.165 358.071 151.903 357.799 150.598 358.154L150.598 358.154Z" fill="#303338"/>
<path d="M166.927 347.848C167.192 348.057 167.394 348.781 167.362 349.494C167.313 350.592 166.066 351.394 165.547 351.491C164.25 351.732 162.543 351.447 161.54 350.404C161.278 350.132 161.113 349.602 161.168 349.026C161.224 348.451 161.669 347.533 161.864 347.067C161.966 346.824 161.919 346.413 161.963 346.416C162.002 346.42 162.043 346.921 162.443 347.265C162.77 347.546 163.869 348.242 165.256 347.926C165.546 347.861 165.84 347.676 166.062 347.641C166.364 347.595 166.666 347.644 166.927 347.85L166.927 347.848Z" fill="#303338"/>
<path d="M166.944 347.713C166.958 347.702 166.691 347.205 166.465 346.882C166.206 346.51 165.904 346.143 165.306 345.867C164.458 345.475 163.692 345.528 163.408 345.562C162.961 345.615 162.554 345.729 162.33 346.033C162.14 346.291 162.137 346.652 162.271 346.916C162.513 347.394 163.551 347.862 164.28 347.9C164.854 347.931 165.349 347.81 165.539 347.726C165.749 347.634 165.978 347.546 166.188 347.515C166.542 347.463 166.929 347.725 166.944 347.713L166.944 347.713Z" fill="#28436B"/>
<path d="M163.906 343.401C164.016 342.567 163.728 341.824 163.674 341.732C163.47 341.39 163.189 341.052 162.727 340.941C162.205 340.817 161.618 341.161 161.336 341.554C160.943 342.1 161.025 342.407 161.157 343.073C161.256 343.57 161.331 343.879 161.606 344.201C161.683 344.289 162.104 344.781 162.73 344.721C163.373 344.659 163.697 344.067 163.751 343.961C163.858 343.755 163.883 343.578 163.906 343.401Z" fill="#303338"/>
<path d="M163.859 343.684C163.859 343.684 163.334 344.037 162.704 344.069C161.915 344.109 161.392 343.884 161.392 343.884C161.392 343.884 161.533 344.184 161.756 344.356C162.289 344.769 162.543 344.733 162.757 344.718C163.223 344.687 163.534 344.287 163.624 344.164C163.808 343.915 163.857 343.683 163.857 343.683L163.859 343.684Z" fill="#141313"/>
</g>
<defs>
<clipPath id="clip0_4493_61">
<rect width="393" height="782" fill="white"/>
</clipPath>
</defs>
</svg>
