<svg width="393" height="782" viewBox="0 0 393 782" fill="none" xmlns="http://www.w3.org/2000/svg">
<g clip-path="url(#clip0_4493_61)">
<path d="M393 0H0V782H393V0Z" fill="#A72116" stroke="#A72116" stroke-miterlimit="10"/>
<path d="M88.49 610.17C84.98 608.73 79.08 612.66 73.9 617.2C68.72 621.74 66.28 627.09 65.59 628.07C63.27 631.37 62.32 634.75 58.8 640.48C55.28 646.21 50.83 655.32 50.05 657.07C44.76 668.94 47.94 680.71 54.98 691.58C62.02 702.45 73.74 713.4 87.2 725.61C97.75 735.18 118.61 752.86 136.83 768.14C155.05 783.43 170.64 796.32 170.64 796.32C170.64 796.32 183.12 791.35 195.75 785.14C208.39 778.93 221.18 771.47 221.82 766.49C223.28 755.16 193.08 746.71 160.67 733.19C128.26 719.67 93.63 701.07 86.22 669.43C83.06 655.95 85.67 641.97 88.04 630.94C90.41 619.91 92.56 611.83 88.48 610.16L88.49 610.17Z" fill="#782521" stroke="#782521" stroke-miterlimit="10"/>
<path d="M141.51 384.46C143.76 384.68 146.7 384.6 154.73 386.91C168.19 390.77 209.43 426.26 240.34 445.88C250.27 452.18 261.94 451.57 265.72 451.74C276.75 452.23 288.92 451.1 294.52 449.46C299.07 448.13 319.51 444.63 318.95 438.81C318.06 429.55 261.25 446.09 218.29 415.42C190.44 395.53 182.86 366.12 163.47 367.93C153.61 368.85 146.24 377.33 141.5 384.47L141.51 384.46Z" fill="#782521" stroke="#782521" stroke-miterlimit="10"/>
<path d="M267.03 275.27C262.11 280.69 250.71 287.3 245.07 298.31C243.33 301.7 239.09 313.07 244.2 324.85C248.36 334.44 261.01 345.39 288.67 368.92C292.08 371.82 301.85 379.74 304.21 387.42C308.07 399.98 304.35 401.05 306.57 403.16C309.81 406.24 326.67 399.4 327.56 378.49C327.95 369.45 321.57 362.74 310.13 350.6C292.49 331.87 286.33 335.09 279.53 323.49C268.22 304.19 276.03 279.51 269.54 278.17C268.7 278 267.97 274.22 267.02 275.27H267.03Z" fill="#782521" stroke="#782521" stroke-miterlimit="10"/>
<path d="M62.24 634.14C58.22 641.38 50.69 665.54 61.17 684.4C74.67 708.71 164.4 775.6 178.82 787.49C194.34 800.29 199.85 810.26 201.06 810.88C202.74 811.74 206.51 782.35 195.69 768.31C159.63 721.53 65.87 627.59 62.24 634.13V634.14Z" fill="#81170E" stroke="#81170E" stroke-miterlimit="10"/>
<path d="M75.92 383.85C71.9 391.09 60.19 411.96 73.12 429.24C89.33 450.9 162.43 506.58 176.84 518.47C192.36 531.27 175.88 548.94 177.09 549.56C178.77 550.42 211.44 525.58 200.62 511.55C164.56 464.77 79.55 377.32 75.91 383.85H75.92Z" fill="#81170E" stroke="#81170E" stroke-miterlimit="10"/>
<path d="M268.4 451.7C265.89 451.12 260.58 450.15 256.22 447.95C245.9 442.75 238.83 437.25 235.74 434.84C193.86 402.07 175.55 386.72 164.77 384.23C152.8 381.46 147.1 383.27 139.11 384.94C131.68 386.49 133.51 367.7 138.98 362.71C145.3 356.94 157.97 363.26 200.64 383.65C254.54 409.41 270.91 416.82 272.58 431.74C273.45 439.55 271.41 447.19 268.4 451.7Z" fill="#81170E" stroke="#81170E" stroke-miterlimit="10"/>
<path d="M256.89 290C254.06 293.27 250.33 304.02 250.97 312.6C251.58 320.72 255.45 327.74 264.79 336.35C275.19 345.94 285.19 352.81 301.7 367.34C304.8 370.07 308.59 373.3 311.81 378.81C314.02 382.61 313.48 390.62 315.39 389.67C317.3 388.72 323.35 390.83 323.35 382.09C323.35 350.36 272.16 272.37 256.89 290Z" fill="#81170E" stroke="#81170E" stroke-miterlimit="10"/>
<path d="M294.69 308.63C296.55 305.19 301.03 300.48 302.3 299.2C314.07 287.34 409.95 224.53 419.63 217.97C426.64 213.22 415.23 203.38 407.99 207.51C350.87 240.1 297.83 280.51 290.89 290.21C287.7 294.67 291.99 313.61 294.69 308.63Z" fill="#DB3821" stroke="#DB3821" stroke-miterlimit="10"/>
<path d="M347.67 373.21C354.74 365.31 352.65 397.62 352.03 400.83C349.52 413.86 340.22 424.02 332.55 431.67C327.67 436.53 317.06 445.8 296.98 450.41C289.03 452.23 274.46 452.26 268.39 451.7C266.8 451.55 265.59 450.15 265.75 448.55C266.61 439.97 272.3 429.18 270.03 424.09C269.02 421.82 327.6 395.6 347.66 373.21H347.67Z" fill="#DB3821" stroke="#DB3821" stroke-miterlimit="10"/>
<path d="M143.05 367.17C143.35 368.46 142.58 376.92 142.18 382.68C142.11 383.7 141.41 384.56 140.42 384.83C137.24 385.72 125.7 391.5 122.52 393.82C116.53 398.21 113.12 402.4 111.9 407.82C110.92 412.14 101.44 401.69 100.35 395.39C98.15 382.7 112.96 368.74 127.13 365.36C130.59 364.53 141.61 361.04 143.05 367.17Z" fill="#DB3821" stroke="#DB3821" stroke-miterlimit="10"/>
<path d="M226.87 513.92C228.08 514 229.39 534.7 228.71 542.11C227.45 555.81 220.56 560.08 214.25 565.44C203.2 574.83 180.14 593.34 180.14 593.34C180.14 593.34 105.66 649.78 102.52 660.28C99.47 670.46 96.19 672.15 94.34 672.3C91.89 672.5 90.13 654.1 90.13 646.75C90.13 636.5 218.54 513.36 226.87 513.93V513.92Z" fill="#DB3821" stroke="#DB3821" stroke-miterlimit="10"/>
<path d="M271.58 269.59C270.73 270.27 257.21 281.01 256.33 296.26C256.02 301.67 257.78 308.85 263.41 316.88C268.77 324.53 281.91 334.38 293.9 344.4C305.89 354.41 316.74 364.59 317.53 372.88C318.41 382.08 311.96 393.21 302.41 400.16C292.86 407.11 280.21 409.88 268.66 402.35C259.81 396.58 244.88 383.4 228.6 370.57C212.32 357.74 194.67 345.25 180.4 340.89C175.52 339.4 164.76 336.95 151.38 337.35C137.99 337.76 121.98 341.02 106.59 350.97C102 353.94 91.69 359.81 82.56 370.6C73.19 381.67 66.26 397.81 75.72 414.61C83.18 427.87 116.25 454.03 134.07 468.55C161.04 490.51 189.58 506.94 189.62 521.22C189.65 531.02 181.94 535.39 173.88 542.58C165.41 550.13 105.32 592.24 86.11 606.39C61.72 624.35 56.77 637.1 57.85 654.36C59.68 683.63 116.92 722.92 226.27 807.11C248.95 824.57 275.76 812.2 267.8 808.1C268.54 793.57 182.06 727.73 160.74 711.64C158.17 709.7 105.08 669.96 99.62 659.97C91.33 644.82 103.61 635.19 116.52 625.3C116.52 625.3 183.46 571.78 209.91 551.49C218.97 544.14 226.7 534.46 227.66 526.5C230.44 503.48 215.68 493.04 212.37 490.35C202.57 482.38 158.21 447.75 128.89 425.19C124.94 422.63 109.97 411.67 109.02 401.66C108.38 395.53 110.33 389.79 113.53 385.37C116.73 380.95 121.19 377.86 122.71 376.56C129.36 370.86 142.13 364.46 158.29 365.86C179.27 367.67 202.31 391.14 207.98 394.95C211.19 397.1 226.16 409.51 237.45 417.96C248.22 426.46 253.19 429.62 261.21 431.88C267.74 433.72 274.48 434.4 278.52 434.59C289.73 435.1 299.54 432.4 307.41 428.97C315.28 425.54 321.2 421.37 324.65 418.95C329.42 415.6 334.55 411.05 339.29 405.73C344.03 400.41 349 394.86 350.72 386.68C352.03 380.46 352.15 377.81 351.82 372.98C350.91 359.62 335.98 345.06 328.13 338.15C320.28 331.25 298.46 313.66 296.05 311.13C293.64 308.6 291.05 305.45 290.58 301.6C290.28 299.12 290.55 296.69 291.24 294.52C291.93 292.35 293.01 290.46 294.33 289.05C306.17 276.12 427.39 197.77 427.39 197.77L413.24 191.84L417.01 169.64C417.01 169.64 288.27 256.19 271.57 269.61L271.58 269.59Z" fill="#F9DA5E" stroke="#F9DA5E" stroke-miterlimit="10"/>
<path d="M158.3 365.85C163.55 366.3 168.92 368.11 174.12 370.62C179.32 373.13 184.34 376.36 188.89 379.64C193.44 382.92 197.5 386.27 200.79 389.03C204.08 391.79 206.58 393.97 208 394.93C208.8 395.47 210.34 396.65 212.37 398.25C214.4 399.85 216.93 401.87 219.7 404.08C222.47 406.29 225.51 408.7 228.55 411.09C231.59 413.48 234.64 415.83 237.47 417.95C240.16 420.07 242.49 421.86 244.6 423.39C246.71 424.92 248.59 426.18 250.38 427.25C252.17 428.32 253.89 429.19 255.65 429.94C257.41 430.69 259.23 431.31 261.23 431.87C262.86 432.33 264.51 432.72 266.12 433.04C267.73 433.36 269.31 433.63 270.82 433.84C272.33 434.05 273.75 434.21 275.05 434.33C276.35 434.45 277.53 434.53 278.54 434.57C281.34 434.7 284.06 434.62 286.68 434.39C289.3 434.16 291.82 433.76 294.24 433.24C296.66 432.72 298.97 432.08 301.17 431.35C303.37 430.62 305.46 429.81 307.43 428.95C309.4 428.09 311.24 427.19 312.96 426.28C314.68 425.37 316.26 424.45 317.71 423.56C319.16 422.67 320.47 421.82 321.63 421.03C322.79 420.24 323.81 419.53 324.67 418.93C325.86 418.09 327.08 417.18 328.3 416.2C329.52 415.22 330.76 414.17 332 413.06C333.24 411.95 334.47 410.78 335.69 409.55C336.91 408.32 338.12 407.04 339.31 405.71C340.5 404.38 341.67 403.07 342.82 401.67C343.97 400.27 345.1 398.83 346.13 397.28C347.16 395.73 348.1 394.1 348.89 392.34C349.68 390.58 350.32 388.69 350.75 386.65C351.08 385.09 351.33 383.76 351.52 382.56C351.71 381.36 351.84 380.3 351.91 379.27C351.98 378.24 352.01 377.27 352 376.25C351.99 375.23 351.93 374.16 351.85 372.95C351.62 369.61 350.52 366.19 348.87 362.84C347.22 359.49 345.02 356.2 342.61 353.11C340.2 350.02 337.57 347.14 335.05 344.59C332.53 342.04 330.13 339.84 328.16 338.11C326.19 336.38 323.36 333.99 320.17 331.33C316.98 328.67 313.44 325.75 310.08 322.96C306.72 320.17 303.51 317.52 301.01 315.41C298.51 313.3 296.69 311.73 296.08 311.09C295.47 310.45 294.86 309.79 294.27 309.08C293.68 308.37 293.12 307.62 292.61 306.82C292.1 306.02 291.66 305.19 291.32 304.32C290.98 303.45 290.72 302.52 290.61 301.56C290.53 300.94 290.5 300.32 290.49 299.71C290.48 299.1 290.51 298.5 290.57 297.9C290.63 297.3 290.72 296.72 290.83 296.15C290.94 295.58 291.09 295.02 291.26 294.48C291.43 293.94 291.63 293.41 291.85 292.91C292.07 292.41 292.31 291.92 292.57 291.46C292.83 291 293.11 290.56 293.41 290.15C293.71 289.74 294.02 289.36 294.35 289C297.31 285.77 307.11 278.45 320.14 269.28C333.17 260.12 349.43 249.11 365.33 238.51C381.23 227.91 396.75 217.71 408.29 210.16C419.84 202.61 427.42 197.72 427.42 197.72L423.88 196.24L420.34 194.76L416.8 193.28L413.26 191.8L414.2 186.25L415.14 180.7L416.08 175.15L417.02 169.6C417.02 169.6 408.97 175.01 396.64 183.33C384.31 191.65 367.69 202.89 350.56 214.55C333.43 226.21 315.76 238.29 301.35 248.29C286.94 258.29 275.75 266.22 271.58 269.57C271.37 269.74 270.36 270.54 268.96 271.88C267.56 273.22 265.76 275.1 263.97 277.44C262.18 279.78 260.37 282.57 258.97 285.73C257.57 288.89 256.56 292.42 256.34 296.24C256.26 297.59 256.31 299.05 256.52 300.61C256.73 302.17 257.1 303.83 257.65 305.56C258.2 307.29 258.94 309.12 259.89 311C260.84 312.88 262.01 314.84 263.41 316.85C264.81 318.86 266.58 320.81 268.75 322.97C270.92 325.13 273.44 327.39 276.17 329.72C278.9 332.05 281.83 334.47 284.83 336.92C287.83 339.37 290.9 341.87 293.9 344.37C296.9 346.87 299.83 349.39 302.54 351.88C305.25 354.37 307.76 356.84 309.92 359.26C312.08 361.68 313.88 364.04 315.2 366.31C316.52 368.58 317.34 370.78 317.54 372.85C317.76 375.15 317.52 377.57 316.89 380.02C316.26 382.47 315.24 384.94 313.89 387.34C312.54 389.74 310.87 392.07 308.94 394.24C307.01 396.41 304.81 398.4 302.43 400.14C300.05 401.88 297.46 403.35 294.75 404.47C292.04 405.59 289.2 406.35 286.3 406.66C283.4 406.97 280.44 406.83 277.48 406.14C274.52 405.45 271.57 404.21 268.68 402.33C266.47 400.89 263.88 398.98 260.98 396.74C258.08 394.5 254.88 391.9 251.44 389.09C248 386.28 244.33 383.25 240.51 380.12C236.69 376.99 232.7 373.76 228.62 370.55C224.54 367.34 220.39 364.16 216.23 361.11C212.07 358.06 207.89 355.17 203.77 352.53C199.65 349.89 195.6 347.52 191.69 345.54C187.78 343.56 184 341.96 180.43 340.87C179.21 340.5 177.62 340.06 175.72 339.63C173.82 339.2 171.6 338.76 169.11 338.39C166.62 338.02 163.87 337.7 160.9 337.5C157.93 337.3 154.75 337.23 151.4 337.33C151.4 337.33 161.67 340.81 163.5 350.5C164.93 358.07 158.31 365.83 158.31 365.83L158.3 365.85Z" fill="white" stroke="white" stroke-miterlimit="10"/>
<path d="M321.21 250.58L396.69 198.41" stroke="#A72116" stroke-width="3" stroke-miterlimit="10"/>
<path d="M298.81 267.18C286.31 276.78 268.36 286.65 274.18 304.12C278.34 316.61 296.09 328.57 300.62 333.09" stroke="#A72116" stroke-width="3" stroke-miterlimit="10"/>
<path d="M321.46 351.78C323.08 352.9 331.73 361.19 333.68 371.66C335.39 380.8 332.06 388.39 330.86 390.58" stroke="#A72116" stroke-width="3" stroke-miterlimit="10"/>
<path d="M314.22 407.88C311.46 410.31 299.83 420.85 282.17 420.56C262.01 420.23 249.65 407.03 247.59 404.76" stroke="#A72116" stroke-width="3" stroke-miterlimit="10"/>
<path d="M227.2 388.88L197.96 366.5" stroke="#A72116" stroke-width="3" stroke-miterlimit="10"/>
<path d="M172.32 354.09C168.55 352.71 161.5 351.09 154.21 350.98C146.55 350.87 139.53 352.52 135.66 353.87" stroke="#A72116" stroke-width="3" stroke-miterlimit="10"/>
<path d="M113.47 363.84C112.6 364.46 94.59 374.02 90.86 392.28C86.88 411.76 101.84 422.09 102.77 422.94" stroke="#A72116" stroke-width="3" stroke-miterlimit="10"/>
<path d="M124.36 441.07C136.49 450.65 149.19 459.65 161.32 469.23" stroke="#A72116" stroke-width="3" stroke-miterlimit="10"/>
<path d="M184.15 486.79C184.15 486.79 214.62 505.01 211.43 521.03C207.96 538.49 174.36 560.48 174.36 560.48" stroke="#A72116" stroke-width="3" stroke-miterlimit="10"/>
<path d="M150.71 577.44C129.21 592.81 111.72 605.6 98.82 615.4C89.88 622.2 78.58 633.13 77.14 644.67C74.68 664.4 89.41 674.48 93.6 678.43" stroke="#A72116" stroke-width="3" stroke-miterlimit="10"/>
<path d="M114.55 696.05L148.73 722.54" stroke="#A72116" stroke-width="3" stroke-miterlimit="10"/>
<path d="M168.15 738.36L246.77 803.34" stroke="#A72116" stroke-width="3" stroke-miterlimit="10"/>
<path d="M127.916 346.606C128.592 347.568 129.699 349.077 129.219 350.934C128.864 352.304 127.725 353.33 127.058 353.876C126.539 354.302 123.592 355.851 121.747 355.381C119.901 354.91 119.517 353.981 119.263 353.627C118.943 353.184 118.389 352.143 118.096 351.141C117.825 350.21 117.863 348.788 118.035 348.354C118.437 347.341 119.096 346.114 120.659 345.316C121.745 344.761 123.158 344.108 124.769 344.341C126.328 344.566 127.321 345.758 127.916 346.607L127.916 346.606Z" fill="#303338"/>
<path d="M122.738 348.493C120.317 349.916 118.496 352.424 119.906 354.347C120.81 355.581 123.306 356.115 126.368 354.324C128.746 352.933 129.88 350.301 129.059 348.748C128.244 347.206 125.403 346.927 122.738 348.493Z" fill="#131414"/>
<path d="M154.651 340.244C154.99 340.637 156.358 342.562 156.063 343.921C155.768 345.281 154.665 346.246 154.052 346.781C153.573 347.199 150.872 348.736 149.205 348.318C147.538 347.899 147.209 347.123 146.958 346.763C146.67 346.349 146.114 345.434 145.866 344.477C145.635 343.589 146.212 342.175 146.456 341.798C147.031 340.909 148.181 340.066 149.132 339.591C150.147 339.084 150.969 338.756 152.059 338.864C153.476 339.004 154.29 339.825 154.651 340.244Z" fill="#303338"/>
<path d="M150.311 342.696C148.127 343.979 146.826 346.2 147.545 347.385C148.264 348.57 150.679 348.741 153.441 347.125C155.587 345.87 156.649 343.672 155.802 342.334C155.061 341.162 152.716 341.283 150.312 342.696L150.311 342.696Z" fill="#131414"/>
<path d="M122.248 359.839C122.297 361.39 122.412 362.257 122.305 362.317C122.153 362.404 121.762 362.282 121.585 362.102C120.996 361.503 120.497 360.791 120.273 360.502C119.257 359.194 117.195 356.484 117.022 356.131C116.876 355.837 116.755 355.411 116.755 355.411C116.688 355.095 116.69 354.893 116.644 354.748C116.566 354.5 116.107 353.785 115.807 353.291C115.526 352.827 115.053 352.136 114.851 351.709C114.684 351.354 114.58 351.051 114.6 350.714C114.605 350.616 114.654 350.082 114.957 349.905C115.387 349.654 116.183 350.27 116.71 350.726C118.757 352.499 122.117 355.712 122.249 359.838L122.248 359.839Z" fill="#28436B"/>
<path d="M126.629 358.957C126.738 359.294 127.068 360.749 126.778 361.085C126.591 361.303 126.126 361.348 124.75 361.752C123.134 362.228 122.526 362.275 122.305 362.316C122.042 362.366 122.092 359.866 122.285 359.776C122.396 359.724 122.624 359.886 122.861 359.873C123.938 359.81 126.587 358.829 126.629 358.957L126.629 358.957Z" fill="#172A3F"/>
<path d="M163.591 348.332C163.662 348.605 163.295 348.333 162.568 348.484C161.719 348.659 158.128 349.308 153.301 350.388C151.81 350.722 151.282 350.923 150.611 351.527C149.941 352.13 149.746 353.12 149.563 354.261C149.453 354.953 149.471 355.481 149.254 356.214C149.094 356.759 148.928 356.87 148.523 357.038C146.913 357.705 145.2 358.298 142.889 358.819C141.738 359.078 141.089 359.384 140.435 359.154C139.781 358.925 139.718 358.505 139.368 357.802C139.193 357.452 138.292 356.276 137.706 355.797C137.119 355.318 135.591 354.734 134.146 354.709C131.888 354.67 129.186 355.274 127.356 355.459C125.526 355.644 124.294 356.059 124.294 356.059C124.294 356.059 126.73 358.624 126.599 358.971C126.522 359.175 126.314 359.068 124.398 359.617C122.888 360.05 122.549 359.855 122.413 359.836C121.196 359.665 114.606 350.289 114.944 349.926C115.307 349.536 118.215 348.77 118.821 349.183C119.604 349.715 122.102 353.548 122.102 353.548C122.102 353.548 128.887 349.284 128.932 349.066C129.043 348.537 129.198 348.026 129.687 347.369C130.123 346.783 130.942 346.467 132.657 345.744C135.091 344.72 137.325 343.771 138.423 343.486C138.768 343.397 138.858 342.871 139.406 342.626C139.959 342.378 140.471 342.397 140.727 342.424C143.568 342.723 148.475 345.399 150.279 345.727C151.442 345.939 152.915 345.68 156.138 345.33C158.323 345.093 159.772 344.92 161.176 345.551C163.003 346.373 163.482 347.918 163.591 348.333L163.591 348.332Z" fill="#518ACE"/>
<path d="M163.591 348.332C163.533 348.216 161.781 348.632 159.487 349.04C155.511 349.75 152.948 350.395 151.541 350.888C151.086 351.046 150.499 351.568 150.148 352.121C149.714 352.804 149.451 354.602 149.331 355.925C149.296 356.32 149.155 356.732 148.768 356.911C146.329 358.041 143.352 358.703 140.927 359.18C140.345 359.295 139.796 358.572 139.641 358.285C138.999 357.098 138.416 356.517 137.953 356.028C137.349 355.388 135.884 354.731 134.145 354.708C131.394 354.673 130.072 354.991 127.171 355.429C125.756 355.642 124.293 356.057 124.293 356.057C124.293 356.057 126.246 358.22 126.5 358.735C126.563 358.861 127.076 359.999 126.779 361.086C126.779 361.086 127.605 361.415 127.795 361.397C130.541 361.143 133.94 364.664 138.849 363.596C141.168 363.092 142.516 362.634 144.635 362.08C145.821 361.771 147.854 361.253 148.417 360.546C148.63 360.277 148.783 359.936 149.137 358.841C149.49 357.745 149.79 356.956 150.045 356.577C150.662 355.661 151.628 355.305 154.398 354.477C158.281 353.316 160.863 352.914 161.974 351.551C162.148 351.339 162.542 350.795 162.938 350.137C163.433 349.315 163.703 348.554 163.592 348.333L163.591 348.332Z" fill="#28436B"/>
<path d="M140.527 345.813C140.634 346.041 140.532 347.726 140.535 347.916C140.536 348.001 140.679 348.271 140.585 348.989C140.491 349.706 140.462 350.164 140.495 350.393C140.573 350.938 140.806 351.305 140.801 351.376C140.794 351.49 139.1 351.674 138.55 351.731C137.798 351.809 136.342 351.894 133.244 352.534C131.324 352.931 129.262 353.631 127.148 354.065C125.615 354.38 123.528 355.071 123.528 355.071L122.998 354.384C122.998 354.384 124.399 353.433 125.502 352.736C126.289 352.238 127.669 351.422 130.227 349.808C131.906 348.748 132.863 348.207 135.24 347.169C135.24 347.169 137.489 345.986 139.64 345.589C139.869 345.547 140.377 345.494 140.527 345.813Z" fill="#28436B"/>
<path d="M155.5 351.428C155.316 352.006 155.51 352.525 156.001 352.675C156.493 352.825 156.871 352.345 157.279 351.972C157.707 351.579 157.181 350.945 156.689 350.794C156.198 350.644 155.668 350.901 155.5 351.428Z" fill="#131414"/>
<path d="M162.751 352.323C163.09 352.716 164.458 354.64 164.163 356C163.868 357.359 162.765 358.324 162.151 358.86C161.672 359.278 158.971 360.815 157.304 360.396C155.637 359.978 155.308 359.201 155.058 358.842C154.769 358.428 154.213 357.512 153.965 356.555C153.735 355.668 154.311 354.254 154.555 353.877C155.13 352.988 156.28 352.144 157.231 351.67C158.246 351.163 159.068 350.835 160.158 350.942C161.576 351.082 162.389 351.904 162.751 352.323Z" fill="#303338"/>
<path d="M158.41 354.775C156.227 356.058 154.925 358.279 155.644 359.464C156.363 360.649 158.778 360.82 161.541 359.204C163.687 357.949 164.748 355.751 163.902 354.413C163.161 353.241 160.815 353.362 158.411 354.775L158.41 354.775Z" fill="#131414"/>
<path d="M159.071 356.011C158.042 356.671 157.639 357.76 158.099 358.337C158.558 358.914 159.653 358.835 160.698 358.2C161.753 357.558 162.119 356.383 161.66 355.806C161.2 355.229 160.098 355.353 159.072 356.012L159.071 356.011Z" fill="#303338"/>
<path d="M137.651 358.847C138.326 359.809 139.433 361.319 138.953 363.176C138.598 364.545 137.459 365.572 136.792 366.118C136.273 366.544 133.326 368.093 131.481 367.622C129.635 367.151 129.251 366.222 128.997 365.869C128.678 365.426 128.123 364.385 127.83 363.382C127.559 362.452 127.597 361.03 127.769 360.595C128.172 359.582 128.831 358.355 130.393 357.558C131.48 357.003 132.892 356.35 134.503 356.582C136.114 356.814 137.055 358 137.65 358.848L137.651 358.847Z" fill="#303338"/>
<path d="M132.472 360.735C130.052 362.158 128.23 364.666 129.64 366.589C130.544 367.822 133.04 368.357 136.102 366.566C138.481 365.175 139.614 362.543 138.793 360.99C137.978 359.448 135.137 359.168 132.472 360.735Z" fill="#131414"/>
<path d="M133.291 362.504C132.15 363.236 131.402 364.161 132.209 365.213C132.706 365.862 134.085 365.891 135.242 365.187C136.4 364.483 136.767 363.21 136.308 362.533C135.715 361.656 134.429 361.774 133.291 362.503L133.291 362.504Z" fill="#303338"/>
<path d="M145.78 347.779C146.096 347.898 146.505 348.529 146.689 349.218C146.971 350.281 146.022 351.419 145.555 351.667C144.39 352.286 142.676 352.526 141.407 351.832C141.075 351.65 140.759 351.194 140.639 350.628C140.52 350.063 140.67 349.053 140.716 348.55C140.741 348.288 140.573 347.91 140.615 347.9C140.654 347.892 140.843 348.357 141.328 348.566C141.724 348.736 142.981 349.071 144.21 348.354C144.467 348.204 144.692 347.939 144.893 347.84C145.168 347.705 145.471 347.662 145.781 347.78L145.78 347.779Z" fill="#303338"/>
<path d="M145.756 347.644C145.766 347.629 145.362 347.236 145.05 346.995C144.691 346.718 144.294 346.458 143.64 346.374C142.714 346.254 141.999 346.534 141.738 346.651C141.328 346.836 140.973 347.067 140.851 347.424C140.747 347.727 140.852 348.073 141.059 348.284C141.433 348.667 142.564 348.803 143.271 348.621C143.828 348.478 144.263 348.214 144.419 348.078C144.592 347.927 144.784 347.774 144.975 347.681C145.297 347.526 145.746 347.66 145.756 347.644L145.756 347.644Z" fill="#28436B"/>
<path d="M141.566 344.441C141.421 343.612 140.924 342.99 140.844 342.919C140.547 342.654 140.177 342.415 139.704 342.448C139.168 342.486 138.712 342.99 138.56 343.45C138.349 344.088 138.519 344.356 138.845 344.952C139.088 345.397 139.252 345.669 139.611 345.894C139.711 345.955 140.26 346.298 140.84 346.053C141.435 345.802 141.566 345.139 141.586 345.022C141.626 344.794 141.597 344.617 141.566 344.441Z" fill="#303338"/>
<path d="M141.605 344.725C141.605 344.725 141.21 345.219 140.619 345.438C139.879 345.713 139.312 345.655 139.312 345.655C139.312 345.655 139.536 345.899 139.801 345.997C140.433 346.231 140.665 346.12 140.864 346.042C141.299 345.872 141.476 345.397 141.526 345.253C141.626 344.96 141.604 344.724 141.604 344.724L141.605 344.725Z" fill="#141313"/>
</g>
<defs>
<clipPath id="clip0_4493_61">
<rect width="393" height="782" fill="white"/>
</clipPath>
</defs>
</svg>
