<svg width="393" height="782" viewBox="0 0 393 782" fill="none" xmlns="http://www.w3.org/2000/svg">
<g clip-path="url(#clip0_4493_88)">
<path d="M393 0H0V782H393V0Z" fill="#A72116" stroke="#A72116" stroke-miterlimit="10"/>
<path d="M88.49 610.17C84.98 608.73 79.08 612.66 73.9 617.2C68.72 621.74 66.28 627.09 65.59 628.07C63.27 631.37 62.32 634.75 58.8 640.48C55.28 646.21 50.83 655.32 50.05 657.07C44.76 668.94 47.94 680.71 54.98 691.58C62.02 702.45 73.74 713.4 87.2 725.61C97.75 735.18 118.61 752.86 136.83 768.14C155.05 783.43 170.64 796.32 170.64 796.32C170.64 796.32 183.12 791.35 195.75 785.14C208.39 778.93 221.18 771.47 221.82 766.49C223.28 755.16 193.08 746.71 160.67 733.19C128.26 719.67 93.63 701.07 86.22 669.43C83.06 655.95 85.67 641.97 88.04 630.94C90.41 619.91 92.56 611.83 88.48 610.16L88.49 610.17Z" fill="#782521" stroke="#782521" stroke-miterlimit="10"/>
<path d="M141.51 384.46C143.76 384.68 146.7 384.6 154.73 386.91C168.19 390.77 209.43 426.26 240.34 445.88C250.27 452.18 261.94 451.57 265.72 451.74C276.75 452.23 288.92 451.1 294.52 449.46C299.07 448.13 319.51 444.63 318.95 438.81C318.06 429.55 261.25 446.09 218.29 415.42C190.44 395.53 182.86 366.12 163.47 367.93C153.61 368.85 146.24 377.33 141.5 384.47L141.51 384.46Z" fill="#782521" stroke="#782521" stroke-miterlimit="10"/>
<path d="M267.03 275.27C262.11 280.69 250.71 287.3 245.07 298.31C243.33 301.7 239.09 313.07 244.2 324.85C248.36 334.44 261.01 345.39 288.67 368.92C292.08 371.82 301.85 379.74 304.21 387.42C308.07 399.98 304.35 401.05 306.57 403.16C309.81 406.24 326.67 399.4 327.56 378.49C327.95 369.45 321.57 362.74 310.13 350.6C292.49 331.87 286.33 335.09 279.53 323.49C268.22 304.19 276.03 279.51 269.54 278.17C268.7 278 267.97 274.22 267.02 275.27H267.03Z" fill="#782521" stroke="#782521" stroke-miterlimit="10"/>
<path d="M62.24 634.14C58.22 641.38 50.69 665.54 61.17 684.4C74.67 708.71 164.4 775.6 178.82 787.49C194.34 800.29 199.85 810.26 201.06 810.88C202.74 811.74 206.51 782.35 195.69 768.31C159.63 721.53 65.87 627.59 62.24 634.13V634.14Z" fill="#81170E" stroke="#81170E" stroke-miterlimit="10"/>
<path d="M75.92 383.85C71.9 391.09 60.19 411.96 73.12 429.24C89.33 450.9 162.43 506.58 176.84 518.47C192.36 531.27 175.88 548.94 177.09 549.56C178.77 550.42 211.44 525.58 200.62 511.55C164.56 464.77 79.55 377.32 75.91 383.85H75.92Z" fill="#81170E" stroke="#81170E" stroke-miterlimit="10"/>
<path d="M268.4 451.7C265.89 451.12 260.58 450.15 256.22 447.95C245.9 442.75 238.83 437.25 235.74 434.84C193.86 402.07 175.55 386.72 164.77 384.23C152.8 381.46 147.1 383.27 139.11 384.94C131.68 386.49 133.51 367.7 138.98 362.71C145.3 356.94 157.97 363.26 200.64 383.65C254.54 409.41 270.91 416.82 272.58 431.74C273.45 439.55 271.41 447.19 268.4 451.7Z" fill="#81170E" stroke="#81170E" stroke-miterlimit="10"/>
<path d="M256.89 290C254.06 293.27 250.33 304.02 250.97 312.6C251.58 320.72 255.45 327.74 264.79 336.35C275.19 345.94 285.19 352.81 301.7 367.34C304.8 370.07 308.59 373.3 311.81 378.81C314.02 382.61 313.48 390.62 315.39 389.67C317.3 388.72 323.35 390.83 323.35 382.09C323.35 350.36 272.16 272.37 256.89 290Z" fill="#81170E" stroke="#81170E" stroke-miterlimit="10"/>
<path d="M294.69 308.63C296.55 305.19 301.03 300.48 302.3 299.2C314.07 287.34 409.95 224.53 419.63 217.97C426.64 213.22 415.23 203.38 407.99 207.51C350.87 240.1 297.83 280.51 290.89 290.21C287.7 294.67 291.99 313.61 294.69 308.63Z" fill="#DB3821" stroke="#DB3821" stroke-miterlimit="10"/>
<path d="M347.67 373.21C354.74 365.31 352.65 397.62 352.03 400.83C349.52 413.86 340.22 424.02 332.55 431.67C327.67 436.53 317.06 445.8 296.98 450.41C289.03 452.23 274.46 452.26 268.39 451.7C266.8 451.55 265.59 450.15 265.75 448.55C266.61 439.97 272.3 429.18 270.03 424.09C269.02 421.82 327.6 395.6 347.66 373.21H347.67Z" fill="#DB3821" stroke="#DB3821" stroke-miterlimit="10"/>
<path d="M143.05 367.17C143.35 368.46 142.58 376.92 142.18 382.68C142.11 383.7 141.41 384.56 140.42 384.83C137.24 385.72 125.7 391.5 122.52 393.82C116.53 398.21 113.12 402.4 111.9 407.82C110.92 412.14 101.44 401.69 100.35 395.39C98.15 382.7 112.96 368.74 127.13 365.36C130.59 364.53 141.61 361.04 143.05 367.17Z" fill="#DB3821" stroke="#DB3821" stroke-miterlimit="10"/>
<path d="M226.87 513.92C228.08 514 229.39 534.7 228.71 542.11C227.45 555.81 220.56 560.08 214.25 565.44C203.2 574.83 180.14 593.34 180.14 593.34C180.14 593.34 105.66 649.78 102.52 660.28C99.47 670.46 96.19 672.15 94.34 672.3C91.89 672.5 90.13 654.1 90.13 646.75C90.13 636.5 218.54 513.36 226.87 513.93V513.92Z" fill="#DB3821" stroke="#DB3821" stroke-miterlimit="10"/>
<path d="M271.58 269.59C270.73 270.27 257.21 281.01 256.33 296.26C256.02 301.67 257.78 308.85 263.41 316.88C269.04 324.91 281.91 334.38 293.9 344.4C305.89 354.42 316.74 364.59 317.53 372.88C318.41 382.08 311.96 393.21 302.41 400.16C292.86 407.11 280.21 409.88 268.66 402.35C259.81 396.58 244.88 383.4 228.6 370.57C212.32 357.74 194.67 345.25 180.4 340.89C175.52 339.4 164.76 336.95 151.38 337.35C137.99 337.76 121.98 341.02 106.59 350.97C102 353.94 91.69 359.81 82.56 370.6C73.19 381.67 66.26 397.81 75.72 414.61C83.18 427.87 116.25 454.03 134.07 468.55C161.04 490.51 189.58 506.94 189.62 521.22C189.65 531.02 181.94 535.39 173.88 542.58C165.41 550.13 105.32 592.24 86.11 606.39C61.72 624.35 56.77 637.1 57.85 654.36C59.68 683.63 116.92 722.92 226.27 807.11C248.95 824.57 275.76 812.2 267.8 808.1C268.54 793.57 182.06 727.73 160.74 711.64C158.17 709.7 105.08 669.96 99.62 659.97C91.33 644.82 103.61 635.19 116.52 625.3C116.52 625.3 183.46 571.78 209.91 551.49C218.97 544.14 226.7 534.46 227.66 526.5C230.44 503.48 215.68 493.04 212.37 490.35C202.57 482.38 158.21 447.75 128.89 425.19C124.94 422.63 109.97 411.67 109.02 401.66C108.38 395.53 110.33 389.79 113.53 385.37C116.73 380.95 121.19 377.86 122.71 376.56C129.36 370.86 142.13 364.46 158.29 365.86C179.27 367.67 202.31 391.14 207.98 394.95C211.19 397.1 226.16 409.51 237.45 417.96C248.22 426.46 253.19 429.62 261.21 431.88C267.74 433.72 274.48 434.4 278.52 434.59C289.73 435.1 299.54 432.4 307.41 428.97C315.28 425.54 321.2 421.37 324.65 418.95C329.42 415.6 334.55 411.05 339.29 405.73C344.03 400.41 349 394.86 350.72 386.68C352.03 380.46 352.15 377.81 351.82 372.98C350.91 359.62 335.98 345.06 328.13 338.15C320.28 331.24 298.46 313.66 296.05 311.13C293.64 308.6 291.05 305.45 290.58 301.6C290.28 299.12 290.55 296.69 291.24 294.52C291.93 292.35 293.01 290.46 294.33 289.05C306.17 276.12 427.39 197.77 427.39 197.77L413.24 191.84L417.01 169.64C417.01 169.64 288.27 256.19 271.57 269.61L271.58 269.59Z" fill="#EC822C" stroke="#EC822C" stroke-miterlimit="10"/>
<path d="M209.92 551.49C214.45 547.81 218.65 543.56 221.83 539.22C225.01 534.88 227.19 530.48 227.67 526.49C229.06 514.98 226.06 506.62 222.31 500.79C218.56 494.96 214.04 491.68 212.38 490.34C207.48 486.36 193.94 475.71 177.96 463.23C161.98 450.75 143.56 436.46 128.9 425.18C126.93 423.9 122.2 420.52 117.84 416.21C113.48 411.9 109.5 406.66 109.03 401.65C108.71 398.59 109.03 395.62 109.84 392.86C110.65 390.1 111.94 387.57 113.54 385.36C115.14 383.15 117.06 381.27 118.76 379.79C120.46 378.31 121.96 377.2 122.72 376.55C126.04 373.7 130.9 370.68 136.94 368.54C142.98 366.4 150.22 365.15 158.3 365.85C168.79 366.76 179.8 373.08 188.89 379.65C197.98 386.22 205.16 393.04 207.99 394.94C209.59 396.02 214.14 399.66 219.69 404.08C225.24 408.5 231.81 413.72 237.46 417.94C242.85 422.19 246.78 425.1 250.37 427.24C253.96 429.38 257.21 430.73 261.22 431.86C264.49 432.78 267.8 433.41 270.81 433.83C273.82 434.25 276.51 434.47 278.53 434.56C284.13 434.81 289.39 434.27 294.23 433.23C299.07 432.19 303.49 430.66 307.42 428.94C311.35 427.22 314.8 425.32 317.7 423.55C320.6 421.78 322.94 420.13 324.66 418.92C327.05 417.24 329.52 415.27 331.99 413.05C334.46 410.83 336.93 408.36 339.3 405.7C341.63 403.08 344.06 400.36 346.12 397.28C348.18 394.2 349.87 390.74 350.73 386.65C351.39 383.54 351.74 381.32 351.89 379.28C352.04 377.24 351.99 375.37 351.82 372.95C351.36 366.27 347.4 359.29 342.58 353.11C337.76 346.93 332.06 341.57 328.13 338.12C324.2 334.67 316.79 328.54 310.05 322.97C303.31 317.4 297.26 312.37 296.05 311.1C294.84 309.84 293.6 308.42 292.59 306.83C291.58 305.24 290.82 303.49 290.58 301.56C290.43 300.32 290.42 299.09 290.54 297.9C290.66 296.71 290.9 295.56 291.24 294.48C291.58 293.4 292.02 292.38 292.55 291.46C293.08 290.54 293.67 289.71 294.33 289.01C300.25 282.54 333.52 259.72 365.3 238.52C397.08 217.32 427.39 197.73 427.39 197.73L420.31 194.77L413.23 191.81L415.11 180.71L416.99 169.61C416.99 169.61 384.8 191.25 350.53 214.56C316.26 237.87 279.9 262.87 271.55 269.58C271.12 269.92 267.53 272.78 263.94 277.45C260.35 282.12 256.75 288.62 256.3 296.25C256.14 298.95 256.51 302.1 257.61 305.58C258.71 309.06 260.56 312.86 263.38 316.87C266.06 320.69 270.69 325.07 276.14 329.74C281.59 334.41 287.88 339.38 293.87 344.39C299.87 349.4 305.58 354.44 309.89 359.28C314.2 364.12 317.11 368.73 317.5 372.88C317.94 377.48 316.55 382.57 313.85 387.37C311.15 392.17 307.16 396.69 302.38 400.17C297.61 403.64 292.05 406.07 286.25 406.69C280.45 407.31 274.4 406.12 268.63 402.36C264.21 399.48 258.26 394.74 251.39 389.12C244.52 383.5 236.71 377 228.57 370.58C220.43 364.16 211.95 357.83 203.72 352.56C195.49 347.29 187.51 343.08 180.38 340.9C177.94 340.15 174.03 339.17 169.06 338.42C164.09 337.67 158.05 337.16 151.36 337.36C144.67 337.56 137.32 338.48 129.72 340.59C122.12 342.7 114.27 346 106.58 350.98C104.28 352.46 100.56 354.67 96.27 357.86C91.98 361.05 87.12 365.21 82.55 370.61C77.87 376.14 73.79 382.95 72.07 390.47C70.35 397.99 70.98 406.22 75.71 414.63C79.44 421.26 89.58 431.11 101 441.13C112.42 451.15 125.15 461.31 134.06 468.57C147.54 479.55 161.42 489.15 171.93 497.79C182.44 506.43 189.59 514.1 189.61 521.24C189.62 526.14 187.71 529.68 184.77 532.9C181.83 536.12 177.9 539.01 173.87 542.6C173.87 542.6 183.5 539.248 191.5 542.6C202.5 547.209 203 557 203 557L209.92 551.49Z" fill="white" stroke="white" stroke-miterlimit="10"/>
<path d="M321.21 250.58L396.69 198.41" stroke="#A72116" stroke-width="3" stroke-miterlimit="10"/>
<path d="M298.81 267.18C286.31 276.78 268.36 286.65 274.18 304.12C278.34 316.61 296.09 328.57 300.62 333.09" stroke="#A72116" stroke-width="3" stroke-miterlimit="10"/>
<path d="M321.46 351.78C323.08 352.9 331.73 361.19 333.68 371.66C335.39 380.8 332.06 388.39 330.86 390.58" stroke="#A72116" stroke-width="3" stroke-miterlimit="10"/>
<path d="M314.22 407.88C311.46 410.31 299.83 420.85 282.17 420.56C262.01 420.23 249.65 407.03 247.59 404.76" stroke="#A72116" stroke-width="3" stroke-miterlimit="10"/>
<path d="M227.2 388.88L197.96 366.5" stroke="#A72116" stroke-width="3" stroke-miterlimit="10"/>
<path d="M172.32 354.09C168.55 352.71 161.5 351.09 154.21 350.98C146.55 350.87 139.53 352.52 135.66 353.87" stroke="#A72116" stroke-width="3" stroke-miterlimit="10"/>
<path d="M113.47 363.84C112.6 364.46 94.59 374.02 90.86 392.28C86.88 411.76 101.84 422.09 102.77 422.94" stroke="#A72116" stroke-width="3" stroke-miterlimit="10"/>
<path d="M124.36 441.07C136.49 450.65 149.19 459.65 161.32 469.23" stroke="#A72116" stroke-width="3" stroke-miterlimit="10"/>
<path d="M184.15 486.79C184.15 486.79 214.62 505.01 211.43 521.03C207.96 538.49 174.36 560.48 174.36 560.48" stroke="#A72116" stroke-width="3" stroke-miterlimit="10"/>
<path d="M150.71 577.44C129.21 592.81 111.72 605.6 98.82 615.4C89.88 622.2 78.58 633.13 77.14 644.67C74.68 664.4 89.41 674.48 93.6 678.43" stroke="#A72116" stroke-width="3" stroke-miterlimit="10"/>
<path d="M114.55 696.05L148.73 722.54" stroke="#A72116" stroke-width="3" stroke-miterlimit="10"/>
<path d="M168.15 738.36L246.77 803.34" stroke="#A72116" stroke-width="3" stroke-miterlimit="10"/>
<path d="M163.465 557.515C164.485 558.099 166.129 558.993 166.485 560.878C166.746 562.269 166.152 563.682 165.781 564.46C165.492 565.066 163.485 567.722 161.614 568.081C159.744 568.44 159.001 567.763 158.62 567.551C158.143 567.286 157.198 566.58 156.506 565.797C155.865 565.07 155.294 563.767 155.266 563.301C155.199 562.213 155.273 560.822 156.348 559.435C157.095 558.471 158.096 557.279 159.653 556.804C161.159 556.344 162.565 557.002 163.465 557.516L163.465 557.515Z" fill="#303338"/>
<path d="M159.581 561.426C157.996 563.744 157.415 566.788 159.509 567.929C160.852 568.66 163.338 568.082 165.347 565.159C166.908 562.888 166.813 560.024 165.41 558.967C164.017 557.918 161.326 558.875 159.581 561.426Z" fill="#131414"/>
<path d="M184.953 540.384C185.427 540.596 187.484 541.755 187.795 543.111C188.106 544.467 187.519 545.809 187.192 546.555C186.936 547.137 185.145 549.677 183.459 550.007C181.772 550.338 181.144 549.775 180.764 549.556C180.327 549.304 179.435 548.712 178.803 547.952C178.217 547.247 178.137 545.722 178.197 545.277C178.339 544.228 179.021 542.975 179.68 542.141C180.383 541.25 180.987 540.604 182.02 540.237C183.362 539.761 184.448 540.158 184.953 540.384Z" fill="#303338"/>
<path d="M182.068 544.449C180.638 546.54 180.405 549.103 181.56 549.87C182.715 550.636 184.973 549.763 186.785 547.126C188.193 545.077 188.219 542.637 186.884 541.786C185.715 541.041 183.643 542.148 182.069 544.449L182.068 544.449Z" fill="#131414"/>
<path d="M163.965 571.902C164.669 573.285 165.142 574.021 165.071 574.121C164.97 574.264 164.564 574.32 164.327 574.233C163.539 573.941 162.785 573.509 162.459 573.343C160.984 572.592 157.964 571.015 157.657 570.771C157.4 570.566 157.11 570.233 157.11 570.233C156.915 569.975 156.831 569.791 156.728 569.68C156.551 569.488 155.832 569.036 155.35 568.716C154.898 568.417 154.176 567.992 153.812 567.691C153.51 567.441 153.287 567.212 153.161 566.898C153.124 566.807 152.941 566.304 153.14 566.014C153.422 565.604 154.405 565.822 155.076 566.012C157.683 566.745 162.09 568.223 163.965 571.901L163.965 571.902Z" fill="#28436B"/>
<path d="M167.554 569.24C167.797 569.499 168.713 570.675 168.594 571.103C168.518 571.38 168.116 571.619 167.043 572.57C165.783 573.687 165.253 573.989 165.07 574.12C164.853 574.277 163.835 571.994 163.971 571.829C164.05 571.735 164.325 571.785 164.534 571.672C165.482 571.157 167.462 569.143 167.553 569.24L167.554 569.24Z" fill="#172A3F"/>
<path d="M196.484 543.9C196.665 544.117 196.217 544.028 195.623 544.472C194.929 544.993 191.956 547.107 188.047 550.139C186.839 551.075 186.447 551.482 186.097 552.313C185.747 553.145 185.992 554.124 186.311 555.233C186.506 555.907 186.747 556.377 186.863 557.132C186.949 557.694 186.847 557.865 186.552 558.189C185.378 559.478 184.08 560.743 182.211 562.198C181.279 562.922 180.822 563.475 180.132 563.545C179.443 563.616 179.207 563.263 178.591 562.776C178.284 562.533 176.968 561.852 176.234 561.668C175.499 561.484 173.868 561.605 172.55 562.198C170.489 563.123 168.301 564.819 166.724 565.765C165.147 566.711 164.208 567.611 164.208 567.611C164.208 567.611 167.503 568.896 167.533 569.265C167.55 569.483 167.316 569.475 165.816 570.786C164.633 571.821 164.244 571.789 164.112 571.83C162.939 572.193 152.986 566.51 153.137 566.039C153.299 565.531 155.606 563.601 156.33 563.716C157.265 563.865 161.156 566.271 161.156 566.271C161.156 566.271 165.482 559.525 165.431 559.309C165.305 558.783 165.229 558.255 165.392 557.452C165.537 556.736 166.143 556.102 167.388 554.719C169.155 552.756 170.773 550.947 171.646 550.222C171.92 549.995 171.778 549.48 172.169 549.025C172.565 548.566 173.036 548.365 173.279 548.281C175.977 547.343 181.556 547.676 183.329 547.206C184.472 546.903 185.694 546.042 188.462 544.354C190.339 543.21 191.577 542.437 193.116 542.411C195.119 542.378 196.21 543.572 196.484 543.901L196.484 543.9Z" fill="#518ACE"/>
<path d="M196.484 543.9C196.382 543.821 194.974 544.942 193.072 546.288C189.775 548.621 187.731 550.296 186.667 551.34C186.322 551.677 186.013 552.399 185.93 553.049C185.828 553.852 186.355 555.59 186.81 556.839C186.946 557.212 186.994 557.644 186.72 557.971C184.993 560.031 182.58 561.896 180.589 563.36C180.111 563.711 179.306 563.29 179.044 563.097C177.958 562.295 177.184 562.018 176.557 561.772C175.737 561.451 174.132 561.479 172.549 562.198C170.044 563.337 168.982 564.187 166.543 565.817C165.354 566.612 164.207 567.61 164.207 567.61C164.207 567.61 166.894 568.737 167.343 569.095C167.453 569.182 168.402 569.993 168.595 571.104C168.595 571.104 169.483 571.049 169.648 570.953C172.024 569.555 176.598 571.295 180.587 568.24C182.471 566.798 183.496 565.809 185.179 564.407C186.12 563.622 187.74 562.289 187.948 561.41C188.027 561.075 188.02 560.702 187.874 559.56C187.728 558.418 187.663 557.576 187.733 557.125C187.902 556.033 188.625 555.3 190.779 553.373C193.799 550.67 195.964 549.208 196.391 547.502C196.457 547.236 196.582 546.576 196.661 545.812C196.759 544.858 196.68 544.054 196.485 543.901L196.484 543.9Z" fill="#28436B"/>
<path d="M174.54 551.433C174.734 551.594 175.358 553.162 175.441 553.333C175.479 553.409 175.723 553.593 175.943 554.283C176.164 554.972 176.332 555.399 176.459 555.592C176.761 556.051 177.129 556.285 177.154 556.351C177.197 556.458 175.742 557.345 175.269 557.63C174.621 558.02 173.34 558.717 170.808 560.614C169.239 561.79 167.671 563.301 165.943 564.593C164.69 565.53 163.095 567.043 163.095 567.043L162.323 566.647C162.323 566.647 163.186 565.19 163.887 564.09C164.388 563.305 165.289 561.98 166.918 559.43C167.987 557.757 168.623 556.86 170.332 554.91C170.332 554.91 171.864 552.882 173.642 551.608C173.831 551.472 174.269 551.208 174.54 551.433Z" fill="#28436B"/>
<path d="M190.479 550.145C190.558 550.746 190.955 551.133 191.463 551.06C191.972 550.987 192.11 550.391 192.32 549.88C192.541 549.342 191.795 548.992 191.286 549.065C190.777 549.139 190.407 549.596 190.479 550.145Z" fill="#131414"/>
<path d="M197.422 547.87C197.896 548.081 199.953 549.241 200.264 550.597C200.575 551.952 199.988 553.295 199.66 554.041C199.404 554.623 197.614 557.163 195.927 557.493C194.24 557.823 193.613 557.261 193.233 557.042C192.796 556.79 191.903 556.198 191.272 555.438C190.685 554.733 190.605 553.208 190.666 552.763C190.808 551.714 191.49 550.461 192.149 549.627C192.852 548.736 193.456 548.09 194.488 547.723C195.831 547.247 196.917 547.644 197.422 547.87Z" fill="#303338"/>
<path d="M194.537 551.935C193.106 554.025 192.873 556.589 194.028 557.355C195.183 558.122 197.441 557.249 199.254 554.611C200.662 552.562 200.688 550.122 199.352 549.271C198.183 548.526 196.112 549.633 194.538 551.935L194.537 551.935Z" fill="#131414"/>
<path d="M195.661 552.773C195.01 553.808 195.109 554.965 195.77 555.292C196.432 555.618 197.389 555.081 198.064 554.062C198.746 553.032 198.577 551.812 197.916 551.486C197.255 551.159 196.31 551.74 195.661 552.773L195.661 552.773Z" fill="#303338"/>
<path d="M177.482 564.453C178.502 565.036 180.146 565.931 180.502 567.816C180.763 569.206 180.169 570.62 179.798 571.397C179.509 572.004 177.502 574.659 175.631 575.018C173.761 575.378 173.018 574.7 172.638 574.488C172.16 574.223 171.216 573.517 170.524 572.734C169.882 572.008 169.312 570.705 169.283 570.238C169.216 569.15 169.29 567.759 170.366 566.373C171.112 565.409 172.113 564.217 173.67 563.741C175.227 563.266 176.582 563.939 177.482 564.453L177.482 564.453Z" fill="#303338"/>
<path d="M173.598 568.364C172.013 570.681 171.432 573.726 173.526 574.866C174.869 575.598 177.355 575.02 179.364 572.096C180.925 569.825 180.831 566.961 179.427 565.905C178.034 564.856 175.343 565.812 173.598 568.364Z" fill="#131414"/>
<path d="M175.092 569.617C174.371 570.764 174.087 571.919 175.265 572.529C175.992 572.904 177.251 572.344 178 571.215C178.748 570.085 178.538 568.776 177.835 568.359C176.925 567.818 175.811 568.472 175.092 569.616L175.092 569.617Z" fill="#303338"/>
<path d="M180.13 550.977C180.467 550.95 181.106 551.347 181.565 551.893C182.272 552.734 181.898 554.168 181.581 554.591C180.79 555.647 179.341 556.594 177.897 556.505C177.519 556.482 177.039 556.203 176.69 555.742C176.342 555.281 176.047 554.304 175.876 553.829C175.786 553.581 175.473 553.311 175.508 553.284C175.539 553.26 175.908 553.601 176.436 553.583C176.867 553.569 178.146 553.337 178.954 552.165C179.123 551.92 179.214 551.585 179.354 551.41C179.545 551.171 179.8 551.003 180.131 550.977L180.13 550.977Z" fill="#303338"/>
<path d="M180.052 550.865C180.054 550.848 179.521 550.663 179.136 550.578C178.693 550.48 178.223 550.414 177.596 550.616C176.707 550.902 176.179 551.459 175.993 551.676C175.7 552.018 175.477 552.378 175.518 552.753C175.554 553.072 175.796 553.339 176.072 553.443C176.575 553.63 177.655 553.272 178.218 552.807C178.661 552.44 178.943 552.016 179.026 551.826C179.118 551.616 179.227 551.396 179.36 551.231C179.586 550.953 180.049 550.884 180.051 550.865L180.052 550.865Z" fill="#28436B"/>
<path d="M174.896 549.749C174.412 549.061 173.698 548.71 173.596 548.679C173.214 548.565 172.778 548.507 172.363 548.738C171.895 549 171.696 549.65 171.755 550.131C171.835 550.798 172.103 550.968 172.651 551.369C173.06 551.668 173.325 551.845 173.746 551.895C173.861 551.909 174.505 551.985 174.925 551.517C175.356 551.036 175.194 550.381 175.162 550.267C175.1 550.043 174.999 549.895 174.896 549.749Z" fill="#303338"/>
<path d="M175.053 549.989C175.053 549.989 174.905 550.605 174.464 551.055C173.911 551.618 173.373 551.807 173.373 551.807C173.373 551.807 173.68 551.932 173.961 551.908C174.633 551.851 174.795 551.652 174.942 551.497C175.264 551.158 175.222 550.653 175.205 550.501C175.172 550.194 175.051 549.989 175.051 549.989L175.053 549.989Z" fill="#141313"/>
</g>
<defs>
<clipPath id="clip0_4493_88">
<rect width="393" height="782" fill="white"/>
</clipPath>
</defs>
</svg>
