<svg preserveAspectRatio="none" overflow="visible" style="display: block;" width="43.2139" height="52.001" viewBox="0 0 43.2139 52.001" fill="none" xmlns="http://www.w3.org/2000/svg">
<path id="Intersect" d="M24.4131 45.3867C24.412 45.3908 24.4111 45.3948 24.4102 45.3984C24.4065 45.4125 24.4032 45.4234 24.4014 45.4307L24.4004 45.4326C24.4065 45.4068 24.4247 45.3293 24.4502 45.2041C24.5019 44.9499 24.5844 44.5068 24.6621 43.9111C24.8191 42.7078 24.9511 40.9509 24.8252 38.8945C24.573 34.7759 23.3241 29.8399 19.5273 25.4502C15.8874 21.2419 11.3369 19.5411 7.32812 18.9141C5.32191 18.6003 3.55907 18.5779 2.33008 18.6328C1.72307 18.66 1.26711 18.7052 1.00293 18.7363C0.880279 18.7508 0.800749 18.7618 0.768555 18.7666C0.775611 18.7654 0.785056 18.7638 0.796875 18.7617C0.804093 18.7605 0.812265 18.7594 0.821289 18.7578C0.824869 18.7572 0.829143 18.7556 0.833008 18.7549C0.554712 18.8042 0.276477 18.8377 0 18.8633L14.5273 0C20.9677 1.65506 28.4291 5.17033 34.6533 12.3662C39.1634 17.5804 41.7643 23.1459 43.2139 28.3076L24.9668 52.001C24.1262 50.1302 23.8516 47.9912 24.3027 45.8525L24.4131 45.3867ZM24.4199 45.3594C24.4187 45.3642 24.4181 45.3696 24.417 45.374C24.4159 45.3784 24.4141 45.3827 24.4131 45.3867L24.4199 45.3594Z" fill="#B9C8FF"/>
</svg>
